<?xml version="1.0" standalone="no"?>
<!DOCTYPE svg PUBLIC "-//W3C//DTD SVG 20010904//EN"
 "http://www.w3.org/TR/2001/REC-SVG-20010904/DTD/svg10.dtd">
<svg version="1.0" xmlns="http://www.w3.org/2000/svg"
 width="660.000000pt" height="660.000000pt" viewBox="0 0 660.000000 660.000000"
 preserveAspectRatio="xMidYMid meet">
<metadata>
Created by potrace 1.14, written by Peter Selinger 2001-2017
</metadata>
<g transform="translate(0.000000,660.000000) scale(0.100000,-0.100000)"
fill="#000000" stroke="none">
<path d="M3200 6570 c-469 -26 -1011 -174 -1459 -400 -482 -242 -936 -647
-1246 -1110 -46 -69 -105 -163 -132 -211 -91 -158 -253 -498 -322 -675 -18
-46 -11 -89 14 -89 21 0 20 -1 185 256 403 629 920 1017 1695 1274 644 213
1328 249 1969 105 256 -58 430 -121 690 -248 292 -143 553 -320 742 -505 l81
-79 27 33 c15 17 38 54 52 80 13 27 28 49 33 49 5 0 16 -11 24 -24 15 -21 14
-28 -1 -76 -12 -37 -26 -59 -49 -74 -83 -57 -111 -148 -81 -261 12 -43 11 -48
-22 -108 -28 -54 -41 -67 -84 -88 -65 -31 -86 -61 -93 -135 -3 -40 -14 -71
-31 -97 -21 -31 -26 -53 -30 -120 -2 -45 -8 -86 -12 -92 -4 -5 -71 -137 -149
-292 -78 -156 -146 -283 -151 -283 -5 0 -25 34 -44 75 -98 206 -222 561 -346
990 -42 145 -70 198 -144 268 -132 128 -594 457 -823 586 -173 99 -247 88
-531 -80 -210 -124 -519 -350 -658 -482 -97 -91 -119 -130 -172 -297 -30 -96
-135 -397 -191 -545 -87 -234 -193 -458 -267 -563 -42 -60 -46 -71 -55 -156
-11 -99 -41 -271 -94 -546 -71 -362 -81 -461 -66 -648 7 -91 15 -131 29 -155
11 -18 23 -50 27 -72 3 -22 22 -79 41 -126 l34 -86 -30 -89 c-39 -114 -96
-173 -317 -328 -46 -31 -84 -65 -84 -74 -1 -9 -2 -26 -3 -36 -1 -16 -27 -30
-126 -68 -226 -87 -300 -135 -357 -230 -42 -70 -57 -138 -88 -413 -14 -126
-30 -248 -35 -269 -5 -22 -7 -44 -4 -48 3 -4 32 -8 65 -8 53 0 59 2 59 20 0
70 23 382 35 470 26 192 44 222 172 282 162 76 294 127 298 115 4 -10 35 -145
49 -207 2 -8 10 -14 18 -12 9 1 19 -5 22 -14 5 -12 2 -15 -10 -10 -11 4 -14 1
-12 -12 2 -9 10 -17 17 -17 8 0 16 -6 19 -14 3 -10 0 -12 -12 -8 -12 5 -16 3
-14 -5 3 -7 10 -14 16 -14 7 -1 15 -3 20 -4 4 -1 14 -3 22 -4 8 0 16 -10 18
-21 4 -16 2 -17 -10 -7 -19 15 -32 3 -17 -15 8 -9 8 -13 0 -13 -6 0 -13 11
-17 25 -8 33 -23 32 -16 -1 3 -15 14 -29 28 -34 27 -11 32 -30 9 -30 -8 0 -15
-7 -15 -15 0 -16 15 -21 23 -7 2 4 2 2 1 -5 -2 -7 1 -15 6 -18 6 -4 10 -12 10
-18 0 -8 -3 -8 -9 2 -6 10 -10 10 -16 1 -4 -7 1 -14 15 -17 14 -4 18 -8 10
-13 -8 -5 -9 -16 -5 -30 6 -18 9 -20 17 -9 6 10 7 3 3 -18 -5 -27 -4 -32 9
-27 11 4 16 1 16 -11 0 -9 -5 -13 -11 -9 -7 4 -10 1 -7 -7 3 -8 11 -13 18 -11
7 2 9 -5 5 -18 -4 -11 -2 -20 4 -20 6 0 7 -7 4 -17 -5 -11 -3 -14 6 -8 10 5
11 2 7 -13 -4 -11 -2 -30 3 -43 5 -13 19 -50 31 -81 l22 -58 74 0 73 0 -21 38
c-12 20 -15 31 -8 25 25 -23 32 -14 12 14 -10 16 -25 42 -34 58 -8 17 -19 39
-25 50 -6 11 -20 44 -32 73 -11 28 -30 73 -40 100 -11 26 -27 68 -36 95 -9 26
-20 45 -23 43 -4 -2 -8 10 -9 28 -1 17 -7 45 -14 61 -7 17 -11 34 -10 39 1 4
-3 14 -9 21 -6 7 -10 17 -9 21 1 5 0 16 -4 24 -3 8 -8 29 -10 45 -3 17 -12 68
-20 115 -9 47 -18 106 -22 131 l-6 46 49 32 c27 17 54 31 60 31 10 0 16 -33
15 -77 -1 -7 4 -13 9 -13 5 0 8 -8 7 -17 -3 -34 1 -43 19 -43 13 0 14 -2 4 -9
-20 -12 -5 -61 16 -54 14 5 15 3 5 -8 -18 -18 -16 -32 2 -25 8 3 15 1 15 -4 0
-6 -4 -10 -10 -10 -5 0 -10 -5 -10 -11 0 -6 9 -8 20 -4 14 4 20 2 20 -9 0 -10
-6 -13 -15 -10 -8 4 -15 1 -15 -5 0 -6 10 -11 22 -11 21 0 21 0 2 -15 -17 -13
-17 -14 -2 -15 9 0 20 -5 23 -10 4 -6 1 -9 -6 -8 -6 2 -14 -3 -17 -11 -3 -10
1 -13 17 -8 11 3 21 1 21 -4 0 -5 -4 -9 -10 -9 -5 0 -10 -5 -10 -11 0 -5 5 -7
11 -3 7 4 9 0 5 -13 -5 -14 0 -23 16 -31 14 -7 17 -11 6 -9 -9 1 -18 -2 -20
-8 -2 -5 7 -11 19 -13 13 -2 23 -7 23 -12 0 -5 -8 -6 -17 -3 -13 5 -15 2 -10
-11 4 -10 7 -24 7 -32 0 -8 10 -14 23 -15 12 0 16 -3 10 -6 -7 -2 -13 -12 -13
-20 0 -9 6 -13 15 -10 8 4 17 2 20 -2 3 -5 -2 -12 -10 -15 -12 -4 -13 -10 -5
-23 5 -10 15 -31 20 -47 7 -19 15 -26 25 -22 8 3 15 1 15 -4 0 -6 -4 -10 -10
-10 -5 0 -10 -7 -10 -15 0 -8 5 -15 10 -15 6 0 10 5 10 11 0 5 5 7 10 4 15 -9
12 -23 -5 -27 -11 -2 -12 -7 -4 -18 8 -11 12 -12 16 -2 2 6 14 12 25 12 16 0
17 -2 6 -13 -7 -8 -19 -16 -25 -18 -9 -3 -9 -9 -3 -19 9 -13 11 -13 20 0 8 13
10 13 10 -2 0 -9 -5 -18 -12 -20 -7 -3 -8 -10 -4 -17 7 -10 10 -10 16 -1 4 7
13 9 20 5 10 -6 9 -11 -5 -22 -15 -10 -16 -16 -7 -25 9 -9 12 -9 12 1 0 7 5 9
11 5 8 -5 7 -9 -1 -14 -7 -4 -10 -15 -7 -25 4 -9 11 -13 17 -10 5 3 7 0 4 -9
-3 -8 2 -29 11 -47 14 -25 19 -29 27 -18 8 11 9 10 4 -3 -3 -10 0 -31 5 -48
11 -29 13 -30 71 -30 60 0 60 0 46 22 -8 13 -25 42 -37 66 -20 38 -23 41 -37
27 -9 -8 -21 -15 -27 -14 -9 0 -8 2 1 6 6 2 12 11 12 18 0 7 5 15 10 17 6 2
-9 46 -35 100 -29 63 -50 95 -59 92 -18 -7 -44 45 -28 55 10 6 8 18 -5 54 -14
39 -21 46 -38 42 -17 -5 -18 -5 -3 5 15 9 15 15 -8 73 -13 34 -29 70 -34 79
-6 10 -10 25 -10 33 0 10 -5 13 -12 9 -6 -4 -8 -3 -4 4 6 10 -28 154 -42 177
-3 5 -7 16 -8 25 -1 8 -11 60 -22 115 -31 151 -31 183 -2 206 33 25 54 25 47
-1 -3 -10 -2 -20 2 -22 4 -2 17 -39 30 -83 13 -44 31 -98 41 -120 10 -22 35
-83 56 -135 20 -52 42 -98 47 -101 5 -3 7 -9 5 -12 -1 -4 4 -15 13 -25 8 -10
13 -24 11 -31 -3 -10 2 -12 18 -8 17 4 20 3 11 -6 -16 -16 -14 -27 7 -28 10 0
12 -3 5 -6 -18 -7 -16 -23 2 -23 9 0 18 7 21 15 8 19 24 19 24 0 0 -8 -6 -15
-14 -15 -17 0 -31 -18 -22 -27 3 -3 12 0 21 7 9 7 17 11 19 9 4 -6 69 -107
139 -219 32 -52 106 -159 164 -237 l104 -143 75 0 c75 0 86 6 59 33 -8 8 -12
17 -8 20 5 6 17 -2 54 -36 16 -14 39 -17 151 -17 l132 0 -69 34 c-148 71 -416
289 -576 467 -140 157 -263 339 -340 503 -65 141 -115 369 -65 300 8 -10 12
-22 10 -26 -3 -5 0 -8 5 -8 6 0 11 -7 11 -15 0 -8 4 -15 10 -15 5 0 7 -7 4
-15 -4 -8 -1 -15 6 -15 6 0 8 -4 5 -10 -3 -5 -1 -10 4 -10 6 0 11 -7 11 -15 0
-8 5 -15 11 -15 6 0 8 -9 4 -20 -5 -14 -2 -20 10 -20 9 0 15 -6 12 -12 -2 -7
3 -19 12 -25 14 -11 14 -14 1 -23 -12 -8 -11 -10 8 -10 13 0 21 -4 18 -9 -3
-5 1 -12 10 -15 8 -3 12 -10 9 -16 -3 -5 -2 -10 3 -10 4 0 15 -17 23 -37 8
-21 28 -56 46 -79 17 -23 29 -45 26 -48 -4 -3 -1 -6 5 -6 7 0 12 -6 12 -14 0
-8 4 -16 8 -18 4 -2 35 -39 69 -83 81 -107 157 -184 282 -284 148 -118 253
-185 436 -276 88 -44 159 -84 157 -90 -4 -15 -97 -8 -133 10 -17 9 -38 18 -47
20 -10 2 -29 6 -44 10 -23 6 -28 4 -28 -10 0 -15 3 -15 15 -5 13 11 14 10 9
-5 -5 -13 -4 -16 4 -11 7 4 12 2 12 -3 0 -6 9 -11 21 -11 11 0 17 -4 14 -10
-6 -9 8 -14 28 -11 4 0 7 -3 7 -9 0 -5 7 -7 15 -4 11 4 13 2 9 -9 -5 -13 10
-15 107 -14 l112 2 95 165 c110 189 148 257 224 391 40 72 75 117 136 177 45
44 82 87 82 95 0 8 7 17 15 21 8 3 15 1 15 -4 0 -11 -48 -102 -61 -115 -5 -5
-9 -13 -9 -17 0 -5 11 2 25 16 14 14 25 30 25 36 0 5 5 10 11 10 5 0 7 5 3 12
-5 7 -2 9 9 5 11 -4 14 -2 10 9 -3 8 1 14 10 14 9 0 18 -9 22 -20 7 -23 -29
-98 -140 -291 -43 -74 -121 -208 -173 -299 -52 -91 -102 -175 -110 -187 -14
-22 -13 -23 14 -23 26 0 34 9 77 88 26 48 79 139 118 202 38 63 80 135 94 160
14 25 38 68 55 95 17 28 36 60 42 73 6 12 15 22 20 22 4 0 8 7 8 15 0 8 5 15
10 15 6 0 10 6 10 14 0 7 7 19 15 26 8 7 15 9 15 5 0 -15 -54 -125 -62 -125
-4 0 -5 -7 -2 -15 4 -8 1 -15 -5 -15 -6 0 -11 -7 -11 -15 0 -8 -3 -15 -8 -15
-4 0 -13 -15 -21 -32 -7 -18 -19 -37 -25 -43 -6 -5 -26 -39 -44 -75 -43 -87
-113 -214 -121 -220 -3 -3 -11 -14 -17 -25 -32 -60 -50 -91 -55 -95 -3 -3 -8
-13 -12 -22 -6 -17 4 -18 118 -18 114 0 125 2 125 18 0 21 88 162 101 162 10
0 -4 -40 -25 -73 -20 -29 -48 -109 -36 -102 5 3 14 22 21 43 17 55 65 103 52
52 -3 -11 -8 -20 -12 -20 -3 0 -7 -18 -8 -40 -3 -39 -2 -40 32 -40 27 0 35 4
35 18 0 10 20 49 45 86 58 88 65 117 65 259 0 104 2 119 20 137 11 11 28 20
39 20 10 0 24 7 31 16 28 33 50 37 76 13 13 -12 24 -33 24 -46 0 -30 -18 -65
-29 -58 -26 15 -51 -142 -51 -313 l0 -132 75 0 c66 0 79 3 99 23 13 13 25 29
28 37 7 22 38 4 49 -30 l11 -30 249 0 248 0 67 78 c104 121 240 331 319 491
43 89 125 285 165 399 18 50 36 92 40 92 4 0 13 -6 19 -14 9 -11 9 -16 1 -21
-7 -4 -9 -18 -6 -34 5 -17 4 -21 -2 -12 -6 8 -12 9 -16 3 -3 -6 -2 -13 4 -17
5 -3 10 -11 10 -16 0 -6 -4 -7 -10 -4 -14 9 -12 -9 3 -24 10 -10 8 -11 -8 -5
-20 7 -20 7 -2 -14 19 -20 18 -21 -5 -15 -23 6 -23 6 -5 -15 19 -20 18 -21 -5
-15 l-23 6 20 -23 20 -23 -25 8 -25 7 23 -17 c21 -15 22 -42 1 -30 -5 3 -6 -1
-3 -9 7 -19 -7 -21 -24 -4 -7 7 -12 8 -12 4 0 -5 8 -15 18 -22 11 -9 13 -13 4
-14 -7 0 -11 -4 -7 -9 6 -11 -34 -124 -47 -129 -4 -2 -6 -8 -2 -13 3 -5 0 -9
-5 -9 -6 0 -11 -6 -11 -12 0 -7 -4 -19 -9 -27 -8 -13 -12 -13 -28 -1 -17 14
-17 14 0 -6 19 -24 23 -39 5 -28 -8 5 -9 2 -5 -9 3 -10 2 -17 -3 -17 -6 0 -10
-7 -10 -15 0 -18 -12 -19 -29 -3 -10 11 -11 10 -6 -5 4 -9 11 -17 16 -17 5 0
9 -5 9 -10 0 -7 -6 -7 -20 0 -11 6 -20 7 -20 1 0 -5 8 -12 17 -15 13 -5 14 -9
4 -19 -9 -9 -14 -9 -21 3 -5 8 -10 10 -10 5 0 -6 6 -17 12 -24 11 -11 8 -12
-12 -7 -14 3 -19 3 -12 0 14 -7 16 -34 2 -34 -5 0 -10 5 -10 12 0 6 -3 8 -6 5
-4 -4 -1 -13 6 -22 16 -20 5 -32 -14 -16 -13 11 -16 8 -22 -13 -3 -14 -10 -26
-15 -26 -5 0 -9 -5 -9 -11 0 -8 5 -8 15 1 12 10 15 10 15 -3 0 -8 -3 -17 -7
-19 -5 -2 -19 -24 -33 -50 -13 -26 -37 -61 -52 -77 -15 -16 -28 -34 -28 -38 0
-5 -9 -15 -20 -23 -11 -8 -20 -20 -20 -27 0 -7 -4 -13 -10 -13 -5 0 -10 -4
-10 -10 0 -6 46 -10 118 -10 l119 0 61 108 c34 59 80 147 103 197 46 101 156
404 184 508 10 37 21 69 24 72 4 2 17 -3 31 -11 22 -12 23 -13 5 -14 -17 0
-17 -2 -5 -10 13 -9 13 -11 0 -20 -8 -5 -11 -10 -7 -10 4 0 3 -9 -3 -19 -7
-14 -6 -21 3 -24 9 -4 9 -6 -1 -6 -7 -1 -10 -5 -7 -11 3 -5 2 -10 -4 -10 -5 0
-8 -8 -7 -18 2 -9 -2 -20 -8 -24 -8 -6 -6 -11 4 -18 13 -8 12 -10 -4 -10 -11
0 -17 -3 -13 -6 3 -4 -1 -20 -9 -36 -12 -23 -13 -33 -3 -44 10 -12 9 -13 -5
-8 -9 3 -16 1 -16 -5 0 -6 6 -11 13 -12 6 0 3 -4 -8 -9 -11 -5 -15 -9 -8 -9 7
-1 11 -13 10 -31 -2 -25 -7 -30 -27 -31 l-25 0 25 -11 c15 -6 20 -12 13 -15
-7 -3 -13 -13 -13 -24 0 -13 -7 -19 -22 -20 -18 -1 -19 -2 -5 -6 22 -6 16 -29
-7 -27 -13 2 -14 -1 -5 -12 9 -11 8 -14 -7 -15 -11 0 -14 -3 -6 -6 6 -2 12
-12 12 -20 0 -9 -6 -13 -14 -10 -11 4 -13 1 -9 -10 4 -11 2 -14 -5 -9 -8 5
-10 2 -6 -8 4 -9 1 -16 -6 -16 -7 0 -10 -7 -7 -14 4 -11 1 -13 -11 -8 -15 5
-15 3 2 -22 10 -16 14 -26 8 -22 -5 3 -13 -6 -16 -20 -5 -18 -11 -24 -23 -20
-13 5 -14 4 -3 -9 17 -21 5 -31 -17 -14 -17 13 -17 12 0 -8 11 -12 14 -23 8
-27 -5 -4 -12 -2 -16 4 -4 6 -11 7 -17 4 -7 -5 -2 -11 12 -16 18 -7 21 -11 11
-21 -9 -9 -14 -9 -21 3 -9 13 -11 13 -20 0 -7 -11 -5 -16 5 -18 19 -4 19 -6 0
-42 l-16 -30 44 0 43 0 61 122 c92 184 176 400 228 587 19 68 36 125 38 127 2
2 15 -2 30 -9 29 -13 39 -44 11 -33 -14 5 -15 4 -5 -8 7 -8 10 -24 6 -36 -7
-22 -16 -74 -18 -102 -1 -10 -5 -18 -10 -18 -5 0 -6 -7 -3 -16 5 -13 2 -15
-15 -11 -20 5 -20 5 -3 -14 11 -12 13 -19 5 -19 -8 0 -10 -7 -6 -20 4 -11 2
-20 -4 -20 -6 0 -8 -7 -5 -15 4 -8 1 -15 -5 -15 -6 0 -8 -7 -5 -15 4 -8 1 -15
-5 -15 -6 0 -8 -7 -4 -17 5 -12 2 -15 -9 -11 -10 4 -21 -4 -33 -24 -17 -30
-17 -32 1 -46 19 -14 19 -15 0 -8 -12 4 -23 1 -28 -6 -12 -20 -9 -66 5 -71 6
-2 9 -8 5 -12 -4 -4 -14 -2 -23 5 -12 10 -15 10 -15 -4 0 -10 -4 -15 -8 -12
-4 2 -8 -4 -8 -15 0 -10 6 -19 14 -19 7 0 10 -5 7 -10 -4 -6 -11 -7 -17 -4
-12 8 -29 -16 -21 -29 3 -5 9 -3 14 4 7 11 9 11 9 -2 0 -23 -11 -30 -27 -18
-10 9 -13 8 -13 -5 0 -9 5 -16 11 -16 5 0 7 -5 4 -10 -5 -8 -11 -7 -21 1 -17
14 -19 -2 -2 -19 6 -6 8 -15 4 -19 -4 -4 -11 -1 -16 7 -6 9 -10 10 -10 3 0 -6
5 -15 10 -18 6 -3 10 -11 10 -18 0 -8 -3 -8 -12 1 -19 19 -30 14 -17 -10 10
-18 9 -20 -5 -15 -9 4 -16 2 -16 -3 0 -6 5 -10 10 -10 6 0 10 -5 10 -11 0 -6
-7 -9 -15 -5 -8 3 -15 1 -15 -4 0 -15 40 -21 115 -18 l69 3 18 50 c47 132 122
389 158 544 22 94 40 174 40 176 0 2 7 2 16 -2 11 -4 14 -15 11 -39 -3 -18 0
-37 6 -43 8 -8 6 -11 -7 -11 -15 0 -16 -3 -7 -14 9 -11 9 -15 -1 -20 -10 -5
-10 -7 0 -12 6 -3 12 -10 12 -15 0 -6 -5 -7 -11 -3 -7 4 -10 1 -7 -7 3 -8 1
-22 -4 -33 -6 -11 -6 -16 -1 -13 11 7 10 -13 -2 -63 -12 -48 -12 -63 0 -79 7
-11 7 -13 -2 -7 -12 7 -17 -6 -16 -42 1 -6 -3 -12 -8 -12 -5 0 -6 -7 -3 -15 4
-9 -1 -18 -11 -21 -13 -5 -14 -9 -3 -15 11 -7 11 -9 -1 -9 -7 0 -11 -6 -8 -15
4 -8 2 -17 -3 -20 -5 -3 -7 -12 -3 -20 3 -8 0 -15 -6 -15 -6 0 -8 -7 -5 -15 4
-8 1 -15 -6 -15 -6 0 -8 -4 -5 -10 3 -5 1 -10 -5 -10 -7 0 -9 -8 -5 -20 4 -12
2 -20 -5 -20 -6 0 -9 -4 -5 -9 3 -5 1 -12 -4 -16 -6 -3 -8 -12 -4 -20 3 -8 0
-15 -6 -15 -6 0 -8 -7 -5 -15 4 -8 1 -15 -5 -15 -6 0 -8 -7 -4 -16 5 -13 2
-15 -18 -9 -23 7 -24 7 -4 -9 12 -9 40 -15 72 -16 52 0 52 0 61 38 44 180 66
252 76 249 13 -4 15 -37 2 -54 -5 -8 -4 -13 3 -13 8 0 10 -8 6 -20 -8 -27 -17
-71 -18 -90 0 -8 -5 -18 -11 -22 -8 -5 -7 -8 2 -8 12 0 9 -50 -4 -72 -9 -15
116 -9 132 6 11 11 11 16 1 19 -9 4 -8 8 3 16 10 7 11 11 3 11 -7 0 -13 7 -13
15 0 8 6 15 13 15 8 0 7 4 -3 10 -13 9 -13 11 0 20 13 9 13 11 0 20 -13 9 -13
11 0 20 8 5 10 10 4 10 -6 0 -10 47 -10 137 1 86 -3 141 -10 147 -8 7 -7 17 2
35 10 18 10 29 2 38 -8 10 -6 13 6 13 8 0 18 -10 20 -23 21 -96 28 -150 43
-322 l17 -195 64 0 64 0 -6 43 c-46 335 -79 560 -87 592 -41 151 -135 232
-374 319 -155 57 -155 57 -155 77 0 33 -20 64 -58 89 -95 63 -193 144 -255
210 -60 62 -68 76 -62 99 18 68 24 137 23 261 -1 115 1 140 18 170 15 28 19
61 22 170 4 157 -14 313 -58 486 l-29 114 258 523 c302 612 278 567 296 567
23 0 75 50 97 93 17 34 20 53 15 111 -4 61 -2 76 16 106 12 19 38 75 58 124
l35 89 54 18 c71 23 100 47 133 109 30 58 35 119 16 194 -10 40 -9 47 16 84
32 49 55 121 55 177 0 22 4 45 9 51 22 22 243 482 274 569 14 41 21 83 20 131
0 65 2 72 26 89 72 49 120 154 121 260 0 163 -67 285 -195 353 -43 23 -62 27
-135 27 -68 0 -93 -5 -125 -22 -96 -52 -165 -163 -165 -269 l0 -62 -47 -11
c-27 -7 -62 -21 -80 -31 l-32 -19 -148 81 c-733 400 -1255 558 -1968 598 -198
11 -273 11 -475 0z m738 -135 c356 -39 757 -147 1122 -300 154 -65 370 -172
370 -183 0 -4 -4 -13 -9 -20 -6 -10 -30 -2 -107 35 -115 57 -232 107 -324 138
-408 139 -458 154 -542 158 -14 1 -24 6 -21 10 2 4 -7 6 -21 3 -14 -3 -26 -1
-26 4 0 15 -32 20 -48 8 -12 -10 -14 -10 -8 0 11 19 -12 14 -24 -5 -9 -16 -10
-15 -5 5 5 18 2 22 -14 22 -12 0 -21 -6 -22 -12 0 -7 -4 -4 -9 7 -5 11 -9 15
-9 9 -1 -14 -32 -14 -50 0 -11 8 -15 8 -19 -3 -3 -10 -9 -7 -19 10 -8 13 -12
16 -9 7 7 -23 -19 -24 -28 -2 -5 12 -10 13 -19 6 -11 -10 -104 -8 -115 2 -2 3
-15 1 -28 -4 -19 -8 -24 -6 -25 8 0 10 -3 12 -6 5 -7 -19 -23 -16 -24 5 -1 16
-2 16 -6 0 -2 -10 -8 -18 -13 -18 -5 0 -10 8 -12 18 -3 14 -5 13 -10 -5 -5
-19 -1 -22 46 -28 157 -20 445 -88 676 -160 129 -40 326 -119 528 -211 98 -45
211 -124 177 -124 -3 0 -40 17 -83 39 -75 37 -350 150 -384 156 -9 2 -30 11
-46 19 -17 9 -46 17 -65 18 -19 2 -33 6 -31 9 5 9 -56 20 -69 12 -6 -4 -7 -1
-2 7 6 10 4 12 -8 7 -10 -3 -17 -2 -17 2 0 7 -60 23 -85 23 -2 0 -27 8 -54 18
-37 13 -52 15 -62 6 -9 -8 -10 -8 -6 0 8 14 -22 23 -58 19 -14 -1 -25 1 -25 5
0 13 -55 19 -62 7 -5 -8 -8 -6 -8 6 0 19 -30 24 -31 5 0 -10 -2 -10 -6 0 -7
17 -24 15 -39 -5 -12 -16 -12 -15 -8 7 5 25 5 25 -12 5 -14 -17 -16 -17 -11
-2 4 9 2 17 -3 17 -6 0 -10 -4 -10 -10 0 -5 -11 -10 -25 -10 -15 0 -23 5 -20
13 3 7 -5 12 -22 13 -74 3 -103 8 -103 16 0 5 -7 3 -15 -6 -9 -8 -22 -13 -30
-10 -8 4 -15 2 -15 -4 0 -8 37 -18 145 -37 133 -23 366 -87 530 -145 259 -91
645 -279 645 -314 0 -6 -118 42 -135 55 -20 15 -246 109 -336 140 -48 17 -94
27 -100 23 -8 -4 -9 -3 -5 4 4 7 2 13 -3 13 -14 2 -30 6 -33 9 -4 2 -39 11
-58 14 -9 1 -21 5 -28 10 -7 4 -12 2 -12 -6 0 -10 -2 -10 -9 1 -5 7 -14 10
-20 7 -6 -4 -10 -4 -9 1 2 4 -2 10 -7 12 -6 2 -21 8 -34 13 -17 6 -27 5 -33
-4 -6 -10 -8 -8 -8 5 0 17 -26 24 -32 8 -1 -4 -14 -12 -26 -16 -21 -6 -23 -5
-13 12 8 15 7 20 -4 20 -8 0 -12 -5 -9 -11 3 -6 0 -4 -8 4 -15 17 -27 19 -163
25 l-100 4 161 -49 c326 -99 536 -195 843 -385 113 -70 216 -135 229 -146 14
-10 28 -19 32 -19 8 0 125 242 176 367 20 48 40 92 44 97 14 15 60 -21 54 -42
-5 -13 -4 -14 4 -3 5 7 15 10 21 6 18 -10 -6 -35 -27 -28 -13 5 -14 3 -5 -7 8
-8 9 -20 3 -36 -7 -17 -6 -24 3 -25 6 0 0 -5 -15 -10 -17 -7 -25 -15 -21 -25
3 -8 0 -14 -7 -14 -6 0 -8 -4 -5 -10 3 -5 2 -10 -4 -10 -6 0 -8 -7 -5 -15 4
-9 -3 -18 -18 -24 -18 -7 -43 -46 -98 -155 -40 -80 -79 -146 -85 -146 -7 0
-39 19 -71 43 -98 72 -330 206 -339 195 -1 -2 -5 -19 -9 -39 -6 -35 -5 -37 51
-71 32 -20 73 -43 91 -52 41 -21 73 -52 64 -62 -4 -4 -1 -4 6 0 12 7 45 -17
36 -27 -3 -3 10 -10 28 -16 22 -7 34 -17 34 -30 0 -12 -5 -17 -15 -13 -9 3
-12 1 -7 -6 5 -8 2 -10 -8 -6 -9 3 -13 10 -10 15 3 5 -3 9 -13 9 -11 0 -46 16
-79 36 -118 73 -226 134 -235 134 -5 0 -9 1 -9 3 0 1 7 40 15 87 8 47 15 86
15 87 0 2 -57 32 -127 67 -294 147 -660 254 -1060 311 -247 35 -702 38 -994 5
-299 -33 -697 -134 -971 -245 -132 -54 -353 -161 -433 -210 -206 -125 -406
-316 -656 -625 -62 -77 -99 -108 -99 -84 0 11 111 177 173 259 34 44 93 115
132 159 38 43 81 92 95 108 45 54 306 283 422 370 409 306 878 509 1438 623
97 20 245 40 425 59 93 9 627 -3 763 -19z m2356 -247 c48 -15 136 -97 136
-128 0 -26 -18 -26 -41 1 -11 12 -23 18 -30 13 -9 -5 -10 -2 -6 10 4 9 3 15
-2 11 -13 -7 -42 5 -35 16 7 12 -3 11 -27 -1 -15 -9 -19 -7 -19 7 -1 17 -1 17
-11 1 -5 -10 -19 -18 -31 -18 -14 0 -18 -5 -14 -15 4 -12 -4 -15 -37 -15 -23
-1 -60 -7 -82 -15 -21 -8 -41 -12 -43 -10 -10 10 11 58 40 91 54 61 116 77
202 52z m-46 -205 c40 -33 67 -72 78 -116 6 -25 1 -23 -48 27 -62 61 -115 82
-185 72 -50 -7 -54 4 -15 34 40 32 119 24 170 -17z m-2683 -22 c271 -32 583
-100 762 -167 143 -54 273 -115 273 -129 0 -7 8 -12 18 -12 34 0 43 -3 37 -13
-3 -5 0 -10 8 -10 10 0 13 -7 10 -20 -8 -30 -17 -32 -60 -10 -112 57 -399 158
-567 201 -333 84 -555 112 -906 113 -287 1 -468 -14 -720 -60 -509 -93 -1061
-312 -1405 -559 -85 -61 -124 -83 -92 -51 9 10 15 22 12 27 -4 5 0 9 7 9 8 0
20 9 28 20 8 11 19 20 25 20 6 0 17 9 25 19 7 11 17 18 22 15 4 -3 8 2 8 10 0
10 6 13 15 10 10 -4 15 0 15 12 0 9 3 14 6 11 4 -4 15 3 25 14 10 12 23 18 30
13 8 -4 9 -3 5 4 -4 7 -1 12 9 12 10 0 13 5 9 12 -5 7 -2 9 8 6 8 -4 21 2 28
12 8 11 17 17 21 14 4 -2 13 2 21 9 7 7 41 28 76 47 34 18 62 37 62 42 0 5 4
7 9 4 13 -8 42 4 35 15 -3 5 2 6 10 3 9 -3 16 -1 16 6 0 6 5 8 10 5 6 -3 10
-2 10 4 0 6 7 7 17 4 11 -4 14 -3 9 5 -4 8 -2 10 7 6 8 -3 22 2 31 11 9 9 20
13 26 10 5 -3 10 -1 10 5 0 6 5 8 10 5 5 -3 10 -1 10 5 0 6 5 8 10 5 6 -3 10
-1 10 5 0 7 7 9 16 6 8 -3 13 -2 10 3 -5 8 32 24 59 25 6 1 16 7 23 14 8 7 18
10 23 7 5 -4 9 -1 9 6 0 7 3 9 7 6 3 -4 14 0 24 9 10 9 27 14 39 11 11 -3 18
-1 14 4 -5 8 12 13 44 12 6 -1 12 3 12 9 0 5 6 8 13 7 6 -1 19 1 27 4 29 12
327 87 420 106 389 79 819 98 1215 52z m2590 -115 c48 -22 115 -84 115 -106 0
-5 5 -10 12 -10 6 0 4 -8 -6 -19 -10 -11 -15 -24 -12 -30 4 -5 1 -13 -5 -17
-8 -4 -9 -3 -5 4 5 8 -1 12 -14 12 -12 0 -18 5 -15 10 3 6 -1 10 -9 10 -20 0
-21 19 -1 26 12 5 13 9 4 20 -10 12 -8 13 7 8 15 -5 16 -4 4 4 -18 14 -30 6
-30 -19 0 -24 1 -25 -68 12 -36 18 -88 35 -134 42 -66 11 -74 14 -69 31 18 50
141 62 226 22z m-437 -35 c19 -11 -44 -134 -90 -177 -36 -34 -168 -117 -175
-110 -12 11 32 69 70 92 66 41 101 80 132 144 29 60 38 67 63 51z m81 -38 c-2
-47 -86 -201 -127 -232 -15 -12 -51 -39 -81 -61 -68 -50 -116 -116 -131 -183
-7 -29 -22 -70 -33 -92 -11 -22 -18 -41 -16 -41 2 -1 -4 -11 -15 -23 -10 -11
-16 -27 -12 -36 6 -17 0 -15 -46 17 l-27 19 45 97 c80 172 88 186 127 229 21
23 70 60 108 84 77 46 99 70 154 172 36 66 56 84 54 50z m245 -69 c42 -15 47
-19 42 -40 -5 -18 -3 -22 9 -18 11 5 13 2 9 -10 -4 -12 -13 -15 -28 -10 -20 6
-20 5 4 -21 14 -16 20 -25 13 -21 -7 3 -14 -2 -18 -13 -5 -17 -13 -19 -48 -15
l-42 4 39 -21 c48 -26 128 -105 150 -147 18 -35 5 -44 -17 -12 -21 30 -89 79
-109 80 -10 0 -18 4 -18 8 0 4 -24 13 -52 20 -29 7 -60 14 -68 16 -8 2 -21 -1
-27 -7 -8 -6 -13 -6 -13 0 0 5 -13 8 -30 5 -35 -5 -37 3 -10 38 11 14 20 32
20 40 0 14 36 115 46 132 9 14 99 9 148 -8z m-40 -282 c22 -13 52 -38 68 -56
34 -37 82 -115 75 -123 -3 -2 -25 16 -50 41 -24 26 -66 58 -92 71 -49 26 -74
26 -39 0 10 -8 16 -15 13 -15 -13 0 -62 29 -70 42 -6 9 -31 13 -79 13 -57 -1
-70 2 -70 15 0 74 136 80 244 12z m-144 -56 c99 -37 156 -78 203 -146 28 -41
19 -42 -30 -3 -83 63 -167 96 -245 97 -72 1 -78 7 -52 44 18 26 69 29 124 8z
m-2487 -116 c71 -27 348 -197 473 -291 119 -89 220 -190 296 -296 51 -70 85
-133 73 -133 -2 0 -30 32 -61 70 -36 45 -62 69 -71 66 -8 -3 -11 -1 -8 4 4 6
-12 30 -34 53 -23 23 -41 36 -41 29 0 -6 4 -12 9 -12 10 0 45 -50 38 -56 -2
-2 -33 23 -68 56 -35 34 -108 95 -162 137 -102 78 -307 209 -307 195 0 -4 -4
-1 -9 6 -6 10 -11 9 -22 -4 -12 -16 -12 -17 4 -11 12 4 17 1 17 -11 0 -15 2
-15 10 -2 9 14 15 6 10 -15 -1 -5 2 -7 6 -3 4 5 14 -1 21 -12 8 -11 19 -18 24
-15 5 4 9 -1 9 -10 0 -11 5 -15 15 -11 8 3 14 2 12 -2 -1 -4 2 -9 7 -12 37
-20 276 -252 270 -262 -3 -4 -20 7 -38 25 -53 52 -76 68 -86 62 -6 -4 -10 1
-10 9 0 9 -6 15 -12 14 -7 -2 -12 2 -11 9 2 7 -3 10 -11 7 -8 -3 -17 -1 -21 5
-3 6 -11 11 -16 11 -14 0 52 -59 73 -66 10 -3 18 -9 18 -14 0 -5 31 -40 69
-79 38 -38 67 -72 64 -75 -4 -3 1 -6 11 -6 9 0 14 -4 11 -10 -3 -5 -2 -10 2
-10 11 0 54 -41 73 -70 8 -12 20 -28 27 -35 7 -7 10 -15 8 -17 -3 -2 9 -17 25
-33 17 -16 30 -32 30 -37 0 -4 29 -54 64 -111 35 -57 74 -127 86 -155 12 -29
26 -52 31 -52 5 0 9 -12 9 -27 0 -23 -2 -25 -13 -13 -8 8 -46 68 -86 133 -199
323 -445 572 -676 687 -27 14 -52 28 -55 31 -3 4 -16 9 -30 13 -22 6 -23 6 -6
-5 10 -6 35 -27 54 -45 20 -19 41 -33 46 -31 14 5 248 -232 241 -243 -3 -6 -1
-10 5 -10 6 0 35 -25 65 -55 29 -30 51 -55 48 -55 -3 0 4 -8 15 -19 12 -10 22
-22 22 -26 0 -5 11 -23 25 -41 14 -18 25 -37 25 -43 0 -6 5 -11 11 -11 5 0 7
-4 4 -10 -3 -5 1 -10 10 -10 9 0 13 -4 10 -10 -3 -5 -1 -10 4 -10 6 0 11 -7
11 -15 0 -8 6 -14 13 -12 6 1 11 -4 10 -10 -2 -7 1 -13 6 -13 5 0 16 -18 25
-40 9 -22 21 -40 27 -40 5 0 7 -4 4 -10 -3 -5 -1 -10 4 -10 6 0 11 -6 11 -13
0 -7 9 -19 20 -27 11 -8 20 -20 20 -27 0 -7 5 -13 11 -13 6 0 9 -6 7 -12 -4
-12 1 -20 30 -53 7 -8 10 -19 7 -25 -3 -5 -1 -10 4 -10 6 0 11 -7 11 -15 0 -8
5 -15 12 -15 6 0 9 -3 5 -6 -8 -8 13 -64 24 -64 5 0 9 -6 9 -14 0 -8 7 -22 16
-30 8 -9 12 -20 9 -26 -3 -5 -1 -10 5 -10 6 0 10 -6 9 -12 -2 -21 12 -58 23
-58 5 0 7 -4 4 -9 -3 -5 1 -11 9 -15 8 -3 12 -12 9 -21 -4 -8 -1 -15 6 -15 7
0 10 -7 6 -15 -3 -8 -2 -15 2 -15 10 0 32 -51 26 -61 -3 -5 0 -9 6 -9 7 0 10
-7 6 -15 -3 -8 -1 -15 5 -15 6 0 9 -6 6 -14 -3 -8 -3 -17 1 -21 4 -4 7 -10 8
-13 0 -4 4 -15 8 -24 4 -9 9 -25 11 -35 2 -10 4 -19 5 -20 2 -2 4 -7 5 -13 1
-5 4 -13 5 -17 1 -5 2 -11 1 -15 0 -5 4 -8 10 -8 6 0 9 -7 5 -15 -3 -8 -1 -15
5 -15 6 0 8 -9 4 -20 -4 -11 -2 -20 4 -20 6 0 8 -7 5 -15 -4 -8 -2 -15 4 -15
5 0 8 -11 7 -25 -2 -14 1 -25 6 -25 6 0 7 -4 4 -10 -3 -5 -2 -10 4 -10 6 0 8
-7 5 -15 -4 -8 -1 -15 6 -15 10 0 10 -3 0 -15 -10 -12 -9 -15 5 -15 14 0 15
-3 6 -14 -9 -11 -9 -15 1 -19 10 -4 10 -7 -1 -15 -9 -6 -10 -12 -3 -16 6 -4 9
-13 5 -21 -3 -9 1 -15 8 -15 10 0 10 -3 1 -12 -8 -8 -9 -15 -1 -25 7 -7 8 -13
3 -13 -5 0 -8 -31 -6 -70 2 -45 0 -70 -7 -70 -12 0 -13 2 -45 166 -91 452
-313 948 -576 1286 -122 156 -252 291 -358 371 -164 123 -244 149 -336 108
-183 -80 -408 -304 -698 -693 -61 -82 -114 -145 -119 -142 -43 26 254 443 508
717 40 43 73 82 73 87 0 22 -22 19 -51 -7 -56 -49 -203 -197 -237 -240 -18
-23 -45 -54 -58 -70 -57 -64 -166 -216 -243 -338 -68 -107 -189 -337 -221
-420 -5 -11 -17 -40 -29 -65 -11 -25 -23 -58 -27 -73 -5 -23 -11 -28 -28 -23
-19 5 -19 4 -4 -8 16 -12 16 -16 1 -69 -12 -45 -20 -57 -37 -58 -17 -1 -18 -2
-3 -6 14 -4 16 -12 11 -46 -4 -23 -10 -46 -14 -52 -4 -5 -10 -37 -14 -70 -11
-103 -15 -139 -21 -185 -14 -129 -17 -192 -17 -380 1 -243 17 -417 53 -565 49
-202 133 -405 224 -546 74 -113 210 -273 289 -341 137 -116 408 -277 526 -313
14 -4 34 -14 45 -21 18 -13 15 -14 -30 -10 -28 2 -58 7 -67 11 -13 5 -18 3
-18 -8 0 -9 -5 -19 -12 -23 -7 -5 -9 0 -6 14 4 13 0 23 -9 26 -10 4 -13 2 -10
-8 4 -11 -1 -13 -20 -10 -14 3 -34 9 -43 14 -10 5 -20 6 -24 3 -3 -3 -6 0 -6
7 0 7 -3 11 -6 7 -3 -3 -27 8 -54 24 -26 16 -52 29 -59 29 -6 0 -11 5 -11 11
0 5 -4 7 -10 4 -6 -3 -10 -1 -10 5 0 7 -7 10 -15 6 -9 -3 -15 0 -15 10 0 8 -5
12 -10 9 -6 -3 -10 1 -10 9 0 10 -6 13 -15 10 -8 -4 -15 -1 -15 6 0 6 -4 9
-10 5 -13 -8 -50 26 -43 39 3 6 3 8 -1 4 -20 -17 -195 130 -181 152 3 6 1 10
-6 10 -35 0 -197 209 -286 370 -82 149 -166 396 -197 580 -35 212 -49 717 -26
910 40 325 134 605 291 868 126 209 370 547 442 611 9 8 17 20 17 25 0 5 11
19 25 32 14 13 25 26 25 30 0 4 8 13 18 20 12 9 14 16 6 23 -7 8 -24 -2 -58
-34 -27 -25 -50 -45 -52 -45 -8 0 -134 -132 -134 -141 0 -5 -7 -9 -15 -9 -8 0
-15 -4 -15 -9 0 -5 -18 -27 -40 -50 -23 -23 -38 -46 -35 -51 7 -11 -18 -14
-28 -4 -4 4 2 19 12 33 10 14 19 31 20 36 0 6 8 18 16 28 8 9 15 20 15 23 0 3
6 11 13 18 6 7 23 28 37 46 39 53 82 102 116 135 44 42 95 85 101 85 8 0 29
25 36 43 4 10 11 16 16 12 6 -3 15 4 21 15 6 11 15 18 20 15 13 -8 20 9 10 25
-7 12 -10 12 -16 -3 -3 -9 -12 -17 -19 -17 -6 0 -20 -9 -29 -19 -14 -15 -28
-19 -62 -15 -35 3 -42 1 -38 -11 5 -11 2 -13 -11 -8 -15 5 -17 2 -13 -14 4
-16 2 -19 -13 -16 -22 6 -25 -7 -6 -26 10 -10 6 -11 -18 -5 -25 5 -28 4 -17
-7 17 -18 15 -30 -3 -22 -23 8 -68 -47 -53 -64 8 -11 7 -12 -6 -7 -17 6 -66
-39 -66 -61 0 -6 -9 -17 -20 -25 -11 -8 -20 -20 -20 -27 0 -7 -4 -13 -10 -13
-5 0 -10 -7 -10 -15 0 -8 -4 -15 -10 -15 -5 0 -12 -11 -16 -25 -3 -14 -10 -23
-14 -20 -4 3 -11 -2 -14 -11 -4 -10 -2 -13 7 -9 6 4 4 0 -7 -9 -10 -8 -15 -19
-11 -25 3 -6 -1 -11 -9 -11 -9 0 -16 -7 -16 -15 0 -8 -5 -15 -11 -15 -6 0 -9
-7 -5 -15 3 -8 2 -14 -2 -14 -19 3 -23 -2 -12 -16 10 -12 10 -15 -3 -15 -10 0
-14 -6 -11 -15 4 -8 1 -15 -6 -15 -7 0 -10 -7 -6 -15 3 -9 -1 -18 -9 -21 -8
-4 -13 -10 -10 -14 3 -5 1 -11 -5 -15 -6 -4 -8 -11 -5 -16 4 -5 1 -9 -6 -9 -8
0 -8 -4 1 -15 10 -12 9 -15 -4 -15 -10 0 -15 -4 -12 -9 4 -5 0 -12 -6 -14 -10
-4 -9 -8 2 -16 13 -9 13 -11 -2 -11 -21 0 -24 -16 -5 -23 6 -3 3 -6 -8 -6 -17
-1 -18 -3 -5 -11 13 -9 13 -12 -2 -24 -10 -7 -15 -16 -11 -19 3 -4 1 -7 -6 -7
-8 0 -11 -7 -7 -15 3 -8 1 -15 -4 -15 -6 0 -10 -7 -10 -15 0 -8 -5 -15 -11
-15 -6 0 -9 -7 -5 -15 3 -8 0 -15 -6 -15 -6 0 -8 -3 -5 -7 4 -3 3 -11 -2 -17
-5 -6 -14 -29 -21 -51 -7 -22 -16 -44 -20 -50 -4 -5 -15 -35 -24 -65 -10 -30
-21 -64 -26 -75 -10 -22 -54 -162 -76 -240 -18 -63 -68 -309 -90 -440 -11 -71
-17 -180 -19 -375 -3 -278 3 -371 40 -562 4 -23 3 -38 -3 -38 -10 0 -39 59
-34 73 1 4 -2 7 -7 7 -5 0 -8 -13 -7 -30 0 -16 3 -30 6 -30 4 0 6 -18 5 -40
-1 -22 3 -40 8 -40 5 0 7 -7 3 -15 -3 -8 0 -15 6 -15 7 0 6 -5 -2 -15 -6 -8
-9 -19 -5 -24 3 -6 0 -9 -7 -6 -17 7 -72 155 -92 245 -26 116 -46 234 -47 280
-1 41 -2 42 -9 15 -4 -16 -6 -100 -4 -185 2 -133 6 -167 28 -240 38 -123 38
-123 39 -142 1 -10 6 -18 11 -18 5 0 7 -3 3 -6 -3 -4 2 -23 13 -44 11 -21 16
-40 13 -44 -4 -3 -1 -6 6 -6 7 0 9 -5 6 -10 -3 -6 -1 -10 5 -10 6 0 8 -5 5
-10 -3 -5 -1 -10 5 -10 7 0 10 -7 6 -15 -3 -8 -1 -15 5 -15 6 0 9 -7 5 -15 -3
-8 -1 -15 5 -15 6 0 9 -7 5 -15 -3 -8 -2 -14 2 -14 19 3 23 -2 12 -16 -11 -13
-10 -14 5 -8 14 5 17 3 12 -10 -4 -10 -2 -17 4 -17 6 0 9 -9 6 -19 -3 -14 -1
-18 9 -14 17 6 18 -9 2 -26 -11 -10 -10 -11 3 -6 12 4 18 -1 23 -20 4 -14 3
-31 0 -37 -5 -8 -1 -9 11 -5 14 6 16 3 12 -13 -3 -11 -1 -20 4 -20 5 0 9 -7 9
-15 0 -8 5 -15 11 -15 5 0 7 -5 4 -10 -3 -6 3 -24 15 -40 12 -16 18 -34 15
-40 -4 -6 1 -7 11 -3 14 5 16 2 12 -15 -4 -12 -2 -22 3 -22 5 0 9 -7 9 -15 0
-8 5 -15 10 -15 6 0 10 -7 10 -15 0 -8 3 -15 8 -15 4 0 16 -20 27 -45 11 -25
23 -45 27 -45 5 0 8 -7 8 -15 0 -8 5 -15 11 -15 6 0 9 -7 5 -15 -3 -8 0 -15 7
-15 7 0 18 -13 25 -29 7 -16 24 -41 37 -55 14 -15 25 -31 25 -37 0 -5 4 -9 8
-9 4 0 16 -14 26 -30 9 -17 27 -41 40 -54 20 -22 30 -35 83 -104 10 -13 28
-34 40 -47 13 -13 23 -27 23 -30 0 -10 49 -55 60 -55 5 0 10 -4 10 -10 0 -20
3 -26 29 -48 48 -41 55 -47 61 -44 2 2 6 -2 8 -10 2 -8 0 -9 -5 -3 -4 6 -15
11 -23 13 -30 6 -70 25 -70 33 0 5 -5 9 -10 9 -6 0 -16 4 -23 10 -252 206
-415 421 -599 790 -111 224 -176 384 -240 590 -48 155 -52 173 -56 295 -5 146
5 232 53 485 59 307 96 520 102 588 5 55 13 78 48 132 109 168 195 370 390
915 129 363 149 405 204 444 40 29 41 11 6 -59 -14 -28 -24 -50 -22 -50 2 0
35 39 73 88 140 178 232 260 464 411 116 76 294 173 365 199 44 16 68 14 128
-8z m2494 -12 c51 -21 132 -89 163 -136 45 -69 36 -84 -15 -25 -42 48 -104 87
-154 98 -12 3 -30 7 -42 10 -36 8 -103 8 -141 0 -29 -5 -38 -4 -38 6 1 59 135
86 227 47z m-70 -94 c9 9 96 -42 141 -83 48 -44 49 -70 2 -43 -16 9 -27 19
-24 21 7 7 -92 50 -140 61 -28 6 -55 6 -77 0 -19 -6 -35 -10 -36 -10 -9 0 -1
40 9 46 22 14 83 21 101 11 10 -5 21 -6 24 -3z m3 -151 l24 -17 -24 -7 c-31
-9 -130 -11 -130 -3 0 3 5 14 10 25 14 25 85 26 120 2z m-1 -69 c62 -31 56
-52 -8 -29 -24 8 -65 15 -92 15 -50 0 -58 7 -37 28 20 20 81 14 137 -14z m-44
-85 c51 -14 135 -99 150 -150 5 -19 4 -21 -4 -9 -21 30 -10 -9 15 -54 14 -25
22 -46 17 -46 -4 0 -17 18 -27 40 -24 50 -93 115 -149 141 -47 21 -165 26
-199 8 -47 -25 -25 31 25 61 36 23 109 26 172 9z m-9 -145 c26 -16 52 -38 58
-49 6 -11 16 -23 21 -27 27 -20 -9 -4 -59 26 -32 19 -74 37 -95 41 -42 7 -97
-11 -120 -38 -20 -25 -33 -21 -29 10 2 18 15 36 38 51 48 32 120 27 186 -14z
m-1836 -14 c0 -5 -4 -10 -10 -10 -5 0 -10 5 -10 10 0 6 5 10 10 10 6 0 10 -4
10 -10z m1767 -92 c-2 -7 0 -21 5 -30 6 -12 5 -18 -3 -18 -7 0 -2 -12 12 -27
13 -15 16 -21 7 -14 -16 12 -22 9 -19 -11 0 -5 -4 -8 -10 -8 -5 0 -7 -5 -3
-12 4 -6 8 -24 9 -40 1 -21 -1 -25 -10 -18 -9 8 -16 3 -24 -18 -6 -15 -20 -33
-31 -40 -17 -10 -27 -7 -67 18 -26 17 -53 30 -60 30 -13 0 34 96 65 133 21 24
34 3 26 -40 -4 -18 -4 -33 -1 -33 3 0 23 31 44 70 21 38 44 70 51 70 8 0 12
-6 9 -12z m-163 -282 c66 -32 124 -91 142 -142 8 -22 14 -41 14 -43 0 -1 -26
21 -57 50 -71 64 -145 99 -224 106 -64 6 -75 20 -36 48 30 22 92 15 161 -19z
m-1979 -29 c77 -15 149 -36 143 -42 -2 -2 -32 3 -69 9 -76 15 -501 20 -546 7
-50 -14 -161 -23 -142 -12 26 17 124 40 196 46 37 3 69 8 71 10 10 10 275 -4
347 -18z m-1171 -8 c-3 -5 -10 -7 -15 -3 -5 3 -7 10 -3 15 3 5 10 7 15 3 5 -3
7 -10 3 -15z m1086 -63 c19 -2 53 -8 75 -11 42 -7 120 -27 195 -51 l45 -14
-45 6 c-25 3 -89 7 -142 10 l-98 4 0 -25 c0 -26 15 -34 23 -12 3 8 7 6 12 -6
7 -17 8 -17 21 0 13 17 13 17 14 1 0 -23 20 -24 20 -1 0 16 1 16 13 0 7 -10
36 -21 72 -27 93 -16 157 -34 153 -45 -2 -6 -7 -8 -13 -6 -5 2 -58 6 -117 8
-106 6 -107 6 -101 -16 5 -20 6 -20 19 -4 13 17 13 17 14 1 0 -10 5 -18 10
-18 6 0 10 8 10 18 1 13 4 11 15 -8 13 -22 14 -23 15 -5 1 18 2 17 15 -5 8
-14 14 -19 15 -10 0 10 3 11 11 3 6 -6 18 -9 25 -6 8 3 14 -1 14 -8 0 -11 3
-11 10 1 6 9 10 11 10 3 0 -7 7 -10 15 -7 8 4 15 1 15 -5 0 -6 5 -11 11 -11
23 0 117 -31 135 -45 17 -13 10 -14 -58 -8 -58 4 -78 3 -78 -6 0 -7 5 -9 10
-6 6 3 10 2 10 -3 0 -5 20 -15 45 -22 50 -14 135 -64 135 -79 0 -6 -25 -1 -57
10 -31 10 -79 19 -107 18 l-51 -1 45 -14 c25 -8 50 -21 56 -30 9 -12 13 -12
17 -2 3 8 6 6 6 -6 1 -12 6 -16 16 -12 8 3 15 1 15 -5 0 -6 5 -7 10 -4 6 3 10
-1 10 -10 0 -9 5 -13 10 -10 6 3 10 1 10 -5 0 -6 5 -8 12 -4 7 5 9 2 5 -9 -4
-12 -2 -14 10 -10 11 4 14 2 9 -5 -4 -7 -3 -12 2 -12 18 0 58 -132 46 -151 -3
-6 -19 11 -34 38 -33 58 -76 93 -168 136 -58 27 -78 32 -147 32 -69 0 -86 -4
-126 -27 -26 -15 -56 -43 -68 -63 -24 -41 -45 -48 -31 -10 7 19 6 27 -8 34
-15 9 -14 10 8 11 23 1 23 2 8 14 -21 15 -14 27 10 18 15 -5 15 -4 2 14 -8 10
-15 20 -16 22 -1 2 -9 -4 -18 -13 -20 -20 -46 -13 -46 13 0 11 10 34 23 53 43
64 43 65 12 45 -55 -35 -103 -102 -119 -168 -3 -16 -13 -28 -21 -28 -8 0 -15
-4 -15 -10 0 -5 7 -7 15 -4 8 4 15 1 15 -5 0 -6 -5 -11 -11 -11 -8 0 -8 -5 1
-15 9 -10 9 -15 1 -15 -6 0 -11 -5 -11 -11 0 -5 4 -8 9 -5 5 3 14 -17 21 -44
7 -27 16 -47 21 -44 5 3 9 -2 9 -10 0 -9 5 -16 10 -16 6 0 9 -3 8 -7 0 -5 15
-42 34 -83 l36 -75 -5 46 c-3 26 -1 55 5 65 9 17 11 16 17 -11 34 -152 144
-251 302 -270 140 -16 220 46 253 198 7 31 15 55 18 53 2 -3 6 -26 9 -53 3
-26 10 -51 16 -55 9 -6 8 -8 -2 -8 -11 0 -11 -3 0 -17 12 -14 12 -16 0 -8 -11
6 -13 4 -8 -8 4 -10 1 -17 -6 -17 -8 0 -8 -3 2 -9 11 -7 10 -10 -5 -13 -17 -3
-17 -4 -2 -10 14 -6 20 1 27 30 6 20 11 54 13 75 1 22 7 37 15 37 16 0 25 -35
20 -77 -3 -25 0 -33 12 -34 13 -1 12 -2 -2 -6 -18 -5 -18 -5 0 -19 16 -13 16
-13 1 -8 -23 8 -23 -5 -2 -21 19 -14 12 -67 -9 -64 -7 1 -19 1 -27 0 -12 -1
-12 -4 3 -12 25 -15 21 -32 -5 -23 -20 6 -21 5 -9 -10 14 -17 7 -21 -29 -16
-12 1 -13 -1 -2 -11 19 -20 14 -31 -9 -19 -19 11 -20 10 -9 -10 11 -20 10 -21
-9 -11 -25 14 -34 14 -26 1 3 -5 -3 -10 -14 -10 -15 0 -19 -4 -14 -17 7 -17 6
-17 -10 -1 -18 17 -47 15 -47 -4 0 -7 -4 -7 -12 0 -7 5 -21 7 -30 3 -31 -11
-118 0 -118 15 0 8 9 14 20 14 11 0 20 4 20 8 0 5 24 14 53 21 82 20 89 22 82
29 -11 11 -45 12 -45 1 0 -5 -4 -8 -8 -5 -12 7 -82 -15 -82 -26 0 -4 -7 -8
-16 -8 -24 0 -104 -52 -104 -67 0 -7 -7 -13 -15 -13 -13 0 -14 -4 -5 -21 11
-19 10 -20 -9 -9 -16 8 -21 8 -21 -3 0 -7 6 -19 13 -26 10 -10 9 -11 -5 -6
-10 4 -18 12 -18 18 0 6 -8 2 -19 -9 -14 -14 -16 -22 -7 -33 13 -17 16 -61 3
-61 -5 0 -6 -8 -3 -17 6 -16 6 -16 -12 0 -10 9 -23 17 -28 17 -16 0 -56 -72
-51 -91 5 -19 -15 -44 -26 -32 -4 3 -7 -1 -7 -9 0 -9 7 -21 15 -28 13 -11 14
-10 9 4 -3 9 -1 16 5 16 6 0 11 7 11 15 0 8 4 15 9 15 5 0 7 10 3 22 -4 16 -2
19 8 13 10 -6 12 -4 7 8 -4 11 -1 17 9 17 35 0 21 -59 -29 -114 -10 -11 -15
-27 -11 -36 3 -8 8 -33 11 -55 7 -50 20 -75 38 -75 19 0 19 -16 1 -23 -9 -4
-12 -14 -9 -26 4 -16 1 -21 -15 -21 -15 0 -21 9 -26 43 -10 62 -28 110 -50
130 -25 23 -28 18 -15 -28 8 -28 8 -44 -1 -60 -6 -11 -10 -25 -9 -31 7 -37 -2
-54 -29 -54 -27 0 -29 3 -41 68 -19 97 -26 102 -43 30 -14 -58 -14 -64 1 -77
15 -13 15 -13 -1 -8 -10 4 -18 2 -18 -3 0 -6 -16 -10 -35 -10 l-34 0 -3 73 -3
72 -19 -38 c-11 -20 -23 -37 -27 -37 -4 0 -5 -16 -2 -35 l6 -35 -42 0 -41 0 0
43 c0 23 4 57 9 74 9 29 8 31 -9 21 -22 -14 -61 -104 -53 -124 4 -12 -1 -15
-28 -12 -30 3 -34 6 -35 33 0 17 6 57 14 90 7 33 11 75 7 95 -16 93 -39 171
-57 189 -10 12 -21 38 -24 58 l-4 36 25 -29 c28 -32 85 -140 85 -161 0 -7 4
-13 10 -13 6 0 6 9 0 25 -5 14 -9 29 -8 33 1 7 -10 36 -35 95 -7 15 -16 27
-21 27 -4 0 -6 6 -3 14 4 9 -3 16 -19 20 -13 4 -24 14 -24 22 0 10 -6 14 -14
11 -10 -4 -13 -1 -9 9 3 9 -1 14 -12 14 -9 0 -13 5 -10 10 3 6 -1 10 -9 10 -9
0 -16 5 -16 11 0 5 -4 7 -10 4 -5 -3 -10 -1 -10 5 0 6 -5 8 -11 4 -7 -4 0 -17
20 -36 17 -16 31 -32 31 -35 0 -11 -55 9 -70 27 -10 12 -21 16 -30 10 -7 -4
-19 -6 -27 -3 -7 3 -13 0 -13 -7 0 -6 -4 -9 -9 -5 -5 3 -32 7 -60 10 -59 5
-125 30 -116 45 4 6 -1 7 -11 3 -14 -5 -16 -3 -11 11 4 9 3 15 -2 12 -5 -3
-14 1 -21 9 -7 8 -17 12 -23 8 -6 -4 -8 0 -4 10 3 10 2 17 -4 17 -6 0 -7 5 -3
12 4 7 3 8 -4 4 -14 -9 -31 23 -37 69 -3 30 0 41 18 56 12 10 17 18 12 19 -11
0 -11 85 0 157 8 52 19 50 17 -2 -1 -30 2 -35 21 -36 12 0 16 -3 10 -6 -7 -2
-13 -9 -13 -14 0 -19 29 4 35 29 8 34 17 18 34 -62 25 -112 123 -176 248 -161
154 18 278 129 298 268 4 26 12 47 18 47 6 0 8 -33 5 -92 l-6 -93 30 80 c16
44 31 89 32 100 2 11 10 19 19 19 9 -1 13 4 10 13 -3 7 5 22 17 33 21 18 22
26 17 97 -8 108 -29 171 -73 216 -35 36 -73 54 -41 19 17 -19 36 -61 47 -109
6 -24 4 -36 -7 -45 -16 -13 -13 -15 -55 50 -15 25 -23 30 -29 20 -13 -20 -11
-31 5 -25 21 8 26 -15 7 -38 -9 -12 -10 -15 -1 -7 27 23 32 9 15 -45 -7 -21
-10 -19 -59 31 -45 48 -58 56 -111 66 -70 15 -159 2 -231 -31 -59 -28 -131
-93 -155 -140 -25 -49 -33 -49 -26 -1 6 48 55 154 67 147 6 -4 10 1 10 9 0 17
38 42 58 38 7 -2 11 3 10 10 -2 7 7 13 19 14 12 1 29 9 39 18 12 13 19 14 24
6 5 -8 9 -5 13 9 4 17 1 19 -22 16 -49 -6 -116 -27 -150 -46 -40 -23 -52 -18
-25 12 22 25 134 84 152 81 6 -2 12 6 12 18 0 22 -1 22 -89 -1 -37 -9 -47 -7
-37 9 8 13 126 57 193 72 47 11 70 30 58 50 -2 4 -33 6 -67 4 l-63 -4 40 20
c22 10 60 22 85 26 25 3 69 12 99 19 30 8 58 12 62 9 4 -2 12 4 18 13 6 10 11
13 11 6 0 -7 12 -10 28 -9 18 2 28 10 30 24 3 19 -1 20 -75 16 -81 -4 -170
-12 -213 -20 -14 -3 -2 5 25 16 56 24 192 56 275 65 30 3 56 7 57 9 4 4 216
-2 253 -8z m2024 -24 c19 -11 48 -33 65 -48 26 -23 29 -30 18 -42 -10 -13 -9
-15 5 -9 13 4 15 2 11 -10 -4 -10 -2 -14 4 -10 6 4 9 -6 7 -28 -1 -23 1 -33 8
-29 7 4 8 2 4 -5 -5 -7 -28 7 -68 44 -67 60 -144 95 -208 95 -46 0 -48 7 -18
45 20 26 25 27 80 22 32 -3 73 -14 92 -25z m-1139 -32 c3 -5 1 -10 -4 -10 -6
0 -11 5 -11 10 0 6 2 10 4 10 3 0 8 -4 11 -10z m-1528 -36 c-3 -3 -12 -4 -19
-1 -8 3 -5 6 6 6 11 1 17 -2 13 -5z m1585 -70 c50 -92 160 -379 203 -527 49
-169 46 -241 -4 -102 -12 33 -28 74 -36 90 -7 17 -17 42 -20 57 -4 16 -11 26
-15 23 -5 -3 -6 5 -2 17 3 13 1 19 -5 15 -7 -5 -9 1 -5 15 3 14 1 19 -6 14 -8
-5 -10 -2 -6 8 3 9 1 16 -5 16 -6 0 -8 7 -4 17 5 13 3 15 -13 9 -15 -6 -17 -5
-6 5 17 18 15 32 -3 25 -18 -7 -20 5 -2 23 10 11 9 13 -6 8 -15 -6 -17 -3 -12
13 5 15 3 18 -9 14 -9 -3 -16 -2 -16 4 0 6 5 12 10 14 12 4 -17 99 -33 109 -5
4 -9 18 -9 33 0 14 -5 26 -10 26 -5 0 -6 5 -3 10 3 6 1 10 -5 10 -7 0 -10 7
-6 15 3 8 0 15 -7 15 -7 0 -13 11 -13 25 -1 14 -5 37 -8 51 -12 48 17 21 56
-52z m958 -14 c0 -5 15 -17 32 -26 29 -15 31 -18 14 -24 -14 -5 -16 -9 -7 -14
15 -10 10 -25 -54 -160 -91 -193 -447 -899 -573 -1136 -195 -369 -462 -840
-476 -840 -25 0 -38 18 -31 41 4 13 13 27 19 31 6 4 7 10 3 15 -8 7 -14 0 -36
-36 -7 -11 -16 -12 -42 -4 -19 5 -33 14 -32 19 1 5 57 108 123 229 142 256
318 582 400 740 31 60 89 172 128 247 65 124 348 680 436 856 33 65 39 72 66
72 17 0 30 -4 30 -10z m-1049 -27 c13 -16 12 -17 -3 -4 -10 7 -18 15 -18 17 0
8 8 3 21 -13z m1135 -145 c4 -6 2 -14 -4 -16 -7 -2 -10 -8 -6 -13 3 -5 -2 -21
-10 -36 -20 -38 -70 -149 -86 -195 -8 -21 -18 -38 -22 -38 -4 0 -8 -5 -8 -12
0 -16 -41 -101 -53 -109 -5 -3 -9 -10 -8 -15 0 -13 -52 -118 -61 -122 -4 -2
-8 -12 -8 -23 0 -10 -4 -19 -10 -19 -5 0 -10 -4 -10 -10 0 -16 -34 -90 -42
-90 -3 0 -9 -13 -13 -30 -4 -16 -11 -30 -16 -30 -6 0 -8 -3 -6 -7 2 -5 -4 -21
-14 -38 -11 -16 -22 -38 -25 -47 -4 -10 -10 -18 -14 -18 -4 0 -11 -12 -15 -27
-3 -15 -10 -30 -13 -33 -4 -3 -23 -36 -42 -75 -19 -38 -37 -72 -40 -75 -3 -3
-34 -63 -70 -135 -72 -145 -188 -361 -271 -505 -30 -52 -58 -102 -62 -110 -4
-8 -18 -33 -32 -55 -14 -22 -32 -53 -40 -70 -23 -44 -63 -90 -71 -82 -4 4 -2
17 4 29 12 24 17 33 170 306 51 89 92 164 92 166 0 1 37 72 83 157 46 85 132
248 191 363 59 115 121 233 137 263 16 29 29 60 29 68 0 8 4 15 8 15 4 0 77
141 162 313 85 171 159 315 165 319 5 4 6 8 1 8 -5 0 -3 6 3 13 6 8 8 17 4 20
-3 4 -1 7 5 7 6 0 14 -5 18 -12z m-1991 -156 c-3 -3 -11 0 -18 7 -9 10 -8 11
6 5 10 -3 15 -9 12 -12z m685 -358 c0 -8 -8 -14 -17 -13 -10 0 -13 3 -6 5 7 3
9 12 6 21 -4 11 -2 14 5 9 7 -4 12 -14 12 -22z m-1727 -265 c33 -93 146 -184
236 -191 17 -1 31 -5 31 -8 0 -3 15 -11 33 -18 18 -7 46 -25 61 -41 l29 -30
-39 20 c-22 10 -64 23 -94 29 -30 6 -65 12 -77 14 -42 8 -97 40 -134 77 -37
37 -79 129 -79 174 0 40 14 29 33 -26z m1787 -72 c0 -27 -102 -152 -114 -140
-3 3 -6 1 -6 -6 0 -8 -7 -11 -15 -7 -8 3 -15 2 -15 -2 0 -5 -12 -9 -27 -9 -52
-1 -113 -13 -150 -28 l-37 -16 24 26 c13 14 30 25 37 25 8 0 16 7 19 15 4 8 9
13 14 10 4 -2 34 3 66 12 65 18 157 71 176 103 11 17 28 27 28 17z m-435 -57
c-3 -5 -12 -10 -18 -10 -7 0 -6 4 3 10 19 12 23 12 15 0z m-31 -26 c3 -8 2
-12 -4 -9 -6 3 -10 10 -10 16 0 14 7 11 14 -7z m-94 -84 c0 -5 -2 -10 -4 -10
-3 0 -8 5 -11 10 -3 6 -1 10 4 10 6 0 11 -4 11 -10z m130 7 c0 -2 -12 -14 -27
-28 l-28 -24 24 28 c23 25 31 32 31 24z m-55 -99 c0 -18 -7 -39 -15 -45 -13
-11 -13 -14 0 -23 10 -6 11 -10 3 -10 -7 0 -10 -7 -7 -15 4 -8 1 -15 -5 -15
-6 0 -8 -6 -5 -14 3 -8 1 -16 -3 -19 -20 -13 -5 109 19 156 12 23 13 22 13
-15z m-115 -18 c8 -16 8 -18 -4 -14 -17 6 -30 34 -16 34 5 0 14 -9 20 -20z
m-669 -47 c7 -21 12 -42 11 -47 -2 -5 2 -12 8 -16 7 -4 8 -15 2 -31 -9 -22
-10 -21 -21 21 -7 25 -16 60 -21 78 -12 45 6 40 21 -5z m2029 7 c0 -5 -4 -10
-10 -10 -5 0 -10 5 -10 10 0 6 5 10 10 10 6 0 10 -4 10 -10z m-2250 -84 c0 -3
9 -53 20 -111 35 -178 53 -223 116 -293 30 -34 59 -62 63 -62 4 0 5 29 3 64
-3 52 -1 64 13 70 27 10 31 1 45 -81 11 -71 21 -92 42 -93 4 0 5 38 2 85 l-6
84 27 7 c14 4 30 3 34 -2 5 -5 13 -51 19 -102 6 -51 14 -97 17 -102 16 -26 25
10 25 100 0 103 5 115 48 103 21 -5 24 -15 38 -166 5 -53 9 -65 19 -57 9 7 14
44 17 106 2 78 6 98 21 109 17 12 56 10 58 -4 0 -3 3 -53 6 -111 2 -58 6 -106
7 -107 1 -2 11 6 23 16 16 16 20 33 22 106 2 114 7 123 52 86 l24 -20 -25 6
-25 6 24 -22 24 -21 -24 -1 c-13 0 -18 -3 -11 -6 18 -7 15 -23 -5 -24 -17 -1
-17 -2 0 -6 20 -5 23 -29 5 -36 -10 -4 -9 -8 2 -17 11 -9 12 -13 3 -17 -7 -2
-13 -11 -13 -19 0 -8 -8 -14 -17 -14 -14 0 -13 -3 6 -21 12 -11 29 -18 37 -15
17 7 18 -6 2 -22 -6 -6 -8 -15 -4 -19 4 -5 14 1 22 11 8 12 14 15 14 7 0 -10
10 -11 35 -7 62 12 102 34 182 102 60 52 79 63 81 50 2 -10 -3 -25 -10 -34 -8
-9 -14 -32 -12 -51 1 -24 -1 -30 -8 -20 -7 11 -11 11 -15 2 -2 -7 -9 -13 -15
-13 -5 0 -15 -6 -22 -12 -8 -7 -25 -23 -39 -35 -16 -13 -24 -29 -21 -37 3 -9
-3 -20 -15 -28 -13 -8 -21 -23 -20 -38 l1 -25 10 28 c5 15 14 24 20 21 6 -4
15 0 20 7 6 10 7 6 2 -11 -6 -24 -6 -24 13 -7 19 16 21 16 38 -3 10 -11 23
-17 29 -14 6 3 1 -3 -11 -14 -13 -11 -23 -23 -23 -26 0 -4 10 -2 23 4 20 10
19 9 -3 -9 -20 -16 -26 -17 -28 -6 -2 8 -7 15 -12 15 -4 0 -6 -10 -3 -22 4
-23 4 -23 -12 -3 -16 20 -17 20 -13 0 2 -11 -3 -20 -9 -21 -7 -1 -14 -2 -15
-4 -6 -4 -45 -11 -81 -15 -32 -3 -40 0 -47 18 -7 17 -9 18 -9 5 -1 -10 -5 -18
-11 -18 -5 0 -11 8 -11 18 -1 15 -2 15 -6 -1 -3 -11 -11 -16 -19 -13 -8 3 -14
0 -15 -7 0 -9 -2 -9 -6 1 -2 6 -10 9 -16 5 -24 -15 -47 -13 -48 5 -1 15 -2 15
-6 0 -7 -26 -63 -21 -64 6 -2 20 -2 20 -6 -1 -2 -13 -9 -23 -14 -23 -5 0 -10
10 -10 23 l-2 22 -4 -23 c-3 -15 -10 -22 -19 -18 -8 3 -25 1 -39 -4 -14 -5
-25 -6 -25 -2 0 4 -28 8 -63 9 -34 1 -70 3 -79 3 -12 1 -18 10 -19 28 -2 24
-2 24 -6 5 -5 -26 -23 -31 -23 -7 0 8 -4 12 -10 9 -5 -3 -10 -1 -10 4 0 6 5
11 12 11 6 0 8 3 5 6 -4 4 -13 1 -21 -6 -13 -10 -19 -9 -32 4 -8 9 -19 14 -22
12 -4 -2 -13 2 -20 10 -18 19 3 18 33 -2 14 -9 25 -13 25 -9 0 10 -40 45 -51
45 -5 0 -11 11 -15 25 -3 14 -12 25 -20 25 -8 0 -14 3 -14 8 0 4 -25 20 -55
36 -66 34 -140 113 -156 164 -6 21 -9 64 -7 97 2 50 6 60 23 64 15 3 17 0 8
-10 -12 -16 -7 -62 7 -67 5 -2 6 -10 3 -19 -5 -12 -3 -14 7 -8 8 5 11 4 6 -3
-8 -13 14 -63 25 -56 5 3 9 -3 9 -12 0 -28 88 -105 158 -136 35 -16 66 -27 68
-25 3 2 -9 10 -26 17 -16 7 -30 16 -30 21 0 4 -9 10 -19 14 -10 3 -42 28 -70
56 -30 29 -56 47 -63 43 -6 -4 -8 -3 -5 4 4 5 -2 32 -14 59 -27 62 -34 109
-14 93 8 -7 17 -22 21 -33 3 -12 22 -41 41 -64 33 -42 53 -54 53 -33 0 6 -7
10 -15 10 -8 0 -15 6 -15 14 0 7 -11 38 -24 67 -42 93 -85 369 -57 369 6 0 11
-2 11 -4z m1201 -137 c-13 -118 -25 -162 -57 -196 -19 -21 -23 -23 -15 -7 5
11 12 32 15 45 2 13 14 60 25 104 11 44 21 90 21 102 0 25 11 56 17 50 2 -3
-1 -47 -6 -98z m-952 -45 c-1 -38 -6 -57 -16 -61 -8 -3 -17 -3 -20 1 -11 10
-6 71 6 95 20 36 31 23 30 -35z m721 -10 c0 -24 -3 -44 -7 -44 -5 0 -8 22 -8
49 0 27 3 47 8 44 4 -2 7 -24 7 -49z m1140 -4 c-12 -22 -21 -26 -17 -7 2 10
17 26 25 27 1 0 -2 -9 -8 -20z m-29 -53 c-10 -9 -11 -8 -5 6 3 10 9 15 12 12
3 -3 0 -11 -7 -18z m189 -17 c0 -5 -4 -10 -10 -10 -5 0 -10 5 -10 10 0 6 5 10
10 10 6 0 10 -4 10 -10z m-2330 -10 c0 -5 -4 -10 -10 -10 -5 0 -10 5 -10 10 0
6 5 10 10 10 6 0 10 -4 10 -10z m2331 -23 c-1 -12 -15 -9 -19 4 -3 6 1 10 8 8
6 -3 11 -8 11 -12z m-1424 -57 c-3 -13 2 -28 16 -40 11 -11 16 -20 11 -20 -6
0 -15 5 -22 12 -6 6 -15 9 -19 5 -3 -4 2 -14 13 -23 18 -15 18 -15 -3 -5 -16
8 -21 18 -18 38 2 16 4 34 4 41 1 6 6 12 12 12 6 0 9 -9 6 -20z m133 -1 c0 -5
-4 -9 -10 -9 -5 0 -10 7 -10 16 0 8 5 12 10 9 6 -3 10 -10 10 -16z m-107 -13
c4 -10 1 -13 -8 -9 -8 3 -12 9 -9 14 7 12 11 11 17 -5z m1382 -48 c-2 -29 -6
-64 -9 -77 -3 -13 -6 -41 -8 -62 -1 -22 -6 -39 -11 -39 -5 0 -7 -7 -4 -15 4
-8 2 -17 -3 -20 -4 -3 -7 -13 -6 -23 2 -9 -6 -42 -16 -72 -11 -30 -21 -63 -23
-73 -4 -20 -63 -138 -74 -150 -4 -4 14 57 40 137 40 122 71 257 93 411 5 38 4
35 15 35 6 0 8 -23 6 -52z m-1051 17 c-4 -8 -11 -15 -16 -15 -6 0 -5 6 2 15 7
8 14 15 16 15 2 0 1 -7 -2 -15z m-14 -35 c0 -5 -4 -10 -10 -10 -5 0 -10 5 -10
10 0 6 5 10 10 10 6 0 10 -4 10 -10z m-340 -20 c13 -11 18 -20 12 -20 -7 0
-12 -7 -12 -15 0 -8 5 -15 10 -15 6 0 10 -5 10 -12 0 -6 -9 -3 -20 7 -14 13
-17 21 -9 31 7 9 5 14 -10 19 -12 3 -21 11 -21 16 0 15 15 11 40 -11z m263 -8
c-3 -12 -11 -22 -18 -22 -18 0 -24 -21 -13 -42 5 -12 5 -18 -2 -18 -5 0 -11 7
-11 15 -1 8 -2 19 -3 23 -1 9 47 73 51 68 1 -1 0 -12 -4 -24z m147 -12 c0 -5
-4 -10 -8 -10 -4 0 -8 -9 -9 -20 -4 -56 -169 -161 -261 -165 -52 -3 -45 5 30
33 76 28 127 62 185 121 48 50 63 60 63 41z m895 -22 c-6 -31 -23 -45 -20 -16
4 36 4 38 14 38 6 0 8 -10 6 -22z m-1319 -28 c8 0 14 -7 14 -17 0 -14 -2 -14
-20 2 -11 10 -20 23 -19 29 0 6 3 6 6 -1 2 -7 11 -13 19 -13z m-98 -20 c-12
-19 -28 -27 -28 -14 0 6 30 33 38 34 1 0 -3 -9 -10 -20z m154 -10 c-12 -11
-26 -20 -32 -20 -5 0 -10 -4 -10 -10 0 -5 -7 -10 -15 -10 -8 0 -15 5 -15 10 0
6 -5 10 -11 10 -6 0 -9 -7 -5 -15 3 -8 1 -15 -4 -15 -11 0 -12 6 -4 38 7 24
30 30 37 10 3 -10 7 -10 18 -2 8 7 23 14 34 17 11 2 22 5 24 6 3 0 -5 -8 -17
-19z m1244 -17 c-3 -16 -8 -42 -11 -59 -2 -17 -12 -50 -21 -75 -8 -24 -17 -53
-20 -63 -6 -30 -24 -44 -24 -19 0 12 5 25 10 28 6 4 8 10 5 15 -3 5 7 44 21
87 14 43 28 85 29 93 5 21 4 20 11 20 3 0 3 -12 0 -27z m-191 -233 c21 -140
40 -225 60 -273 27 -65 23 -72 -44 -73 -57 -1 -58 -1 -57 26 1 16 4 26 9 23
10 -6 7 106 -4 137 -7 20 -8 18 -4 -11 3 -20 1 -47 -4 -60 -8 -19 -10 -11 -10
41 -1 36 -8 93 -18 125 -20 76 -18 130 9 173 30 49 42 29 63 -108z m-870 100
c-3 -5 -12 -10 -18 -10 -7 0 -6 4 3 10 19 12 23 12 15 0z m395 -92 c0 -6 -11
-25 -24 -43 -13 -17 -26 -44 -28 -60 -3 -27 -7 -29 -48 -31 -37 -2 -50 2 -72
24 -16 14 -28 31 -28 38 0 11 9 16 103 50 26 9 50 21 53 25 8 13 44 11 44 -3z
m123 -57 c45 -15 99 -31 120 -35 39 -7 42 -26 4 -26 -27 0 -97 -55 -97 -76 0
-20 -12 -16 -88 26 -56 31 -62 38 -57 60 7 33 26 80 32 80 3 0 41 -13 86 -29z
m-325 -73 c12 -32 11 -34 -25 -65 -35 -30 -63 -42 -63 -27 0 11 64 124 70 124
3 0 11 -15 18 -32z m1022 -18 c0 -5 -5 -10 -11 -10 -5 0 -7 5 -4 10 3 6 8 10
11 10 2 0 4 -4 4 -10z m-541 -29 c10 -6 14 -24 13 -48 -14 -326 -13 -382 2
-442 20 -76 20 -89 2 -106 -11 -12 -16 -12 -33 0 -18 13 -24 11 -54 -10 -43
-33 -62 -33 -49 -1 5 13 6 26 4 29 -5 4 7 78 20 132 3 11 10 38 15 60 6 22 10
51 10 65 -1 25 -1 25 -9 -3 -5 -15 -10 -42 -13 -60 -5 -40 -45 -137 -65 -157
-12 -13 -13 -11 -9 20 3 19 17 73 31 120 19 60 28 116 32 190 7 145 12 169 39
196 26 26 41 29 64 15z m535 -28 c-3 -21 -8 -42 -11 -48 -2 -5 2 -1 11 9 26
32 29 -1 11 -106 -22 -128 -84 -305 -141 -399 -26 -43 -49 -77 -50 -76 -2 1
15 47 37 101 35 87 93 268 113 349 4 16 2 27 -4 27 -5 0 -9 -3 -8 -7 3 -11
-32 -115 -43 -129 -5 -6 -7 -13 -4 -16 3 -3 -5 -13 -16 -24 -21 -19 -22 -19
-15 3 4 12 9 32 11 45 3 13 18 66 34 118 17 52 35 116 42 143 14 59 42 67 33
10z m-913 -36 c16 -12 15 -42 -2 -32 -5 4 -6 -1 -3 -9 4 -10 -4 -16 -26 -21
-43 -9 -46 -2 -20 39 24 39 28 41 51 23z m-2016 -77 c3 -19 39 -100 45 -100 4
0 7 -7 8 -15 1 -8 3 -22 4 -30 1 -8 7 -15 14 -15 8 0 11 -6 7 -17 -5 -12 -2
-15 10 -10 20 8 22 -4 5 -22 -11 -11 -9 -12 10 -6 23 7 31 -9 10 -19 -7 -4 -3
-4 9 -2 15 3 20 0 16 -10 -3 -9 0 -12 8 -9 8 3 20 -5 28 -17 10 -16 10 -23 2
-26 -6 -2 -11 -8 -11 -14 0 -6 6 -5 15 2 13 11 18 10 30 -6 8 -10 12 -25 10
-32 -3 -7 0 -10 6 -7 13 8 40 -25 34 -42 -2 -7 2 -10 9 -7 7 3 21 -4 31 -16
10 -11 15 -20 11 -20 -4 0 10 -15 31 -32 20 -18 56 -52 80 -75 23 -24 45 -43
48 -43 3 0 16 -11 29 -25 13 -14 28 -25 35 -25 6 0 11 -5 11 -10 0 -6 8 -14
18 -17 9 -4 27 -17 39 -30 12 -13 27 -23 33 -23 5 0 10 -4 10 -9 0 -5 12 -13
28 -19 15 -5 41 -23 58 -40 18 -16 72 -52 120 -80 107 -59 205 -119 218 -132
34 -34 -132 25 -244 87 -85 48 -192 119 -313 210 -55 41 -101 72 -105 69 -11
-11 183 -192 291 -271 59 -44 103 -81 97 -83 -21 -7 -278 144 -288 170 -2 4
-12 8 -23 8 -10 0 -19 7 -19 15 0 8 -4 15 -8 15 -17 0 -211 198 -254 260 -121
172 -230 416 -242 540 l-6 65 22 -40 c12 -22 22 -42 23 -45z m2048 45 c-3 -9
-8 -14 -10 -11 -3 3 -2 9 2 15 9 16 15 13 8 -4z m479 -27 c-8 -8 -9 -4 -5 13
4 13 8 18 11 10 2 -7 -1 -18 -6 -23z m-766 -39 c3 -6 -8 -26 -26 -44 -30 -31
-32 -38 -27 -79 7 -45 6 -46 -21 -46 -16 0 -46 -9 -68 -19 -39 -19 -64 -14
-64 12 0 11 180 186 192 187 4 0 10 -5 14 -11z m187 -42 c73 3 101 -8 57 -22
-28 -9 -60 -53 -60 -85 0 -15 -2 -29 -5 -32 -3 -2 -42 5 -88 17 -65 17 -85 27
-94 46 -12 22 -9 27 25 56 29 25 43 30 62 25 14 -4 60 -6 103 -5z m679 -44
c25 -22 23 -64 -6 -121 -14 -26 -37 -93 -51 -148 -14 -56 -35 -120 -45 -142
-11 -23 -20 -45 -20 -50 0 -6 -7 -12 -15 -16 -11 -4 -15 1 -15 18 0 14 -6 27
-12 29 -10 4 -10 7 0 15 15 10 55 170 48 195 -2 9 0 17 4 17 4 0 13 14 19 30
9 28 -2 45 -12 18 -3 -7 -4 -3 -4 10 1 14 6 21 14 18 7 -3 13 -1 13 4 0 6 -4
10 -10 10 -5 0 -10 4 -10 10 0 5 7 7 15 4 8 -4 15 -1 15 5 0 6 -7 11 -15 11
-9 0 -12 6 -8 16 5 13 7 13 14 2 5 -7 9 -10 9 -6 0 3 3 13 6 21 4 10 -1 15
-13 14 -32 -3 -19 25 17 38 19 7 37 13 39 14 3 0 13 -6 23 -16z m-542 -28 c8
-9 17 -60 21 -115 8 -110 40 -237 70 -286 21 -34 24 -61 9 -84 -8 -13 -12 -12
-25 8 -16 21 -43 33 -30 12 3 -5 0 -10 -8 -10 -7 0 -26 -13 -42 -30 -16 -16
-39 -30 -52 -30 -29 0 -29 7 -1 37 19 20 22 37 26 136 2 61 2 110 -1 107 -5
-4 -16 -76 -21 -137 -2 -12 -10 -32 -18 -45 -15 -21 -15 -18 -1 42 19 84 14
222 -10 269 -12 24 -15 45 -11 73 10 58 64 89 94 53z m-513 -201 c3 -9 0 -20
-7 -24 -7 -4 -15 -31 -18 -59 -5 -57 -13 -65 -76 -77 -32 -5 -42 -3 -53 11
-11 16 -13 17 -13 3 0 -9 4 -28 10 -42 6 -16 6 -27 0 -31 -6 -3 -20 -28 -31
-56 -12 -27 -25 -49 -30 -49 -16 0 -9 68 14 141 20 68 26 75 74 105 28 19 61
47 73 64 23 33 47 39 57 14z m192 -40 c9 -3 2 -12 -19 -27 -36 -24 -46 -38
-55 -80 -5 -27 -6 -27 -34 -12 -49 25 -93 95 -59 95 6 0 8 3 5 7 -4 3 -2 12 4
20 9 10 29 12 78 7 36 -3 72 -8 80 -10z m71 -171 c27 -122 43 -167 81 -220 16
-23 29 -51 29 -63 0 -20 -3 -21 -41 -15 -38 7 -43 5 -68 -26 -21 -25 -32 -31
-47 -25 -12 6 -15 10 -6 13 16 6 15 23 -2 23 -10 0 -14 28 -18 118 -4 71 -12
136 -22 165 -20 55 -14 99 15 128 35 35 55 11 79 -98z m1109 26 c-16 -10 -23
-4 -14 10 3 6 11 8 17 5 6 -4 5 -9 -3 -15z m7 -31 c4 -7 3 -8 -4 -4 -16 10
-15 -7 1 -23 10 -11 9 -13 -5 -8 -10 4 -18 2 -18 -3 0 -6 5 -10 10 -10 6 0 10
-4 10 -10 0 -5 -8 -6 -17 -3 -16 6 -17 5 -3 -12 14 -17 13 -18 -2 -12 -10 3
-18 2 -18 -3 0 -6 5 -10 10 -10 6 0 10 -4 10 -10 0 -5 -8 -7 -17 -3 -15 5 -14
3 2 -10 16 -13 17 -18 7 -25 -8 -5 -14 -12 -14 -15 0 -19 -12 -47 -20 -47 -5
0 -6 -4 -3 -10 3 -5 1 -10 -5 -10 -7 0 -9 -7 -6 -16 5 -13 1 -15 -21 -10 -23
5 -25 4 -10 -4 21 -14 22 -30 1 -30 -14 0 -15 -2 -3 -16 12 -15 11 -16 -9 -10
-24 8 -29 -3 -10 -22 7 -7 8 -12 2 -12 -5 0 -15 5 -22 12 -9 9 -12 9 -12 1 0
-7 5 -15 10 -18 6 -3 10 -11 10 -18 0 -8 -3 -8 -12 1 -21 21 -31 13 -14 -13
18 -27 15 -30 -15 -15 -13 8 -19 7 -19 0 0 -6 7 -13 15 -16 8 -4 15 -10 15
-15 0 -6 -9 -5 -20 1 -16 9 -18 8 -14 -5 4 -8 10 -15 16 -15 5 0 6 -5 3 -10
-4 -6 -10 -8 -15 -5 -4 3 -19 -1 -32 -8 -21 -10 -23 -15 -11 -25 7 -7 13 -17
13 -22 0 -16 -17 -12 -24 5 -3 8 -11 15 -17 15 -7 0 -3 -10 8 -23 19 -20 20
-23 5 -37 -14 -13 -15 -12 -9 2 5 15 3 16 -18 6 -24 -11 -30 -25 -25 -58 1
-11 -3 -10 -19 4 -21 19 -21 19 -15 1 6 -14 4 -16 -6 -10 -10 6 -12 4 -6 -10
6 -16 4 -16 -10 -4 -15 12 -16 12 -10 -8 4 -12 2 -24 -3 -28 -7 -3 -8 0 -5 9
3 9 2 16 -3 16 -16 0 -54 -46 -46 -55 5 -4 3 -5 -4 -1 -7 4 -27 -1 -45 -10
l-33 -17 20 24 c11 13 33 37 48 54 117 125 246 317 341 504 72 142 94 169 112
139z m-569 -16 c14 -9 43 -74 43 -95 0 -8 -11 -26 -25 -41 -50 -54 -89 -157
-196 -525 -19 -62 -40 -116 -47 -119 -8 -2 -23 6 -35 19 -12 12 -15 17 -6 11
14 -11 17 -9 17 10 0 13 7 52 16 87 8 36 13 68 10 73 -3 4 2 11 10 14 9 3 16
13 16 21 0 8 -4 11 -10 8 -6 -3 -7 1 -4 9 3 9 10 16 16 16 5 0 6 10 3 21 -5
16 -4 19 5 14 9 -5 10 -2 5 14 -4 13 -2 21 5 21 7 0 9 8 5 19 -3 11 1 26 10
35 9 9 13 20 10 26 -3 6 1 17 9 26 18 17 22 39 6 29 -5 -3 -10 -2 -10 3 0 6 7
12 15 16 8 3 15 13 15 21 0 10 -5 13 -12 9 -7 -4 -5 2 5 13 20 23 23 40 3 24
-11 -9 -13 -6 -10 15 1 14 6 29 10 32 4 4 4 -1 1 -10 -8 -22 9 -24 17 -3 3 9
-1 18 -9 21 -21 8 -19 24 3 25 16 1 16 2 0 6 -21 5 -23 14 -5 33 10 12 9 12
-6 1 -25 -20 -34 -5 -11 20 10 11 19 28 19 36 0 16 59 52 85 52 8 1 20 -3 27
-7z m-216 -174 c21 -34 20 -99 -1 -106 -5 -2 -10 -12 -10 -23 0 -10 -4 -19
-10 -19 -5 0 -7 -7 -4 -15 4 -8 1 -15 -6 -15 -7 0 -10 -6 -7 -14 3 -8 0 -19
-7 -25 -8 -6 -16 -33 -19 -59 -6 -55 -82 -343 -97 -372 -14 -26 -58 -27 -56
-2 0 9 7 23 14 30 6 7 12 18 12 23 0 6 -6 7 -12 3 -7 -4 -5 2 5 13 22 25 22
37 0 29 -14 -6 -14 -3 3 15 13 16 15 23 7 26 -9 3 -5 15 12 37 14 18 22 36 19
39 -4 4 -1 13 6 22 15 18 0 20 -20 3 -12 -11 -12 -10 -1 4 7 9 10 22 6 28 -4
6 4 23 16 37 21 23 22 25 5 19 -19 -7 -19 -6 -2 13 13 15 14 20 4 24 -10 4 -8
10 6 21 17 14 18 16 3 16 -9 0 -17 7 -17 15 0 8 7 15 15 15 21 0 19 20 -2 20
-16 1 -16 2 1 15 19 14 19 15 2 28 -23 17 -31 81 -10 73 8 -3 14 -1 14 4 0 6
-6 10 -14 10 -7 0 -16 11 -18 24 -4 21 0 25 32 30 20 3 45 15 55 26 26 29 52
25 76 -12z m-2911 -4 c0 -8 -5 -12 -10 -9 -6 4 -8 11 -5 16 9 14 15 11 15 -7z
m274 -93 c-6 -6 -11 1 -18 29 l-7 25 15 -25 c8 -14 12 -27 10 -29z m928 -18
c19 -16 47 -37 63 -48 15 -11 36 -28 46 -37 23 -22 175 -128 183 -128 4 0 28
-15 55 -32 27 -18 66 -43 87 -55 32 -18 35 -22 17 -23 -31 0 -226 101 -298
155 -78 58 -205 174 -205 186 0 16 16 10 52 -18z m-912 -25 c0 -19 -16 -5 -17
14 -2 18 0 20 7 8 5 -8 10 -18 10 -22z m-274 -11 c15 5 38 -41 30 -61 -3 -10
-8 -1 -20 38 -3 9 -13 12 -25 9 -16 -4 -21 -1 -21 13 0 13 3 15 11 7 6 -6 18
-9 25 -6z m294 -28 c0 -5 -4 -9 -10 -9 -5 0 -10 7 -10 16 0 8 5 12 10 9 6 -3
10 -10 10 -16z m30 -48 c0 -5 -7 -12 -16 -15 -14 -5 -15 -4 -4 9 14 17 20 19
20 6z m-249 -67 c11 -27 10 -34 -1 -34 -5 0 -10 9 -10 19 0 10 -6 19 -12 18
-29 -1 -48 3 -48 11 0 4 14 7 32 6 21 -1 34 -7 39 -20z m219 6 c0 -5 -2 -10
-4 -10 -3 0 -8 5 -11 10 -3 6 -1 10 4 10 6 0 11 -4 11 -10z m3169 -16 c-6 -8
-15 -12 -18 -8 -3 4 0 9 7 11 6 3 9 10 6 15 -4 7 -2 8 5 4 9 -6 9 -11 0 -22z
m-3129 -14 c0 -5 -2 -10 -4 -10 -3 0 -8 5 -11 10 -3 6 -1 10 4 10 6 0 11 -4
11 -10z m3850 -41 c0 -6 -4 -7 -10 -4 -5 3 -10 11 -10 16 0 6 5 7 10 4 6 -3
10 -11 10 -16z m-4100 -35 c0 -8 -4 -12 -10 -9 -5 3 -10 10 -10 16 0 5 5 9 10
9 6 0 10 -7 10 -16z m4065 -14 c3 -5 1 -10 -4 -10 -6 0 -11 5 -11 10 0 6 2 10
4 10 3 0 8 -4 11 -10z m-3725 -30 c0 -5 -2 -10 -4 -10 -3 0 -8 5 -11 10 -3 6
-1 10 4 10 6 0 11 -4 11 -10z m3730 0 c0 -5 -5 -10 -11 -10 -5 0 -7 5 -4 10 3
6 8 10 11 10 2 0 4 -4 4 -10z m-1420 -4 c0 -2 -8 -10 -17 -17 -16 -13 -17 -12
-4 4 13 16 21 21 21 13z m950 -17 c0 -5 -4 -9 -10 -9 -5 0 -10 7 -10 16 0 8 5
12 10 9 6 -3 10 -10 10 -16z m-3246 -8 c3 -5 -3 -11 -15 -14 -16 -4 -18 -3 -8
9 13 16 16 17 23 5z m16 -25 c0 -3 -4 -8 -10 -11 -5 -3 -10 -1 -10 4 0 6 5 11
10 11 6 0 10 -2 10 -4z m553 -135 c-4 -6 -53 41 -53 50 0 4 13 -4 28 -19 15
-15 26 -29 25 -31z m-520 32 c-7 -3 -13 -12 -13 -21 0 -12 -3 -13 -12 -4 -9 9
-8 15 8 26 10 8 21 12 24 9 3 -3 -1 -8 -7 -10z m547 -64 c0 -5 7 -9 15 -9 8 0
15 -4 15 -10 0 -17 -15 -11 -41 16 -17 18 -19 23 -6 18 9 -3 17 -10 17 -15z
m-823 -71 c-3 -8 -6 -5 -6 6 -1 11 2 17 5 13 3 -3 4 -12 1 -19z"/>
<path d="M3740 6361 c0 -5 5 -13 10 -16 6 -3 10 -2 10 4 0 5 -4 13 -10 16 -5
3 -10 2 -10 -4z"/>
<path d="M3791 6354 c0 -11 3 -14 6 -6 3 7 2 16 -1 19 -3 4 -6 -2 -5 -13z"/>
<path d="M3707 6235 c-5 -11 0 -15 16 -15 12 0 18 4 12 8 -5 4 -13 11 -16 15
-4 4 -9 1 -12 -8z"/>
<path d="M3751 6234 c-1 -14 6 -24 19 -27 11 -3 20 0 20 6 0 8 4 7 12 -1 11
-11 58 -17 58 -8 0 2 3 13 6 23 5 17 5 17 -6 1 -6 -10 -17 -18 -25 -18 -9 0
-12 6 -9 18 5 14 4 15 -5 2 -9 -12 -12 -13 -20 -1 -6 9 -11 10 -15 2 -10 -16
-24 -13 -29 7 -4 13 -5 13 -6 -4z"/>
<path d="M6243 5725 c-10 -10 -9 -14 2 -19 17 -6 31 12 19 24 -5 5 -14 2 -21
-5z"/>
<path d="M3457 5093 c-4 -3 -7 -11 -7 -17 0 -6 5 -5 12 2 6 6 9 14 7 17 -3 3
-9 2 -12 -2z"/>
<path d="M3370 4920 c0 -5 5 -10 11 -10 5 0 7 5 4 10 -3 6 -8 10 -11 10 -2 0
-4 -4 -4 -10z"/>
<path d="M2850 4859 c0 -5 5 -7 10 -4 6 3 10 8 10 11 0 2 -4 4 -10 4 -5 0 -10
-5 -10 -11z"/>
<path d="M2806 4831 c-4 -5 -2 -12 3 -15 5 -4 12 -2 15 3 4 5 2 12 -3 15 -5 4
-12 2 -15 -3z"/>
<path d="M2680 4800 c0 -5 5 -10 10 -10 6 0 10 5 10 10 0 6 -4 10 -10 10 -5 0
-10 -4 -10 -10z"/>
<path d="M2656 4781 c-4 -7 -5 -15 -2 -18 9 -9 19 4 14 18 -4 11 -6 11 -12 0z"/>
<path d="M2830 4739 c0 -5 5 -7 10 -4 6 3 10 8 10 11 0 2 -4 4 -10 4 -5 0 -10
-5 -10 -11z"/>
<path d="M2800 4720 c0 -5 5 -10 11 -10 5 0 7 5 4 10 -3 6 -8 10 -11 10 -2 0
-4 -4 -4 -10z"/>
<path d="M2775 4690 c3 -5 8 -10 11 -10 2 0 4 5 4 10 0 6 -5 10 -11 10 -5 0
-7 -4 -4 -10z"/>
<path d="M2747 4673 c-12 -11 -8 -23 8 -23 8 0 15 7 15 15 0 16 -12 20 -23 8z"/>
<path d="M2090 3510 c0 -5 5 -10 11 -10 5 0 7 5 4 10 -3 6 -8 10 -11 10 -2 0
-4 -4 -4 -10z"/>
<path d="M2025 3270 c3 -5 8 -10 11 -10 2 0 4 5 4 10 0 6 -5 10 -11 10 -5 0
-7 -4 -4 -10z"/>
<path d="M2020 3240 c0 -5 5 -10 11 -10 5 0 7 5 4 10 -3 6 -8 10 -11 10 -2 0
-4 -4 -4 -10z"/>
<path d="M2010 3199 c0 -5 5 -7 10 -4 6 3 10 8 10 11 0 2 -4 4 -10 4 -5 0 -10
-5 -10 -11z"/>
<path d="M2000 3159 c0 -5 5 -7 10 -4 6 3 10 8 10 11 0 2 -4 4 -10 4 -5 0 -10
-5 -10 -11z"/>
<path d="M2000 3130 c0 -5 5 -10 11 -10 5 0 7 5 4 10 -3 6 -8 10 -11 10 -2 0
-4 -4 -4 -10z"/>
<path d="M1990 3100 c0 -5 5 -10 10 -10 6 0 10 5 10 10 0 6 -4 10 -10 10 -5 0
-10 -4 -10 -10z"/>
<path d="M1735 2360 c3 -5 8 -10 11 -10 2 0 4 5 4 10 0 6 -5 10 -11 10 -5 0
-7 -4 -4 -10z"/>
<path d="M1735 2320 c-3 -5 -1 -10 4 -10 6 0 11 5 11 10 0 6 -2 10 -4 10 -3 0
-8 -4 -11 -10z"/>
<path d="M1740 2239 c0 -5 5 -7 10 -4 6 3 10 8 10 11 0 2 -4 4 -10 4 -5 0 -10
-5 -10 -11z"/>
<path d="M1758 2123 c7 -3 16 -2 19 1 4 3 -2 6 -13 5 -11 0 -14 -3 -6 -6z"/>
<path d="M1765 2070 c-3 -5 -1 -10 4 -10 6 0 11 5 11 10 0 6 -2 10 -4 10 -3 0
-8 -4 -11 -10z"/>
<path d="M1773 2030 c1 -11 5 -20 9 -20 3 0 6 9 5 20 -1 11 -5 20 -9 20 -3 0
-6 -9 -5 -20z"/>
<path d="M2925 840 c3 -5 8 -10 11 -10 2 0 4 5 4 10 0 6 -5 10 -11 10 -5 0 -7
-4 -4 -10z"/>
<path d="M3145 4140 c-7 -12 2 -30 16 -30 5 0 9 9 9 20 0 21 -15 27 -25 10z"/>
<path d="M3192 4130 c0 -14 2 -19 5 -12 2 6 2 18 0 25 -3 6 -5 1 -5 -13z"/>
<path d="M3230 4128 c0 -12 3 -18 7 -14 11 10 12 36 2 36 -5 0 -9 -10 -9 -22z"/>
<path d="M3270 4136 c0 -9 5 -16 10 -16 6 0 10 4 10 9 0 6 -4 13 -10 16 -5 3
-10 -1 -10 -9z"/>
<path d="M3321 4134 c0 -11 3 -14 6 -6 3 7 2 16 -1 19 -3 4 -6 -2 -5 -13z"/>
<path d="M3356 4135 c-3 -9 0 -15 9 -15 8 0 15 7 15 15 0 8 -4 15 -9 15 -5 0
-11 -7 -15 -15z"/>
<path d="M3400 4130 c0 -11 5 -20 10 -20 6 0 10 9 10 20 0 11 -4 20 -10 20 -5
0 -10 -9 -10 -20z"/>
<path d="M3440 4131 c0 -11 5 -23 10 -26 6 -4 10 5 10 19 0 14 -4 26 -10 26
-5 0 -10 -9 -10 -19z"/>
<path d="M3500 4031 c0 -12 5 -21 10 -21 6 0 10 6 10 14 0 8 -4 18 -10 21 -5
3 -10 -3 -10 -14z"/>
<path d="M3537 4044 c-8 -8 3 -34 14 -34 11 0 12 27 0 34 -4 3 -11 3 -14 0z"/>
<path d="M2934 4027 c-4 -10 -2 -23 3 -28 14 -14 24 13 13 32 -7 11 -10 10
-16 -4z"/>
<path d="M2975 4027 c-4 -10 -5 -21 -1 -24 10 -10 18 4 13 24 -4 17 -4 17 -12
0z"/>
<path d="M3020 4020 c0 -11 5 -20 10 -20 6 0 10 9 10 20 0 11 -4 20 -10 20 -5
0 -10 -9 -10 -20z"/>
<path d="M3060 4025 c0 -8 5 -15 10 -15 6 0 10 7 10 15 0 8 -4 15 -10 15 -5 0
-10 -7 -10 -15z"/>
<path d="M3100 4024 c0 -8 5 -12 10 -9 6 3 10 10 10 16 0 5 -4 9 -10 9 -5 0
-10 -7 -10 -16z"/>
<path d="M3460 4030 c0 -5 5 -10 11 -10 5 0 7 5 4 10 -3 6 -8 10 -11 10 -2 0
-4 -4 -4 -10z"/>
<path d="M2900 4003 c0 -22 2 -25 10 -13 13 20 13 40 0 40 -5 0 -10 -12 -10
-27z"/>
<path d="M2785 3907 c-4 -10 -5 -21 -1 -24 10 -10 18 4 13 24 -4 17 -4 17 -12
0z"/>
<path d="M2820 3904 c0 -8 5 -12 10 -9 6 3 10 10 10 16 0 5 -4 9 -10 9 -5 0
-10 -7 -10 -16z"/>
<path d="M3045 3800 c3 -5 11 -10 16 -10 6 0 7 5 4 10 -3 6 -11 10 -16 10 -6
0 -7 -4 -4 -10z"/>
<path d="M3545 3790 c-3 -5 1 -10 9 -10 9 0 16 5 16 10 0 6 -4 10 -9 10 -6 0
-13 -4 -16 -10z"/>
<path d="M3516 3771 c-4 -7 -5 -15 -2 -18 9 -9 19 4 14 18 -4 11 -6 11 -12 0z"/>
<path d="M3316 3545 c4 -8 8 -15 10 -15 2 0 4 7 4 15 0 8 -4 15 -10 15 -5 0
-7 -7 -4 -15z"/>
<path d="M3211 3338 c-11 -17 -27 -65 -36 -107 -9 -42 -23 -86 -31 -98 -8 -13
-11 -23 -7 -24 5 0 -2 -4 -14 -9 -13 -5 -23 -15 -23 -22 0 -9 3 -9 10 2 9 13
10 13 10 0 0 -8 -5 -22 -10 -30 -9 -13 -11 -13 -19 0 -6 8 -14 11 -18 6 -4 -5
-2 -11 5 -13 6 -3 12 -11 12 -19 0 -8 3 -14 8 -14 11 1 79 149 102 222 11 35
29 78 40 96 24 39 24 42 5 42 -8 0 -24 -14 -34 -32z"/>
<path d="M3370 3361 c0 -5 9 -25 19 -43 10 -18 24 -58 31 -88 12 -54 67 -168
98 -203 12 -13 17 -15 24 -5 4 7 5 -4 3 -25 -4 -28 -1 -39 11 -44 8 -3 13 -12
10 -19 -3 -8 -1 -14 5 -14 6 0 9 -6 6 -12 -19 -46 -17 -48 10 -13 16 22 55 64
87 93 33 30 51 52 42 52 -9 0 -16 5 -16 10 0 6 -7 10 -15 10 -8 0 -15 -5 -15
-11 0 -6 -6 -9 -12 -6 -7 2 -12 13 -10 23 3 15 -4 12 -29 -13 -18 -18 -30 -35
-27 -38 3 -3 13 1 21 10 20 20 33 20 17 0 -7 -9 -10 -19 -6 -22 4 -4 11 -1 16
7 5 8 12 12 15 8 7 -7 -25 -48 -37 -48 -5 0 -8 7 -8 15 0 8 -3 15 -7 15 -5 0
-14 4 -22 9 -12 8 -10 16 12 45 15 19 23 37 18 40 -5 4 -12 0 -14 -6 -3 -7 -6
-4 -6 6 -1 18 -3 18 -28 -5 l-27 -24 18 28 c10 16 15 31 12 35 -3 3 -6 0 -6
-6 0 -7 -5 -12 -11 -12 -6 0 -8 9 -4 22 6 17 4 20 -10 14 -13 -4 -16 -2 -11 9
7 19 -1 19 -20 0 -9 -8 -21 -15 -27 -14 -9 0 -8 2 1 6 6 2 12 11 12 19 0 9 -5
12 -12 8 -8 -5 -9 -2 -5 9 3 10 2 17 -4 17 -6 0 -9 8 -7 18 2 9 0 22 -5 27 -4
6 -20 35 -35 65 -25 49 -52 77 -52 51z m238 -399 c2 -6 -6 -10 -17 -9 -22 1
-26 8 -14 21 9 9 26 3 31 -12z"/>
<path d="M2510 3290 c0 -5 7 -7 15 -4 8 4 15 8 15 10 0 2 -7 4 -15 4 -8 0 -15
-4 -15 -10z"/>
<path d="M3267 3232 c-9 -9 -30 -51 -48 -92 -17 -41 -42 -101 -56 -134 -47
-110 -39 -216 19 -259 58 -43 115 14 125 123 3 33 9 60 13 60 4 0 10 -25 14
-57 8 -69 32 -122 62 -135 68 -31 121 46 109 159 -5 52 -19 89 -72 191 -35 70
-72 135 -80 145 -21 22 -65 22 -86 -1z"/>
<path d="M2525 3200 c-3 -5 -2 -10 4 -10 5 0 13 5 16 10 3 6 2 10 -4 10 -5 0
-13 -4 -16 -10z"/>
<path d="M2460 3180 c-11 -7 -12 -12 -4 -20 8 -8 13 -6 17 9 3 12 4 21 4 21
-1 0 -9 -5 -17 -10z"/>
<path d="M4049 3160 c-1 -8 -1 -21 0 -27 1 -8 -5 -10 -15 -6 -12 4 -15 3 -10
-6 12 -19 -28 -53 -44 -38 -10 9 -12 8 -7 -5 4 -10 2 -18 -3 -18 -6 0 -10 -4
-10 -10 0 -17 17 -11 50 16 40 34 66 82 51 97 -8 8 -11 7 -12 -3z"/>
<path d="M2566 3135 c4 -8 8 -15 10 -15 2 0 4 7 4 15 0 8 -4 15 -10 15 -5 0
-7 -7 -4 -15z"/>
<path d="M4128 3143 c7 -3 16 -2 19 1 4 3 -2 6 -13 5 -11 0 -14 -3 -6 -6z"/>
<path d="M2475 3110 c-3 -5 -1 -10 4 -10 6 0 11 5 11 10 0 6 -2 10 -4 10 -3 0
-8 -4 -11 -10z"/>
<path d="M2585 3101 c-3 -5 -2 -12 3 -15 5 -3 9 1 9 9 0 17 -3 19 -12 6z"/>
<path d="M2615 3060 c3 -5 8 -10 11 -10 2 0 4 5 4 10 0 6 -5 10 -11 10 -5 0
-7 -4 -4 -10z"/>
<path d="M2980 3066 c0 -2 7 -9 15 -16 12 -10 15 -10 15 4 0 9 -7 16 -15 16
-8 0 -15 -2 -15 -4z"/>
<path d="M2721 3031 c-10 -6 -10 -10 -1 -16 13 -8 24 -1 19 14 -3 6 -10 7 -18
2z"/>
<path d="M2925 3031 c-5 -9 -1 -17 11 -24 23 -13 83 -73 107 -107 l17 -25 -14
30 c-23 49 -75 115 -90 115 -8 0 -16 5 -18 12 -3 9 -6 9 -13 -1z"/>
<path d="M3040 3017 c0 -8 9 -22 20 -32 11 -10 17 -21 15 -26 -3 -4 -1 -10 5
-14 16 -10 12 24 -7 56 -18 31 -33 38 -33 16z"/>
<path d="M2750 3009 c0 -12 39 -17 43 -5 3 6 -6 11 -19 11 -13 0 -24 -3 -24
-6z"/>
<path d="M3580 2822 c0 -12 19 -26 26 -19 2 2 -2 10 -11 17 -9 8 -15 8 -15 2z"/>
<path d="M3570 2792 c0 -12 19 -26 26 -19 2 2 -2 10 -11 17 -9 8 -15 8 -15 2z"/>
<path d="M5557 4034 c3 -7 9 -14 14 -14 14 0 10 17 -5 23 -10 4 -13 1 -9 -9z"/>
<path d="M5345 3990 c3 -5 11 -10 16 -10 6 0 7 5 4 10 -3 6 -11 10 -16 10 -6
0 -7 -4 -4 -10z"/>
<path d="M5300 3900 c0 -5 5 -10 11 -10 5 0 7 5 4 10 -3 6 -8 10 -11 10 -2 0
-4 -4 -4 -10z"/>
<path d="M5270 3830 c0 -5 5 -10 11 -10 5 0 7 5 4 10 -3 6 -8 10 -11 10 -2 0
-4 -4 -4 -10z"/>
<path d="M5240 3770 c0 -5 5 -10 11 -10 5 0 7 5 4 10 -3 6 -8 10 -11 10 -2 0
-4 -4 -4 -10z"/>
<path d="M5210 3710 c0 -5 5 -10 10 -10 6 0 10 5 10 10 0 6 -4 10 -10 10 -5 0
-10 -4 -10 -10z"/>
<path d="M5180 3650 c0 -5 5 -10 10 -10 6 0 10 5 10 10 0 6 -4 10 -10 10 -5 0
-10 -4 -10 -10z"/>
<path d="M5162 3605 c-17 -37 -14 -45 4 -12 9 16 14 31 11 33 -2 2 -9 -7 -15
-21z"/>
<path d="M5130 3545 c0 -8 2 -15 4 -15 2 0 6 7 10 15 3 8 1 15 -4 15 -6 0 -10
-7 -10 -15z"/>
<path d="M5110 3509 c0 -5 5 -7 10 -4 6 3 10 8 10 11 0 2 -4 4 -10 4 -5 0 -10
-5 -10 -11z"/>
<path d="M5091 3476 c-7 -8 -8 -17 -3 -20 6 -3 13 1 16 10 9 23 2 28 -13 10z"/>
<path d="M5070 3429 c0 -5 5 -7 10 -4 6 3 10 8 10 11 0 2 -4 4 -10 4 -5 0 -10
-5 -10 -11z"/>
<path d="M5050 3400 c0 -5 5 -10 10 -10 6 0 10 5 10 10 0 6 -4 10 -10 10 -5 0
-10 -4 -10 -10z"/>
<path d="M5040 3370 c0 -5 5 -10 11 -10 5 0 7 5 4 10 -3 6 -8 10 -11 10 -2 0
-4 -4 -4 -10z"/>
<path d="M5025 3340 c-3 -5 -1 -10 4 -10 6 0 11 5 11 10 0 6 -2 10 -4 10 -3 0
-8 -4 -11 -10z"/>
<path d="M5010 3310 c0 -5 5 -10 11 -10 5 0 7 5 4 10 -3 6 -8 10 -11 10 -2 0
-4 -4 -4 -10z"/>
<path d="M4990 3280 c0 -5 5 -10 10 -10 6 0 10 5 10 10 0 6 -4 10 -10 10 -5 0
-10 -4 -10 -10z"/>
<path d="M4980 3250 c0 -5 5 -10 11 -10 5 0 7 5 4 10 -3 6 -8 10 -11 10 -2 0
-4 -4 -4 -10z"/>
<path d="M4960 3220 c0 -5 5 -10 11 -10 5 0 7 5 4 10 -3 6 -8 10 -11 10 -2 0
-4 -4 -4 -10z"/>
<path d="M4945 3191 c-3 -5 -1 -12 5 -16 5 -3 10 1 10 9 0 18 -6 21 -15 7z"/>
<path d="M4925 3150 c3 -5 8 -10 11 -10 2 0 4 5 4 10 0 6 -5 10 -11 10 -5 0
-7 -4 -4 -10z"/>
<path d="M4910 3120 c0 -5 5 -10 11 -10 5 0 7 5 4 10 -3 6 -8 10 -11 10 -2 0
-4 -4 -4 -10z"/>
<path d="M4890 3090 c0 -5 5 -10 10 -10 6 0 10 5 10 10 0 6 -4 10 -10 10 -5 0
-10 -4 -10 -10z"/>
<path d="M4860 3030 c0 -5 5 -10 11 -10 5 0 7 5 4 10 -3 6 -8 10 -11 10 -2 0
-4 -4 -4 -10z"/>
<path d="M4836 2984 c-9 -22 3 -32 14 -14 12 19 12 30 1 30 -5 0 -12 -7 -15
-16z"/>
<path d="M4796 2904 c-9 -24 -7 -27 9 -10 17 17 19 26 6 26 -5 0 -12 -7 -15
-16z"/>
<path d="M4770 2860 c0 -5 5 -10 10 -10 6 0 10 5 10 10 0 6 -4 10 -10 10 -5 0
-10 -4 -10 -10z"/>
<path d="M4763 2833 c-15 -5 -17 -23 -4 -23 5 0 11 7 15 15 3 8 4 15 3 14 -1
0 -8 -3 -14 -6z"/>
<path d="M4725 2760 c3 -5 8 -10 11 -10 2 0 4 5 4 10 0 6 -5 10 -11 10 -5 0
-7 -4 -4 -10z"/>
<path d="M4710 2740 c0 -5 5 -10 11 -10 5 0 7 5 4 10 -3 6 -8 10 -11 10 -2 0
-4 -4 -4 -10z"/>
<path d="M4695 2710 c-3 -5 -1 -10 4 -10 6 0 11 5 11 10 0 6 -2 10 -4 10 -3 0
-8 -4 -11 -10z"/>
<path d="M4635 2590 c-3 -5 -1 -10 4 -10 6 0 11 5 11 10 0 6 -2 10 -4 10 -3 0
-8 -4 -11 -10z"/>
<path d="M4616 2555 c-3 -8 -1 -15 4 -15 6 0 10 7 10 15 0 8 -2 15 -4 15 -2 0
-6 -7 -10 -15z"/>
<path d="M4595 2520 c-3 -5 -1 -10 4 -10 6 0 11 5 11 10 0 6 -2 10 -4 10 -3 0
-8 -4 -11 -10z"/>
<path d="M4526 2394 c-4 -9 -4 -19 -1 -22 2 -3 7 3 11 12 4 9 4 19 1 22 -2 3
-7 -3 -11 -12z"/>
<path d="M4507 2353 c-4 -3 -7 -11 -7 -17 0 -6 5 -5 12 2 6 6 9 14 7 17 -3 3
-9 2 -12 -2z"/>
<path d="M4480 2310 c0 -5 5 -10 10 -10 6 0 10 5 10 10 0 6 -4 10 -10 10 -5 0
-10 -4 -10 -10z"/>
<path d="M4465 2280 c-3 -5 -1 -10 4 -10 6 0 11 5 11 10 0 6 -2 10 -4 10 -3 0
-8 -4 -11 -10z"/>
<path d="M4450 2250 c0 -5 5 -10 11 -10 5 0 7 5 4 10 -3 6 -8 10 -11 10 -2 0
-4 -4 -4 -10z"/>
<path d="M4430 2220 c0 -5 5 -10 10 -10 6 0 10 5 10 10 0 6 -4 10 -10 10 -5 0
-10 -4 -10 -10z"/>
<path d="M4400 2159 c0 -5 5 -7 10 -4 6 3 10 8 10 11 0 2 -4 4 -10 4 -5 0 -10
-5 -10 -11z"/>
<path d="M4375 2131 c-6 -11 9 -23 19 -14 9 9 7 23 -3 23 -6 0 -12 -4 -16 -9z"/>
<path d="M4352 2080 c-7 -11 -9 -20 -4 -20 4 0 13 9 20 20 7 11 9 20 4 20 -4
0 -13 -9 -20 -20z"/>
<path d="M4330 2040 c0 -5 5 -10 11 -10 5 0 7 5 4 10 -3 6 -8 10 -11 10 -2 0
-4 -4 -4 -10z"/>
<path d="M4300 1984 c0 -8 5 -12 10 -9 6 4 8 11 5 16 -9 14 -15 11 -15 -7z"/>
<path d="M4280 1950 c0 -5 5 -10 10 -10 6 0 10 5 10 10 0 6 -4 10 -10 10 -5 0
-10 -4 -10 -10z"/>
<path d="M2806 2143 c-10 -10 -7 -23 4 -23 6 0 19 -8 30 -17 10 -10 34 -26 52
-36 l33 -19 -36 34 c-60 54 -77 67 -83 61z"/>
<path d="M3655 2030 c-3 -5 -1 -10 4 -10 6 0 11 5 11 10 0 6 -2 10 -4 10 -3 0
-8 -4 -11 -10z"/>
<path d="M3590 1940 c-8 -5 -12 -12 -9 -15 4 -3 12 1 19 10 14 17 11 19 -10 5z"/>
<path d="M3476 1881 c-4 -7 -5 -15 -2 -18 9 -9 19 4 14 18 -4 11 -6 11 -12 0z"/>
<path d="M3505 1870 c3 -5 8 -10 11 -10 2 0 4 5 4 10 0 6 -5 10 -11 10 -5 0
-7 -4 -4 -10z"/>
<path d="M4383 1405 c0 -27 2 -38 4 -22 2 15 2 37 0 50 -2 12 -4 0 -4 -28z"/>
<path d="M4963 1510 c-6 -17 -8 -30 -3 -30 8 0 24 50 18 56 -2 2 -9 -10 -15
-26z"/>
<path d="M3720 1330 c-9 -6 -10 -10 -3 -10 6 0 15 5 18 10 8 12 4 12 -15 0z"/>
<path d="M3848 1353 c6 -2 18 -2 25 0 6 3 1 5 -13 5 -14 0 -19 -2 -12 -5z"/>
<path d="M4090 1181 c0 -6 4 -13 10 -16 6 -3 7 1 4 9 -7 18 -14 21 -14 7z"/>
<path d="M4102 1130 c0 -14 2 -19 5 -12 2 6 2 18 0 25 -3 6 -5 1 -5 -13z"/>
<path d="M3841 774 c0 -11 3 -14 6 -6 3 7 2 16 -1 19 -3 4 -6 -2 -5 -13z"/>
<path d="M3834 675 c-3 -8 -4 -20 -2 -27 3 -7 7 -1 10 15 6 29 1 36 -8 12z"/>
<path d="M4920 770 c0 -5 5 -10 11 -10 5 0 7 5 4 10 -3 6 -8 10 -11 10 -2 0
-4 -4 -4 -10z"/>
<path d="M4080 620 c0 -5 5 -10 10 -10 6 0 10 5 10 10 0 6 -4 10 -10 10 -5 0
-10 -4 -10 -10z"/>
<path d="M4065 380 c-3 -5 -1 -10 4 -10 6 0 11 5 11 10 0 6 -2 10 -4 10 -3 0
-8 -4 -11 -10z"/>
<path d="M3490 673 c-8 -16 -22 -40 -32 -55 -20 -29 -22 -38 -9 -38 5 0 11 8
14 18 4 9 18 36 31 60 14 23 22 42 18 42 -5 0 -15 -12 -22 -27z"/>
<path d="M1830 560 c0 -5 7 -7 15 -4 8 4 15 8 15 10 0 2 -7 4 -15 4 -8 0 -15
-4 -15 -10z"/>
<path d="M3425 560 c-3 -5 -1 -10 4 -10 6 0 11 5 11 10 0 6 -2 10 -4 10 -3 0
-8 -4 -11 -10z"/>
<path d="M3405 520 c-3 -5 -1 -10 4 -10 6 0 11 5 11 10 0 6 -2 10 -4 10 -3 0
-8 -4 -11 -10z"/>
<path d="M5340 519 c0 -5 5 -7 10 -4 6 3 10 8 10 11 0 2 -4 4 -10 4 -5 0 -10
-5 -10 -11z"/>
<path d="M810 368 c0 -84 5 -201 12 -260 l11 -108 42 0 c33 0 42 4 42 18 0 9
-5 20 -10 24 -7 4 -7 11 1 20 8 10 8 18 2 24 -6 6 -12 24 -14 40 -2 16 -13 79
-24 139 -26 141 -37 216 -34 238 1 9 -5 17 -13 17 -13 0 -15 -24 -15 -152z"/>
<path d="M3380 469 c0 -5 5 -7 10 -4 6 3 10 8 10 11 0 2 -4 4 -10 4 -5 0 -10
-5 -10 -11z"/>
<path d="M3853 405 c0 -38 2 -53 4 -32 2 20 2 52 0 70 -2 17 -4 1 -4 -38z"/>
<path d="M1920 441 c0 -6 4 -13 10 -16 6 -3 7 1 4 9 -7 18 -14 21 -14 7z"/>
<path d="M3360 439 c0 -5 5 -7 10 -4 6 3 10 8 10 11 0 2 -4 4 -10 4 -5 0 -10
-5 -10 -11z"/>
<path d="M1940 389 c0 -5 5 -7 10 -4 6 3 10 8 10 11 0 2 -4 4 -10 4 -5 0 -10
-5 -10 -11z"/>
<path d="M1720 371 c0 -5 5 -13 10 -16 6 -3 10 -2 10 4 0 5 -4 13 -10 16 -5 3
-10 2 -10 -4z"/>
<path d="M3320 369 c0 -5 5 -7 10 -4 6 3 10 8 10 11 0 2 -4 4 -10 4 -5 0 -10
-5 -10 -11z"/>
<path d="M1960 359 c0 -5 5 -7 10 -4 6 3 10 8 10 11 0 2 -4 4 -10 4 -5 0 -10
-5 -10 -11z"/>
<path d="M1021 308 c0 -24 12 -101 27 -173 l27 -130 50 -2 c28 -1 45 0 39 3
-7 3 -10 13 -7 23 3 10 0 22 -6 25 -5 4 -8 13 -4 21 3 8 0 15 -7 15 -7 0 -9 8
-5 20 4 12 2 20 -5 20 -7 0 -10 7 -7 15 4 8 2 17 -4 21 -6 3 -8 12 -5 20 3 8
1 14 -5 14 -6 0 -9 7 -6 15 4 8 2 17 -4 20 -5 4 -9 12 -8 18 3 15 -15 56 -34
80 -24 29 -37 20 -36 -25z"/>
<path d="M1870 332 c0 -15 64 -170 105 -255 34 -67 42 -77 65 -77 30 0 36 22
14 55 -8 11 -14 14 -14 7 0 -6 -5 -12 -11 -12 -6 0 -9 9 -6 20 3 14 0 20 -10
20 -13 0 -13 2 -2 17 12 15 12 16 -3 11 -22 -9 -30 2 -15 20 10 13 8 14 -11 8
-13 -5 -22 -3 -22 3 0 6 5 11 10 11 6 0 10 5 10 11 0 6 -7 8 -16 5 -12 -5 -15
-2 -10 11 4 9 3 19 -1 22 -4 3 -21 32 -38 64 -28 56 -45 78 -45 59z"/>
<path d="M1167 304 c-6 -6 10 -76 49 -206 25 -85 32 -98 51 -98 23 0 22 5 -47
175 -18 45 -23 60 -21 69 1 4 -3 14 -10 22 -6 7 -8 18 -5 23 7 10 -8 24 -17
15z"/>
<path d="M4933 235 c-7 -8 -13 -17 -13 -20 0 -14 -89 -128 -148 -191 -13 -13
-19 -24 -14 -24 10 0 112 108 112 119 0 4 11 18 25 31 14 13 25 29 25 37 0 7
3 13 8 13 4 0 12 11 19 25 12 27 5 32 -14 10z"/>
<path d="M2500 204 c0 -10 39 -42 44 -36 3 3 6 0 6 -7 0 -7 5 -9 10 -6 17 11
11 20 -25 37 -19 8 -35 14 -35 12z"/>
<path d="M3802 128 c-13 -24 -34 -62 -48 -85 -19 -32 -22 -43 -11 -43 7 0 14
6 14 13 0 8 17 41 37 75 21 33 36 66 34 72 -2 6 -14 -8 -26 -32z"/>
<path d="M2570 154 c0 -11 28 -33 34 -27 10 10 7 25 -4 18 -5 -3 -10 -1 -10 4
0 6 -4 11 -10 11 -5 0 -10 -3 -10 -6z"/>
<path d="M2618 133 c-4 -15 -1 -24 10 -28 17 -6 40 11 28 22 -4 4 -11 1 -16
-6 -6 -11 -9 -8 -12 10 -3 24 -4 24 -10 2z"/>
<path d="M757 129 c7 -7 15 -10 18 -7 3 3 -2 9 -12 12 -14 6 -15 5 -6 -5z"/>
<path d="M759 108 c-1 -4 -1 -80 0 -95 1 -7 10 -13 22 -13 16 0 20 5 18 28 -2
15 -7 32 -11 38 -5 7 -7 17 -6 24 3 11 -20 28 -23 18z"/>
<path d="M5131 43 c-10 -11 -10 -17 -2 -24 6 -5 9 -6 6 -3 -3 4 0 13 7 21 15
19 6 24 -11 6z"/>
<path d="M1590 32 c0 -10 22 -32 32 -32 12 0 -2 28 -18 34 -8 3 -14 2 -14 -2z"/>
<path d="M1705 20 c3 -5 8 -10 11 -10 2 0 4 5 4 10 0 6 -5 10 -11 10 -5 0 -7
-4 -4 -10z"/>
<path d="M2171 14 c0 -11 3 -14 6 -6 3 7 2 16 -1 19 -3 4 -6 -2 -5 -13z"/>
</g>
</svg>
