<?xml version="1.0" standalone="no"?>
<!DOCTYPE svg PUBLIC "-//W3C//DTD SVG 20010904//EN"
 "http://www.w3.org/TR/2001/REC-SVG-20010904/DTD/svg10.dtd">
<svg version="1.0" xmlns="http://www.w3.org/2000/svg"
 width="697.000000pt" height="697.000000pt" viewBox="0 0 697.000000 697.000000"
 preserveAspectRatio="xMidYMid meet">
<metadata>
Created by potrace 1.14, written by Peter Selinger 2001-2017
</metadata>
<g transform="translate(0.000000,697.000000) scale(0.100000,-0.100000)"
fill="#000000" stroke="none">
<path d="M0 3485 l0 -3485 3485 0 3485 0 0 3485 0 3485 -3485 0 -3485 0 0
-3485z m4139 3260 c80 -8 197 -24 260 -36 145 -26 436 -93 476 -110 17 -7 32
-13 35 -13 3 -1 10 -4 15 -7 6 -4 62 -23 125 -44 63 -21 165 -58 225 -83 61
-25 132 -53 158 -64 27 -10 54 -23 60 -28 7 -6 58 -33 115 -60 56 -27 102 -53
102 -57 -1 -35 -21 -31 -166 35 -144 66 -183 84 -194 86 -3 1 -14 7 -25 13
-30 16 -433 150 -478 159 -10 2 -26 5 -35 8 -9 3 -28 7 -42 10 -78 13 -101 19
-105 27 -3 4 -12 6 -20 3 -7 -3 -25 2 -39 11 -15 10 -37 15 -51 13 -14 -3 -22
-1 -19 4 4 6 -13 8 -40 5 -29 -2 -46 0 -47 7 0 6 -3 6 -6 -1 -2 -7 -9 -13 -14
-13 -4 0 -6 7 -2 16 5 13 2 15 -16 9 -13 -4 -28 -2 -36 5 -12 10 -15 9 -15 -4
0 -21 -10 -20 -25 1 -11 15 -15 16 -31 3 -16 -13 -17 -13 -9 0 6 12 5 13 -6 3
-14 -14 -33 -18 -26 -5 3 4 -21 7 -54 7 -32 0 -59 -4 -60 -10 0 -5 -4 -1 -9
10 -5 11 -9 14 -9 8 -1 -20 -21 -15 -22 5 -1 16 -2 16 -6 0 -2 -10 -8 -18 -13
-18 -5 0 -10 8 -12 18 -3 14 -5 14 -10 -4 -5 -20 1 -23 100 -39 58 -9 113 -21
121 -26 9 -5 64 -18 123 -29 58 -12 137 -30 175 -41 37 -11 88 -24 113 -30 81
-18 321 -99 394 -133 79 -38 271 -120 300 -130 40 -13 166 -99 166 -112 0 -12
-6 -12 -37 1 -21 9 -40 20 -43 25 -6 10 -180 85 -290 124 -41 15 -86 32 -100
37 -13 6 -51 19 -85 31 -33 11 -67 22 -75 26 -8 3 -19 6 -25 7 -5 0 -15 4 -21
7 -11 7 -146 47 -179 53 -11 2 -30 6 -42 9 -63 16 -197 45 -261 56 -29 5 -56
12 -61 15 -5 3 -12 1 -16 -5 -4 -6 -10 -8 -15 -5 -5 3 -11 1 -15 -5 -3 -5 -11
-10 -16 -10 -6 0 -7 5 -3 11 3 6 0 15 -7 20 -20 12 -37 11 -19 -2 11 -8 8 -9
-15 -4 -16 3 -38 6 -47 6 -10 0 -18 6 -18 12 0 7 -4 6 -10 -3 -9 -13 -11 -13
-20 0 -6 10 -10 11 -10 3 0 -20 -20 -15 -21 5 -1 16 -2 16 -6 0 -5 -22 -23
-24 -23 -3 0 8 -4 15 -10 15 -5 0 -10 -7 -10 -15 0 -8 -4 -15 -10 -15 -5 0
-10 7 -10 15 0 18 -16 20 -23 3 -4 -10 -8 -10 -15 1 -7 9 -12 10 -16 2 -11
-17 -26 -13 -27 7 0 10 -3 12 -6 5 -6 -16 -30 -17 -35 -1 -3 8 -6 7 -10 -4 -5
-11 4 -17 38 -25 24 -6 44 -6 44 -2 0 5 8 5 18 -1 14 -8 80 -22 217 -44 69
-12 362 -83 413 -101 7 -2 14 -3 16 -2 1 1 9 -3 17 -9 8 -6 46 -22 84 -34 148
-48 307 -115 480 -201 180 -90 227 -119 192 -119 -16 0 -303 124 -322 140 -12
10 -254 92 -272 93 -7 0 -13 4 -13 9 0 4 -8 8 -18 8 -10 0 -56 11 -103 25 -46
14 -89 23 -96 20 -7 -2 -13 0 -13 5 0 6 -9 10 -20 10 -11 0 -20 -4 -20 -9 0
-5 -7 -12 -16 -15 -13 -5 -15 -2 -11 14 3 11 1 18 -4 14 -5 -3 -9 0 -9 7 0 7
-13 10 -35 7 -19 -2 -35 -1 -35 3 0 4 -12 8 -27 8 -16 0 -63 1 -105 3 -43 2
-78 -1 -78 -5 0 -5 9 -7 20 -4 10 3 20 1 22 -4 2 -4 46 -20 98 -34 137 -38
345 -113 420 -152 36 -18 71 -33 79 -33 23 0 206 -101 343 -189 70 -44 130
-81 135 -81 4 0 49 -27 98 -60 50 -33 94 -60 98 -60 4 0 15 17 24 38 8 20 19
39 23 42 9 6 126 267 155 345 10 28 22 54 26 59 5 5 25 -3 49 -19 41 -28 48
-39 30 -50 -5 -3 -10 2 -10 12 -1 17 -1 17 -11 0 -7 -12 -7 -22 0 -30 15 -19
-10 -63 -35 -59 -10 2 -16 1 -12 -4 4 -4 2 -14 -5 -22 -9 -13 -9 -14 1 -8 17
10 15 -2 -3 -21 -8 -8 -13 -19 -10 -24 4 -5 1 -9 -6 -9 -7 0 -9 -3 -6 -7 4 -3
-2 -11 -13 -17 -10 -6 -53 -80 -95 -163 -42 -84 -82 -153 -88 -153 -16 0 -127
79 -127 91 0 5 -5 9 -10 9 -6 0 -48 22 -93 49 -98 59 -195 107 -201 100 -3 -3
-8 -23 -11 -44 -6 -40 -6 -40 42 -63 117 -54 189 -105 177 -123 -3 -5 3 -6 12
-2 12 4 15 3 10 -5 -4 -7 -1 -12 8 -12 9 0 16 -5 16 -11 0 -6 7 -9 14 -6 10 4
13 1 10 -8 -3 -8 1 -12 12 -12 10 1 20 -6 22 -16 3 -16 -1 -17 -35 -11 -48 9
-63 16 -208 108 -66 42 -126 76 -132 76 -13 0 -12 11 8 113 5 26 9 55 9 63 0
16 -213 122 -340 171 -36 14 -69 28 -75 33 -5 5 -14 9 -20 10 -5 1 -21 7 -35
12 -89 34 -355 101 -520 132 -247 46 -311 54 -493 62 -81 4 -150 11 -153 16
-7 11 -221 11 -228 0 -3 -5 -83 -12 -178 -15 -246 -9 -459 -39 -733 -103 -133
-31 -305 -82 -322 -96 -7 -6 -13 -7 -13 -3 0 4 -6 3 -12 -3 -7 -5 -44 -20 -83
-31 -66 -20 -233 -92 -390 -167 -161 -77 -303 -175 -463 -321 -77 -70 -294
-310 -407 -451 -55 -68 -87 -85 -59 -29 25 48 89 141 164 237 37 47 69 91 71
98 10 30 353 381 373 382 5 0 32 24 60 54 29 30 77 70 107 90 30 19 108 74
174 122 126 90 216 146 300 185 28 13 52 27 53 32 2 4 10 7 18 7 8 0 14 4 14
8 0 5 21 18 48 30 128 56 297 124 382 153 52 18 101 36 108 42 6 5 12 6 12 2
0 -4 6 -3 13 3 48 39 508 136 772 161 61 6 126 13 145 15 78 9 634 -4 769 -19z
m2472 -257 c72 -21 167 -124 140 -151 -7 -7 -18 -2 -36 17 -14 15 -39 32 -55
37 -16 6 -28 15 -25 19 3 4 -2 11 -11 14 -8 3 -12 2 -9 -4 3 -6 -1 -10 -9 -10
-9 0 -16 4 -16 8 0 5 -7 9 -15 9 -8 0 -15 -6 -15 -14 0 -7 -7 -13 -15 -13 -8
0 -15 -8 -15 -18 0 -15 -6 -18 -31 -14 -17 2 -40 0 -52 -6 -32 -14 -77 -32
-82 -32 -3 0 -5 11 -5 23 0 24 42 90 73 116 35 28 118 38 178 19z m-44 -215
c42 -33 68 -72 79 -118 7 -28 4 -27 -40 22 -59 65 -114 88 -191 80 -62 -6 -68
1 -27 33 41 33 128 25 179 -17z m-2810 -23 c188 -21 528 -83 549 -101 6 -5 14
-6 17 -2 4 3 13 0 22 -7 8 -7 22 -10 30 -6 8 3 15 2 15 -3 0 -4 22 -13 48 -19
107 -24 402 -148 402 -168 0 -8 10 -14 23 -14 27 0 53 -39 44 -64 -7 -18 -27
-22 -27 -6 0 6 -7 10 -15 10 -8 0 -23 4 -33 10 -15 9 -68 31 -82 35 -3 0 -20
9 -39 19 -89 48 -381 139 -546 171 -49 10 -94 21 -99 25 -5 5 -15 6 -22 3 -8
-3 -20 -1 -27 5 -6 5 -43 15 -82 21 -269 43 -618 60 -885 42 -180 -12 -393
-36 -420 -48 -8 -3 -25 -5 -38 -4 -13 2 -29 -3 -37 -9 -8 -6 -22 -10 -32 -9
-10 1 -25 -1 -33 -4 -8 -3 -76 -20 -150 -37 -223 -52 -399 -104 -510 -153 -25
-11 -47 -21 -50 -22 -9 -3 -62 -25 -195 -81 -138 -59 -219 -102 -355 -189 -47
-30 -89 -54 -93 -55 -10 0 -129 -90 -139 -105 -12 -16 -9 4 3 27 15 28 55 68
68 68 6 0 21 11 35 25 14 14 30 25 37 25 6 0 19 8 28 19 9 10 26 21 38 25 15
5 20 12 16 23 -5 13 -2 15 11 10 14 -6 17 -3 12 9 -4 11 -2 15 7 11 8 -3 20 3
27 13 7 10 18 16 25 14 6 -3 17 2 24 10 7 8 20 12 28 9 10 -4 14 -2 10 4 -3 5
17 21 46 34 29 13 54 27 55 32 2 4 8 7 13 7 15 0 122 51 154 74 17 11 30 19
30 18 0 -2 12 -1 27 3 16 4 26 11 23 15 -5 7 7 13 70 35 16 6 17 5 5 -4 -9 -6
-10 -11 -3 -11 6 0 19 7 27 16 9 9 22 17 29 18 31 6 57 18 57 28 0 6 11 8 25
6 14 -3 25 -1 25 4 0 6 7 7 16 4 10 -4 13 -2 8 6 -5 8 -2 9 9 5 10 -3 17 -2
17 3 0 5 10 9 23 9 20 -1 149 32 187 48 8 3 20 7 25 8 6 0 17 4 25 8 64 27
317 76 525 102 323 39 644 41 972 5z m2670 -102 c15 -6 30 -12 33 -13 44 -11
122 -84 135 -126 6 -21 6 -22 -6 -7 -12 15 -16 15 -27 2 -7 -8 -8 -14 -3 -14
6 0 15 -9 20 -19 9 -16 8 -18 -9 -14 -11 3 -20 9 -20 14 0 5 -7 9 -15 9 -21 0
-19 12 6 34 15 12 18 21 11 28 -14 14 -32 1 -32 -23 0 -25 0 -25 -76 12 -40
19 -95 36 -143 43 -68 10 -77 13 -72 29 18 49 128 74 198 45z m-412 -58 c8
-13 -50 -126 -91 -177 -21 -26 -56 -52 -92 -69 -31 -14 -65 -33 -75 -42 -9 -8
-20 -12 -23 -9 -13 13 37 74 85 106 63 40 115 101 137 158 16 42 44 58 59 33z
m85 -32 c0 -27 -26 -87 -62 -140 -21 -32 -38 -62 -38 -68 0 -5 -42 -41 -94
-80 -109 -82 -149 -136 -176 -241 -10 -39 -30 -88 -44 -110 -14 -21 -26 -45
-26 -54 0 -21 -10 -19 -44 8 l-29 24 32 59 c18 32 43 87 56 122 43 112 102
181 213 247 67 39 100 78 159 183 32 58 53 78 53 50z m258 -78 c38 -17 43 -23
36 -42 -4 -13 -12 -26 -18 -30 -8 -5 -6 -12 6 -24 13 -13 14 -22 6 -40 -9 -20
-16 -22 -52 -18 l-41 5 30 -17 c46 -26 93 -67 136 -119 53 -64 51 -94 -2 -36
-45 48 -117 91 -155 91 -13 0 -24 4 -24 8 0 9 -23 12 -108 13 l-63 0 20 37
c11 20 22 46 25 57 2 11 12 40 21 65 9 25 18 51 20 58 7 20 113 15 163 -8z
m48 -87 c-11 -11 -17 4 -9 23 7 18 8 18 11 1 2 -10 1 -21 -2 -24z m-128 -191
c28 -15 67 -41 86 -59 37 -37 101 -131 94 -138 -3 -3 -28 17 -56 45 -63 62
-135 98 -157 80 -13 -11 -14 -10 -10 1 6 16 -15 20 -113 22 -55 2 -62 4 -62
23 0 32 22 53 65 62 45 9 76 2 153 -36z m-118 -76 c81 -30 131 -59 169 -97 23
-22 41 -44 41 -49 0 -4 3 -17 7 -27 5 -12 -7 -6 -38 18 -92 75 -210 118 -290
105 -43 -7 -48 1 -23 39 13 20 25 25 58 25 22 0 57 -6 76 -14z m124 -15 c4 -5
-3 -7 -14 -4 -23 6 -26 13 -6 13 8 0 17 -4 20 -9z m-2745 -96 c23 -8 85 -41
139 -73 53 -33 128 -76 165 -96 151 -83 392 -286 492 -416 98 -128 132 -214
38 -98 -69 86 -92 106 -102 90 -9 -15 -32 3 -144 111 -39 37 -74 67 -79 67 -5
0 -40 24 -78 53 -65 49 -171 120 -251 166 -34 20 -37 20 -50 4 -12 -15 -12
-16 4 -10 12 4 17 1 17 -10 0 -9 3 -14 6 -10 3 3 17 -4 29 -16 41 -39 76 -67
84 -67 10 0 78 -60 195 -172 55 -54 96 -98 90 -98 -7 0 -26 12 -42 28 -61 54
-84 72 -93 72 -5 0 -9 5 -9 10 0 6 -6 9 -12 8 -7 -2 -12 2 -11 9 2 7 -4 10
-12 7 -8 -4 -15 -1 -15 5 0 6 -7 11 -16 11 -19 0 23 -44 70 -75 14 -10 26 -22
26 -27 0 -12 26 -38 37 -38 12 0 43 -38 43 -52 0 -6 3 -9 6 -5 8 7 53 -36 47
-45 -2 -5 3 -8 11 -8 10 0 13 -6 9 -17 -3 -10 -2 -15 2 -10 10 8 65 -41 65
-58 0 -17 35 -55 51 -56 12 0 12 -1 0 -6 -10 -4 -6 -12 14 -29 15 -13 37 -43
49 -66 12 -24 38 -69 59 -100 48 -73 140 -248 134 -255 -9 -8 -41 35 -97 128
-135 227 -328 450 -513 594 -67 52 -151 109 -187 127 -36 18 -67 35 -70 38
-15 15 -52 30 -60 25 -6 -4 -10 -1 -10 4 0 6 -4 11 -10 11 -24 0 -7 -20 24
-28 18 -6 51 -26 72 -46 22 -20 49 -39 62 -43 12 -3 22 -12 22 -21 0 -8 2 -13
5 -10 7 7 125 -108 125 -121 0 -6 4 -11 9 -11 5 0 25 -15 46 -34 25 -24 36
-40 31 -51 -4 -10 -2 -15 6 -13 18 6 79 -65 65 -75 -7 -5 -2 -6 11 -2 14 4 22
2 22 -5 0 -7 14 -25 31 -41 18 -16 29 -32 26 -35 -3 -3 3 -14 14 -25 10 -10
19 -26 19 -34 0 -8 5 -15 11 -15 6 0 9 -7 5 -15 -3 -9 0 -15 10 -15 8 0 12 -4
9 -10 -3 -5 1 -10 10 -10 9 0 13 -4 10 -10 -3 -5 -1 -10 4 -10 6 0 11 -7 11
-15 0 -9 9 -15 21 -15 17 0 19 -3 10 -14 -9 -10 -8 -15 4 -19 8 -4 24 -27 36
-52 12 -25 25 -45 29 -45 4 0 11 -11 14 -25 4 -14 14 -25 22 -25 10 0 14 -6
10 -15 -3 -8 -1 -15 4 -15 6 0 10 -7 10 -15 0 -8 5 -15 12 -15 6 0 9 -3 5 -6
-3 -3 3 -15 13 -26 10 -12 27 -43 37 -70 9 -27 25 -57 34 -67 9 -9 20 -27 23
-39 4 -12 12 -22 17 -22 6 0 7 -9 4 -20 -4 -12 -2 -20 5 -20 6 0 9 -4 6 -9 -3
-5 1 -22 9 -37 8 -16 15 -35 15 -42 0 -7 5 -10 10 -7 6 3 10 -3 10 -14 0 -12
5 -21 11 -21 6 0 9 -7 5 -15 -3 -8 -2 -15 3 -15 9 0 20 -29 26 -68 2 -13 9
-29 15 -36 5 -8 8 -21 4 -30 -3 -9 -1 -16 5 -16 6 0 10 -3 10 -7 -1 -5 0 -11
1 -15 1 -5 4 -12 5 -18 1 -5 4 -12 5 -15 1 -3 4 -9 5 -15 1 -5 4 -12 5 -15 1
-3 3 -8 5 -12 1 -5 7 -21 14 -38 7 -16 15 -42 18 -57 3 -16 8 -28 12 -28 4 0
7 -8 8 -17 3 -43 8 -63 15 -63 4 0 4 -7 1 -17 -5 -12 -3 -14 8 -8 12 8 12 6 0
-8 -12 -15 -11 -17 5 -17 14 0 15 -3 6 -12 -14 -14 -16 -32 -3 -24 5 4 7 -12
5 -34 -2 -22 0 -40 4 -40 11 0 14 -199 3 -218 -11 -20 -10 -25 -47 168 -14 74
-29 139 -34 145 -4 5 -20 55 -34 110 -72 274 -259 688 -415 920 -205 305 -475
577 -656 661 -94 44 -184 26 -320 -64 -80 -53 -298 -266 -402 -392 -101 -124
-275 -353 -296 -392 -16 -28 -20 -30 -28 -16 -23 42 158 312 405 603 42 50
100 118 129 152 29 34 58 62 65 62 21 1 14 41 -7 41 -21 0 -206 -179 -301
-290 -71 -84 -130 -157 -130 -163 0 -2 -15 -21 -33 -41 -19 -20 -40 -49 -48
-64 -13 -27 -59 -101 -137 -222 -61 -94 -129 -230 -177 -350 -36 -89 -45 -105
-64 -104 -19 1 -20 -1 -6 -16 24 -26 3 -74 -28 -65 -20 5 -20 5 -5 -8 15 -12
15 -17 1 -70 -13 -45 -21 -57 -37 -58 -19 -1 -19 -2 -2 -6 14 -4 17 -11 12
-35 -3 -17 -6 -39 -6 -50 0 -15 -5 -19 -20 -15 -13 3 -20 0 -20 -10 0 -8 5
-11 10 -8 6 3 10 1 10 -4 0 -6 -7 -11 -15 -11 -8 0 -15 -4 -15 -10 0 -5 7 -7
15 -4 10 4 15 0 15 -10 0 -10 -7 -16 -16 -14 -10 2 -19 -2 -21 -9 -3 -7 3 -9
17 -6 16 4 19 2 14 -11 -4 -10 -13 -15 -20 -12 -8 3 -14 1 -14 -3 0 -5 5 -11
11 -13 15 -5 15 -56 -2 -198 -19 -161 -16 -519 6 -705 19 -170 65 -376 99
-450 13 -27 27 -61 31 -75 16 -51 99 -217 142 -285 69 -106 218 -280 303 -353
154 -132 413 -284 573 -336 9 -3 17 -10 17 -15 0 -10 -64 -7 -92 4 -13 5 -18
2 -18 -8 0 -9 -4 -19 -10 -22 -6 -4 -9 3 -7 16 1 12 -4 24 -12 27 -9 3 -12 0
-8 -10 5 -14 -5 -16 -45 -9 -5 0 -8 10 -8 21 0 11 -4 20 -10 20 -5 0 -7 -6 -4
-14 4 -10 -1 -14 -15 -13 -12 1 -21 5 -21 10 0 4 -4 5 -10 2 -5 -3 -10 -1 -10
4 0 6 -5 11 -11 11 -7 0 -34 14 -61 31 -28 16 -52 28 -55 25 -3 -3 -14 4 -26
14 -11 11 -24 17 -29 14 -4 -3 -8 5 -8 18 0 17 -3 19 -9 9 -11 -17 -25 4 -15
22 6 9 4 9 -8 -1 -14 -11 -20 -10 -37 4 -11 10 -18 21 -15 26 3 4 -2 8 -10 8
-9 0 -16 5 -16 11 0 5 -5 7 -10 4 -10 -6 -34 10 -104 67 -18 15 -19 19 -6 29
12 8 11 9 -5 5 -23 -7 -51 27 -39 46 5 8 1 9 -11 5 -14 -6 -16 -3 -12 12 3 14
0 17 -14 14 -13 -4 -19 0 -19 11 0 9 -6 16 -14 16 -11 0 -98 107 -133 165 -7
11 -33 56 -59 100 -26 44 -53 87 -60 95 -24 29 -86 186 -126 320 -49 166 -75
311 -84 470 -4 66 -11 123 -16 126 -11 7 -11 541 1 548 4 3 11 38 14 78 9 115
63 364 106 489 50 146 74 199 153 335 36 61 67 118 71 126 7 20 96 154 174
265 81 114 222 292 256 322 9 8 17 19 17 24 0 4 10 18 23 30 13 12 26 30 30
40 3 9 11 17 17 17 5 0 10 9 10 20 0 13 7 20 20 20 11 0 20 7 20 15 0 8 -7 15
-15 15 -9 0 -18 -7 -21 -15 -4 -8 -10 -15 -15 -15 -4 0 -23 -14 -41 -30 -45
-42 -42 -39 -96 -97 -27 -29 -52 -53 -55 -53 -14 0 -107 -101 -107 -116 0 -8
-4 -12 -10 -9 -5 3 -10 0 -10 -7 0 -8 -9 -20 -20 -28 -11 -8 -20 -20 -20 -27
0 -7 -5 -13 -11 -13 -5 0 -7 -4 -4 -10 3 -5 1 -10 -5 -10 -13 0 -3 48 15 70 7
8 15 27 19 43 3 15 11 27 16 27 6 0 10 5 10 11 0 6 6 16 13 24 6 7 19 21 27
32 62 78 110 132 137 158 48 46 94 85 100 85 9 0 43 42 43 53 0 5 7 6 16 3 11
-4 18 1 21 14 3 11 12 20 19 20 16 0 19 26 4 35 -5 3 -10 3 -10 -2 0 -4 -18
-23 -39 -40 -43 -36 -71 -35 -72 1 0 21 0 21 -11 -1 -6 -13 -15 -23 -19 -23
-15 0 -48 -33 -43 -42 3 -4 -2 -8 -10 -8 -9 0 -16 -7 -16 -15 0 -9 -9 -15 -21
-15 -18 0 -19 -2 -9 -15 10 -12 9 -15 -4 -15 -19 0 -46 -23 -46 -39 0 -6 -4
-11 -10 -11 -5 0 -7 -7 -3 -15 3 -9 1 -15 -5 -13 -11 3 -46 -33 -70 -74 -9
-16 -20 -28 -24 -28 -4 0 -8 -7 -8 -15 0 -8 -4 -15 -10 -15 -5 0 -10 -5 -10
-11 0 -7 -8 -19 -19 -28 -28 -24 -60 -82 -54 -97 3 -8 -1 -14 -11 -14 -9 0
-16 -5 -16 -10 0 -6 -9 -20 -20 -32 -15 -16 -17 -25 -9 -35 9 -10 7 -13 -6
-13 -11 0 -15 -5 -11 -15 3 -8 1 -15 -5 -15 -6 0 -8 -9 -4 -20 4 -14 2 -20 -7
-18 -7 2 -12 -5 -12 -14 1 -10 -3 -18 -8 -18 -6 0 -8 -7 -4 -15 3 -8 1 -15 -4
-15 -5 0 -7 -7 -4 -15 4 -8 1 -15 -6 -15 -6 0 -8 -4 -5 -10 3 -5 1 -10 -5 -10
-7 0 -10 -7 -6 -15 3 -8 1 -15 -5 -15 -6 0 -9 -7 -5 -15 3 -8 1 -15 -5 -15 -6
0 -8 -9 -4 -20 4 -14 2 -20 -9 -20 -10 0 -13 -6 -10 -15 4 -8 1 -15 -5 -15 -6
0 -11 -7 -11 -15 0 -8 -4 -15 -10 -15 -5 0 -7 -7 -4 -15 4 -8 1 -15 -6 -15 -7
0 -10 -7 -6 -15 3 -8 2 -15 -3 -15 -4 0 -16 -28 -26 -62 -10 -35 -22 -67 -25
-73 -4 -5 -15 -35 -24 -65 -9 -30 -21 -62 -25 -70 -4 -8 -23 -67 -41 -130 -18
-63 -36 -119 -41 -125 -8 -11 -25 -74 -34 -125 -3 -19 -15 -80 -25 -135 -48
-247 -52 -296 -56 -595 -3 -249 0 -316 16 -430 10 -74 22 -150 26 -167 11 -55
-17 -39 -31 17 -12 44 -19 60 -27 60 -5 0 -6 -10 -2 -22 7 -22 14 -71 17 -118
1 -14 6 -28 12 -32 6 -5 5 -12 -5 -18 -8 -5 -10 -10 -4 -10 6 0 11 -13 11 -29
0 -58 -23 -18 -66 117 -24 75 -47 145 -52 154 -5 10 -9 30 -9 45 0 16 -7 63
-15 106 -8 43 -15 97 -16 120 -1 41 -1 41 -10 12 -24 -77 0 -416 36 -500 27
-65 40 -100 37 -108 -1 -4 7 -25 18 -47 11 -22 19 -43 18 -47 -3 -13 24 -63
34 -63 5 0 6 -9 3 -20 -4 -11 -2 -20 4 -20 6 0 8 -7 5 -15 -4 -8 -1 -15 5 -15
6 0 8 -7 4 -15 -3 -9 -2 -15 3 -14 21 4 26 -2 14 -16 -11 -13 -10 -14 5 -8 14
5 17 3 12 -10 -3 -9 -2 -17 3 -17 14 0 12 -27 -2 -34 -7 -3 -3 -3 10 0 24 6
29 -5 10 -25 -11 -12 -10 -13 6 -7 16 5 17 3 12 -20 -5 -19 -3 -24 5 -18 9 5
10 1 6 -15 -4 -18 -2 -21 15 -15 17 5 19 3 13 -15 -3 -12 -2 -21 3 -21 6 0 13
-12 17 -27 3 -15 15 -39 26 -54 10 -15 18 -33 16 -41 -2 -7 -2 -10 0 -5 11 18
25 5 19 -18 -4 -14 -2 -25 4 -25 5 0 10 -6 10 -13 0 -7 9 -23 21 -35 11 -12
17 -27 14 -32 -3 -6 -1 -10 4 -10 6 0 11 -7 11 -15 0 -8 5 -15 10 -15 6 0 10
-7 10 -15 0 -8 5 -15 10 -15 6 0 10 -9 10 -21 0 -11 5 -17 10 -14 6 3 10 -3
10 -14 0 -12 6 -21 13 -21 7 0 19 -16 27 -35 8 -19 17 -35 22 -35 4 0 8 -7 8
-15 0 -8 7 -15 16 -15 9 0 14 -6 11 -12 -2 -7 5 -22 17 -33 25 -24 76 -91 76
-100 0 -10 28 -35 39 -35 6 0 11 -3 11 -7 0 -8 33 -50 70 -90 11 -12 20 -28
20 -34 0 -7 15 -26 33 -43 17 -17 37 -40 42 -51 6 -11 25 -27 43 -37 20 -10
29 -19 22 -23 -14 -9 -72 14 -64 26 3 5 -2 9 -10 9 -17 0 -22 4 -126 92 -98
84 -312 344 -365 445 -11 21 -54 99 -96 173 -75 134 -123 233 -194 405 -20 50
-47 113 -60 140 -13 28 -44 122 -70 210 -43 146 -48 172 -52 291 -6 145 12
316 52 514 13 63 35 187 50 275 15 88 31 169 35 180 11 25 30 152 30 200 0 25
11 53 39 93 39 58 201 371 201 389 0 5 18 54 40 109 23 54 58 151 80 214 21
63 47 133 58 155 11 22 43 112 72 200 72 217 117 313 166 353 21 18 40 28 42
22 2 -5 -8 -35 -22 -65 -14 -30 -23 -55 -21 -55 2 0 34 39 71 88 38 48 93 113
124 146 61 65 224 195 340 273 112 74 354 202 430 227 26 8 47 6 89 -9z m2608
-13 c83 -27 196 -132 218 -202 6 -18 -5 -10 -43 31 -39 43 -66 62 -109 78 -83
30 -159 39 -253 29 -29 -3 -31 8 -8 41 29 41 111 50 195 23z m-37 -115 c0 -4
4 -6 9 -3 13 8 155 -96 159 -117 5 -25 -13 -21 -46 13 -52 51 -198 89 -259 67
-19 -7 -23 -5 -23 13 0 12 9 24 23 30 26 11 137 9 137 -3z m-45 -137 c4 -6 10
-8 15 -5 9 6 35 -23 28 -31 -10 -10 -148 -17 -148 -8 0 5 7 20 16 32 16 23 77
32 89 12z m21 -79 c68 -31 75 -60 9 -36 -22 8 -66 14 -97 15 -32 0 -58 4 -58
8 0 35 81 42 146 13z m-30 -96 c38 -12 57 -26 84 -61 19 -25 40 -51 46 -58 14
-15 26 -48 15 -41 -5 3 -11 -1 -14 -7 -2 -8 -19 1 -47 26 -63 57 -119 78 -205
78 -40 0 -82 -5 -94 -11 -24 -13 -28 -2 -10 30 29 56 126 74 225 44z m-56
-132 c50 -16 119 -67 107 -80 -4 -3 -31 6 -61 20 -95 45 -151 44 -203 -5 -23
-21 -43 -17 -43 9 0 18 22 38 65 58 40 19 72 18 135 -2z m-1880 -33 c0 -5 -4
-10 -10 -10 -5 0 -10 5 -10 10 0 6 5 10 10 10 6 0 10 -4 10 -10z m2109 -84
c-3 -3 -11 5 -18 17 -13 21 -12 21 5 5 10 -10 16 -20 13 -22z m-260 -50 c-1
-30 -5 -60 -10 -67 -4 -7 -3 -22 3 -32 7 -13 7 -17 0 -13 -6 3 -13 2 -17 -4
-3 -5 -1 -10 5 -10 7 0 5 -7 -4 -16 -9 -8 -16 -19 -16 -23 0 -5 -11 -20 -24
-34 l-24 -26 -53 35 c-29 19 -59 34 -66 34 -12 0 46 112 73 140 13 13 16 13
24 0 5 -8 7 -31 4 -50 -5 -31 -4 -33 8 -18 8 9 27 43 43 77 38 77 55 79 54 7z
m-220 -241 c52 -13 137 -64 154 -91 4 -7 14 -20 23 -29 8 -8 13 -15 9 -15 -3
0 2 -14 10 -31 9 -17 14 -33 12 -35 -2 -3 -29 19 -59 48 -63 61 -143 97 -230
105 -48 5 -58 9 -58 25 0 36 55 46 139 23z m-2051 -45 c34 -7 62 -15 62 -19 0
-3 -111 -5 -248 -4 -136 2 -263 -1 -282 -6 -72 -18 -122 -22 -118 -9 5 13 42
23 123 33 28 4 68 10 90 14 62 11 303 6 373 -9z m105 -27 c-7 -2 -19 -2 -25 0
-7 3 -2 5 12 5 14 0 19 -2 13 -5z m-163 -47 c101 -13 200 -36 214 -48 6 -4 18
-8 28 -8 10 0 18 -4 18 -10 0 -5 -18 -10 -39 -10 -22 0 -43 5 -46 10 -8 13
-102 13 -110 0 -5 -8 -11 -7 -21 1 -12 9 -14 6 -14 -20 0 -28 3 -31 20 -26 13
4 20 2 20 -6 0 -7 6 -4 15 7 12 16 14 16 15 3 0 -11 9 -16 28 -16 37 1 235
-43 246 -54 6 -5 -45 -6 -122 -2 l-131 6 6 -23 c5 -21 7 -21 18 -6 15 20 25
21 25 0 0 -11 6 -14 20 -9 11 4 20 2 20 -4 0 -6 7 -8 15 -5 9 4 15 0 15 -7 0
-11 2 -11 10 1 8 12 10 12 16 -4 5 -14 9 -15 16 -4 8 11 10 11 15 -1 5 -11 7
-11 14 0 6 10 9 10 9 2 0 -7 7 -10 15 -7 8 4 15 1 15 -5 0 -6 6 -11 14 -11 8
0 27 -5 43 -12 15 -6 32 -10 36 -9 4 0 24 -10 45 -25 l37 -25 -60 7 c-33 4
-70 11 -83 15 -19 7 -23 6 -20 -8 2 -9 30 -27 69 -43 81 -33 131 -61 136 -77
3 -8 -14 -6 -53 7 -35 12 -81 20 -118 19 l-61 -1 40 -12 c75 -24 85 -28 85
-38 0 -5 5 -6 10 -3 6 3 10 1 10 -5 0 -7 6 -10 13 -7 8 3 20 -3 27 -13 8 -11
18 -16 24 -13 5 4 7 -1 3 -11 -6 -14 -3 -17 9 -12 12 4 15 2 10 -9 -3 -9 0
-15 8 -15 15 0 48 -45 52 -70 2 -8 7 -32 12 -52 14 -53 -6 -50 -40 6 -14 24
-41 55 -59 69 -28 21 -131 78 -149 83 -3 0 -14 5 -25 10 -11 5 -54 9 -95 8
-63 -1 -83 -6 -123 -29 -27 -15 -60 -45 -74 -66 -14 -22 -27 -39 -29 -39 -9 0
1 70 10 70 6 0 3 7 -6 14 -24 18 -23 29 2 21 14 -5 20 -2 20 10 0 9 -4 13 -10
10 -5 -3 -10 -1 -10 5 0 6 7 13 15 16 17 7 21 34 5 34 -5 0 -10 -6 -10 -14 0
-8 -9 -17 -19 -21 -11 -3 -22 -13 -25 -22 -5 -12 -9 -13 -21 -3 -16 13 -21 35
-6 26 4 -3 6 5 4 18 -3 16 5 34 27 60 36 41 28 46 -20 14 -39 -27 -106 -121
-116 -161 -4 -19 -11 -27 -20 -23 -9 4 -14 -2 -14 -15 0 -11 4 -18 9 -14 11 6
10 -67 -1 -75 -4 -3 -3 -12 2 -20 7 -10 10 -11 10 -2 0 29 19 8 25 -29 4 -22
9 -38 12 -35 9 9 72 -95 84 -136 15 -56 29 -56 22 0 -3 32 -1 52 6 56 6 4 13
1 15 -6 37 -142 75 -192 179 -243 85 -41 177 -54 247 -35 53 14 125 82 135
129 4 17 11 33 16 36 5 4 9 19 9 35 0 55 18 39 25 -23 11 -85 11 -91 2 -98 -4
-3 -9 -14 -12 -25 -2 -10 -7 -29 -11 -41 -3 -13 -2 -23 3 -23 14 0 53 105 54
143 0 18 4 41 8 51 6 16 9 17 17 5 10 -16 13 -169 3 -169 -4 0 -9 -10 -12 -22
-5 -21 -5 -21 7 -5 15 20 36 23 36 5 0 -20 -17 -41 -27 -35 -5 3 -15 1 -23 -4
-12 -8 -12 -12 -2 -16 6 -2 12 -12 12 -20 0 -13 -3 -13 -15 -3 -18 15 -20 -1
-3 -18 12 -12 1 -17 -30 -13 -11 2 -11 -2 -2 -19 11 -20 10 -21 -10 -10 -12 6
-26 9 -33 6 -7 -2 -5 -5 4 -5 9 -1 20 -8 23 -17 4 -12 2 -15 -9 -10 -8 3 -22
9 -32 13 -12 5 -14 3 -8 -7 6 -10 3 -12 -13 -8 -12 4 -22 3 -22 -2 0 -9 -17
-11 -129 -13 -60 -1 -85 2 -88 11 -3 7 4 12 16 12 12 0 21 5 21 11 0 6 7 8 15
5 9 -3 23 -1 33 4 9 5 43 16 75 25 72 20 144 79 125 102 -8 10 -14 11 -16 4
-2 -6 -7 -9 -12 -6 -4 3 -6 -4 -3 -15 4 -16 2 -19 -11 -14 -16 6 -49 -18 -55
-41 -1 -5 -13 -9 -26 -7 -14 2 -25 0 -25 -5 0 -4 -13 -9 -30 -10 -16 -1 -49
-11 -74 -23 -25 -11 -50 -20 -55 -20 -6 0 -11 -4 -11 -8 0 -5 -11 -15 -25 -22
-14 -7 -25 -19 -25 -27 0 -7 -7 -13 -15 -13 -8 0 -15 -7 -15 -15 0 -8 -4 -15
-10 -15 -5 0 -10 -7 -10 -16 0 -13 -3 -14 -14 -5 -11 9 -17 6 -27 -19 -8 -16
-17 -30 -21 -30 -4 0 -5 -7 -2 -15 4 -8 1 -15 -5 -15 -6 0 -11 -7 -11 -15 0
-8 -3 -15 -8 -15 -14 0 -56 -79 -57 -107 0 -17 -5 -27 -12 -25 -18 3 -16 -6
12 -63 14 -28 24 -59 21 -70 -6 -24 30 -89 44 -80 6 3 10 -1 10 -9 0 -9 -7
-16 -15 -16 -11 0 -14 -7 -9 -25 5 -20 2 -25 -14 -25 -15 0 -21 9 -26 47 -8
61 -27 113 -48 137 -24 27 -29 18 -17 -32 10 -47 5 -66 -17 -58 -18 7 -17 -4
0 -27 19 -24 9 -56 -20 -63 -33 -8 -40 0 -47 48 -9 63 -27 118 -37 118 -10 0
-23 -56 -25 -115 -1 -22 -3 -43 -4 -47 0 -5 -17 -8 -36 -8 l-35 0 0 80 c0 50
-4 80 -11 80 -5 0 -8 -4 -5 -9 3 -5 -1 -11 -9 -15 -8 -3 -15 -14 -15 -24 0
-11 -7 -25 -15 -32 -18 -15 -20 -51 -3 -68 9 -9 1 -12 -36 -12 l-48 0 5 62 c3
35 9 74 13 88 7 24 7 24 -20 -5 -15 -16 -30 -42 -33 -57 -3 -15 -10 -28 -15
-28 -5 0 -8 -12 -6 -27 3 -24 -1 -28 -26 -31 l-29 -4 8 79 c5 43 8 101 8 128
1 73 -32 196 -58 223 -36 36 -39 88 -4 66 19 -11 69 -97 80 -136 11 -41 25
-51 25 -18 0 11 -4 20 -9 20 -4 0 -7 6 -6 13 3 19 -42 127 -53 127 -5 0 -8 9
-8 21 0 11 -4 17 -10 14 -5 -3 -10 1 -10 9 0 10 -6 13 -17 9 -13 -5 -15 -2
-11 15 4 13 2 20 -3 16 -6 -3 -18 4 -28 15 -10 12 -23 21 -30 21 -6 0 -11 5
-11 11 0 5 -4 7 -10 4 -5 -3 -10 -2 -10 4 0 5 -9 9 -20 8 -18 -1 -17 -4 10
-25 16 -13 30 -28 30 -33 0 -16 -35 -10 -49 9 -11 16 -19 17 -68 8 -38 -7 -57
-6 -61 1 -4 6 -20 9 -37 7 -41 -5 -95 14 -95 33 0 9 -6 13 -15 9 -10 -3 -23 6
-38 29 -12 19 -28 35 -35 35 -7 0 -10 5 -7 10 3 6 2 10 -4 10 -6 0 -15 16 -20
36 -8 29 -7 40 4 51 8 8 15 19 15 24 0 15 -18 10 -29 -8 -7 -12 -10 -13 -11
-5 0 8 10 22 23 33 12 10 17 18 12 19 -12 0 -7 158 6 180 6 11 8 6 9 -17 0
-18 5 -33 10 -33 6 0 10 -7 10 -15 0 -8 4 -15 9 -15 13 0 41 29 41 43 1 24 17
-19 29 -76 16 -75 74 -139 141 -157 61 -17 153 -7 231 25 108 43 170 117 191
228 7 37 16 67 20 67 11 0 10 -129 -2 -169 -14 -49 5 -25 23 29 9 25 25 64 36
87 12 23 21 49 21 59 0 10 5 14 14 11 9 -4 12 0 9 11 -2 10 5 27 16 39 27 28
28 100 3 204 -20 81 -45 123 -88 145 -33 18 -39 18 -25 0 24 -28 61 -108 61
-130 0 -13 -6 -29 -14 -35 -11 -9 -20 -1 -47 40 -27 43 -34 48 -39 33 -4 -10
-1 -24 7 -32 16 -17 16 -24 1 -42 -11 -12 -10 -12 5 -1 15 12 17 11 17 -10 0
-50 -16 -54 -51 -14 -39 44 -103 87 -127 84 -9 -1 -25 1 -35 6 -24 10 -115 -1
-133 -16 -8 -7 -17 -9 -20 -6 -10 10 -118 -54 -161 -96 -23 -22 -50 -56 -58
-74 -34 -70 -38 -15 -5 62 7 17 13 33 12 37 -1 3 5 11 13 18 7 6 11 19 8 27
-5 12 -2 15 10 10 11 -4 17 -1 17 8 0 9 6 12 16 8 12 -4 15 -2 12 8 -6 18 13
38 30 32 7 -3 12 0 10 8 -2 8 7 14 24 14 16 1 33 6 39 12 6 6 17 9 24 7 7 -3
15 4 18 15 4 16 0 19 -27 16 -48 -4 -118 -25 -155 -46 -18 -11 -36 -17 -39
-14 -10 10 30 44 86 72 32 15 60 32 63 37 4 5 12 5 18 2 11 -7 28 20 19 29 -3
3 -30 0 -62 -6 -79 -14 -91 -6 -31 21 28 12 50 21 51 19 0 -2 7 1 15 8 8 6 43
19 79 28 36 9 68 22 72 28 6 9 10 8 17 -1 6 -11 10 -10 15 3 5 14 9 15 20 6
10 -9 16 -9 21 -1 10 16 -3 42 -17 34 -18 -11 -158 -15 -158 -4 0 12 54 27
165 46 88 15 115 21 125 24 3 1 20 2 38 2 17 0 32 4 32 10 0 6 9 8 20 5 16 -4
20 0 20 20 0 21 -3 23 -14 14 -10 -9 -16 -9 -21 -1 -5 8 -11 8 -21 -1 -10 -8
-14 -8 -14 0 0 6 -7 11 -15 11 -8 0 -15 -5 -15 -11 0 -8 -5 -8 -15 1 -12 10
-15 10 -15 -1 0 -10 -3 -10 -12 -1 -6 6 -16 8 -22 3 -15 -11 -126 -22 -126
-12 0 30 118 60 300 77 36 3 66 7 67 8 4 4 180 -2 223 -8z m2106 -19 c34 -18
104 -79 104 -90 0 -5 -4 -5 -10 -2 -6 3 -7 -1 -4 -9 3 -9 10 -16 15 -16 5 0 9
-7 9 -15 0 -8 -4 -15 -10 -15 -5 0 -7 -7 -4 -15 4 -8 1 -15 -4 -15 -6 0 -13 8
-16 18 -11 32 -143 94 -213 100 -43 4 -53 8 -53 23 0 9 12 27 28 39 22 18 36
21 78 17 29 -3 65 -12 80 -20z m-1806 -57 c0 -5 -4 -10 -10 -10 -5 0 -10 5
-10 10 0 6 5 10 10 10 6 0 10 -4 10 -10z m682 -101 c64 -127 116 -244 124
-274 4 -17 20 -63 36 -104 29 -75 88 -290 88 -323 0 -33 -17 -19 -29 25 -7 23
-21 60 -31 82 -26 59 -40 106 -34 116 3 5 0 9 -5 9 -6 0 -10 3 -9 8 4 15 -14
52 -23 47 -5 -3 -6 1 -3 9 4 9 1 16 -6 16 -7 0 -10 7 -6 15 3 8 1 15 -5 15 -6
0 -9 7 -5 15 3 8 1 15 -5 15 -5 0 -9 6 -7 13 4 19 -22 58 -34 51 -7 -4 -8 -3
-4 4 8 13 -23 122 -34 122 -4 0 -7 14 -7 31 0 17 -6 35 -14 40 -8 5 -10 9 -5
9 5 0 3 6 -3 13 -6 8 -8 17 -4 20 3 4 2 7 -4 7 -6 0 -14 16 -17 36 -4 19 -10
42 -13 51 -4 11 -2 14 8 11 8 -2 31 -38 51 -79z m1018 -24 c7 -14 20 -25 29
-25 14 0 14 -2 1 -10 -12 -8 -12 -12 -3 -18 19 -12 6 -46 -80 -217 -41 -82
-107 -215 -146 -295 -39 -80 -102 -205 -141 -278 -38 -73 -70 -137 -70 -142 0
-5 -26 -58 -59 -117 -32 -59 -99 -187 -148 -283 -49 -96 -102 -194 -116 -217
-15 -24 -27 -45 -27 -48 0 -3 -30 -58 -66 -123 -37 -64 -75 -136 -85 -159 -10
-24 -22 -43 -28 -43 -5 0 -15 -15 -22 -33 -8 -18 -45 -87 -82 -155 -51 -91
-73 -122 -88 -122 -28 0 -34 26 -14 56 9 14 14 29 10 32 -4 4 -11 -1 -16 -10
-17 -31 -47 -41 -80 -28 l-29 12 27 47 c15 25 45 78 68 116 23 39 77 137 119
219 43 83 86 161 96 175 10 14 57 103 106 196 48 94 98 187 111 208 13 20 63
117 112 215 48 97 121 240 162 317 42 77 144 278 229 448 153 306 153 307 185
307 23 0 35 -6 45 -25z m74 -170 c3 -8 1 -15 -5 -15 -6 0 -7 -4 -4 -10 3 -5
-1 -22 -9 -37 -8 -16 -21 -44 -29 -63 -8 -19 -26 -63 -41 -96 -14 -34 -26 -67
-26 -73 0 -6 -5 -11 -10 -11 -6 0 -15 -12 -20 -27 -19 -51 -45 -103 -52 -103
-5 0 -8 -5 -8 -12 0 -15 -52 -122 -62 -126 -4 -2 -8 -7 -8 -12 0 -4 -8 -25
-17 -46 -20 -47 -19 -44 -28 -71 -4 -13 -11 -23 -16 -23 -5 0 -14 -11 -19 -25
-20 -54 -66 -142 -80 -155 -3 -3 -36 -66 -74 -140 -37 -74 -90 -178 -117 -230
-28 -52 -76 -144 -106 -205 -31 -60 -60 -111 -65 -113 -4 -2 -8 -8 -8 -14 0
-8 -153 -282 -195 -349 -5 -9 -25 -40 -43 -70 -41 -68 -71 -104 -79 -95 -4 3
3 23 14 44 11 20 35 64 53 97 18 33 38 67 45 75 14 18 61 103 145 264 34 65
73 137 87 159 14 22 67 122 118 221 51 100 129 251 174 336 44 84 81 160 81
166 0 7 5 16 10 19 6 3 10 15 10 26 0 10 4 19 10 19 5 0 82 147 172 328 89
180 166 330 172 334 6 4 7 8 2 8 -5 0 -3 6 3 13 6 8 8 17 4 20 -3 4 -2 7 4 7
6 0 13 -7 17 -15z m-3184 -772 c0 -36 48 -119 93 -160 35 -33 64 -48 131 -68
47 -14 88 -30 91 -36 4 -5 10 -7 14 -4 5 2 26 -12 47 -31 22 -20 32 -31 23
-25 -9 6 -62 20 -118 32 -166 34 -245 91 -286 208 -17 50 -20 101 -5 101 6 0
10 -8 10 -17z m1855 -160 c-22 -42 -41 -63 -54 -63 -7 0 -10 -4 -7 -8 5 -9
-38 -45 -57 -48 -7 -1 -32 -4 -57 -7 -52 -7 -74 -12 -124 -25 -44 -13 -50 4
-7 19 16 6 32 17 35 26 4 8 13 13 21 9 8 -3 15 -2 15 2 0 4 26 14 58 21 35 8
82 29 122 56 36 24 66 44 68 44 1 1 -4 -11 -13 -26z m-571 -189 c5 -12 2 -15
-10 -10 -8 3 -18 6 -20 6 -3 0 -2 5 1 10 9 15 22 12 29 -6z m-14 -24 c0 -5 -4
-10 -10 -10 -5 0 -10 5 -10 10 0 6 5 10 10 10 6 0 10 -4 10 -10z m100 -18 c0
-10 -7 -27 -15 -38 -14 -18 -15 -17 -9 11 10 47 24 62 24 27z m-120 -12 c0 -5
-4 -10 -10 -10 -5 0 -10 5 -10 10 0 6 5 10 10 10 6 0 10 -4 10 -10z m-13 -26
c11 -29 -46 -122 -67 -109 -16 10 -12 25 6 25 10 0 14 6 10 15 -3 8 0 15 5 15
6 0 9 9 6 20 -3 13 -1 18 6 13 6 -4 8 2 5 15 -7 26 19 31 29 6z m-687 -24 c0
-10 5 -22 11 -25 6 -4 8 -13 5 -21 -3 -7 -1 -16 5 -20 7 -4 6 -10 0 -18 -6 -7
-7 -17 -3 -21 4 -5 2 -5 -4 -2 -6 4 -14 23 -17 44 -4 21 -10 51 -13 67 -5 21
-4 27 5 22 6 -4 11 -16 11 -26z m-205 -220 c15 -77 32 -140 36 -140 5 0 9 -11
9 -24 0 -39 113 -186 143 -186 2 0 2 31 -1 68 -4 59 -2 70 13 75 27 11 34 0
41 -64 4 -32 11 -62 15 -65 5 -3 9 -14 9 -25 0 -10 2 -19 4 -19 2 0 12 -3 20
-6 15 -6 16 3 10 84 -6 86 -5 90 15 97 31 9 51 -11 51 -52 0 -19 5 -66 12
-104 16 -102 32 -83 36 43 2 87 6 107 19 112 23 9 63 -20 63 -46 0 -12 5 -61
11 -110 10 -73 14 -86 25 -77 10 8 14 36 14 95 0 107 10 134 50 134 17 0 30
-5 31 -12 6 -148 11 -224 14 -227 2 -2 19 11 37 28 18 17 27 31 21 31 -16 0
-18 132 -2 161 11 21 29 17 29 -7 0 -9 7 -23 16 -32 15 -15 15 -16 -2 -23 -11
-4 -13 -8 -6 -8 7 -1 11 -5 7 -11 -3 -5 -13 -6 -22 -3 -11 4 -14 3 -9 -5 4 -7
14 -12 22 -12 8 0 14 -7 14 -15 0 -8 -7 -15 -15 -15 -11 0 -14 -9 -13 -32 3
-28 -1 -34 -19 -36 -31 -5 -29 -22 2 -22 14 0 25 5 25 11 0 5 5 7 12 3 9 -6 9
-9 0 -12 -7 -2 -12 -10 -12 -18 0 -12 4 -13 23 -3 18 9 20 9 10 -2 -15 -16
-17 -49 -3 -49 6 0 10 3 10 8 0 4 20 7 44 8 57 1 115 32 198 105 36 32 71 59
77 59 16 0 13 -26 -4 -40 -9 -7 -14 -19 -11 -27 3 -7 -4 -21 -15 -31 -11 -9
-42 -36 -67 -60 -26 -23 -60 -50 -77 -59 -17 -9 -25 -18 -17 -20 6 -3 12 -11
12 -18 0 -16 -41 -28 -54 -15 -13 13 -29 13 -21 0 3 -5 1 -10 -5 -10 -6 0 -9
-4 -6 -9 4 -5 22 -5 43 0 23 5 39 4 41 -1 2 -6 8 -10 14 -10 6 0 8 7 4 15 -3
8 -1 15 4 15 6 0 10 -4 10 -10 0 -10 23 -8 53 5 9 4 25 4 35 -1 9 -4 22 -6 27
-5 6 1 0 -7 -12 -18 -25 -21 -31 -37 -10 -25 7 4 7 2 -2 -7 -10 -11 -15 -11
-18 -1 -7 19 -26 14 -20 -7 3 -15 -6 -21 -50 -35 -75 -24 -103 -28 -103 -17 0
6 -7 8 -15 5 -11 -4 -15 1 -16 17 -2 24 -2 24 -6 2 -5 -27 -23 -31 -23 -5 -1
16 -1 16 -11 -1 -10 -17 -12 -17 -35 -2 -20 13 -24 13 -24 1 0 -7 -9 -16 -21
-19 -14 -4 -23 1 -29 16 l-9 22 0 -22 c-1 -34 -31 -29 -32 5 l-2 27 -4 -27
c-2 -16 -9 -28 -14 -28 -5 0 -10 12 -10 28 l-2 27 -4 -27 c-5 -34 -23 -37 -24
-5 0 20 -1 20 -8 3 -8 -21 -68 -31 -88 -14 -9 7 -13 7 -13 -1 0 -6 -11 -11
-25 -11 -14 0 -25 4 -25 8 0 5 -7 9 -15 9 -8 0 -15 -4 -15 -8 0 -4 -9 -5 -20
-2 -13 4 -20 14 -21 32 l0 26 -11 -25 -11 -25 -6 25 -7 25 -6 -24 c-4 -12 -11
-20 -16 -17 -6 3 -8 15 -5 26 6 22 -28 43 -35 22 -2 -7 -8 -12 -13 -12 -4 0
-6 7 -3 15 4 9 -3 23 -17 35 -50 41 -51 43 -41 49 6 3 -27 28 -73 54 -95 54
-165 125 -183 185 -14 46 -16 158 -3 166 5 3 12 -13 15 -36 7 -45 36 -116 58
-144 34 -45 119 -121 154 -138 22 -10 47 -22 56 -27 28 -14 42 -11 28 6 -7 8
-19 15 -27 15 -7 0 -16 7 -19 15 -3 8 -15 17 -26 21 -11 3 -34 21 -50 40 -17
19 -35 34 -42 34 -12 0 -51 40 -38 40 4 0 2 4 -5 8 -17 11 -54 125 -44 135 6
6 15 -4 24 -25 19 -44 96 -125 166 -172 51 -34 98 -52 56 -20 -48 35 -78 60
-97 81 -11 12 -27 19 -35 16 -9 -4 -13 0 -11 8 1 8 -7 30 -19 49 -28 47 -59
156 -72 259 -26 197 -4 204 34 11z m1235 -13 c-8 -83 -37 -187 -53 -187 -6 0
17 127 49 269 11 49 13 12 4 -82z m-1002 -39 c-2 -48 -7 -63 -18 -63 -22 0
-25 70 -5 101 8 13 18 24 20 24 3 0 4 -28 3 -62z m-318 22 c0 -5 -4 -10 -10
-10 -5 0 -10 5 -10 10 0 6 5 10 10 10 6 0 10 -4 10 -10z m2440 -110 c0 -5 -4
-10 -10 -10 -5 0 -10 5 -10 10 0 6 5 10 10 10 6 0 10 -4 10 -10z m1 -33 c-1
-12 -15 -9 -19 4 -3 6 1 10 8 8 6 -3 11 -8 11 -12z m-16 -87 c3 -5 1 -10 -4
-10 -6 0 -11 5 -11 10 0 6 2 10 4 10 3 0 8 -4 11 -10z m-1 -51 c-2 -23 -11
-82 -21 -139 -3 -14 -6 -35 -6 -47 -1 -13 -6 -23 -10 -23 -5 0 -8 -10 -7 -22
1 -13 1 -25 0 -28 -1 -3 -4 -16 -6 -29 -2 -14 -11 -39 -20 -55 -8 -17 -22 -51
-31 -75 -14 -41 -43 -84 -43 -63 0 10 18 67 30 97 5 11 11 35 14 52 3 18 14
52 24 75 10 24 27 98 38 166 11 72 23 121 29 119 5 -2 9 -15 9 -28z m-1204
-44 c0 -8 -7 -15 -15 -15 -7 0 -19 -8 -24 -17 -6 -10 -11 -14 -11 -10 0 11 33
56 43 57 4 0 7 -7 7 -15z m140 -50 c0 -6 -9 -16 -20 -22 -17 -11 -19 -10 -14
5 5 14 4 14 -4 2 -6 -8 -8 -18 -5 -22 9 -16 -22 -41 -100 -79 -51 -24 -85 -35
-100 -31 -19 5 -16 8 23 25 58 25 137 79 175 120 28 30 44 31 45 2z m950 11
c0 -23 -16 -27 -17 -5 -1 10 2 19 8 19 5 0 9 -6 9 -14z m-1382 -48 c9 -9 15
-9 24 0 18 18 28 15 28 -9 0 -18 -2 -19 -15 -9 -12 10 -15 10 -15 -4 0 -9 -5
-16 -11 -16 -14 0 -39 25 -39 39 0 14 13 14 28 -1z m1358 -80 c-3 -13 -5 -24
-5 -25 -1 -2 -2 -6 -2 -10 -1 -5 -13 -39 -26 -78 -33 -95 -57 -136 -32 -55 6
19 12 47 15 63 6 44 36 127 45 127 5 0 7 -10 5 -22z m-1256 -48 c0 -5 -7 -10
-16 -10 -8 0 -12 5 -9 10 3 6 10 10 16 10 5 0 9 -4 9 -10z m1045 -22 c3 -13
14 -81 25 -153 11 -71 24 -139 29 -150 17 -39 51 -142 51 -156 0 -10 -17 -14
-65 -15 -57 -1 -65 1 -59 15 13 29 16 145 6 201 -22 120 -37 180 -44 180 -14
0 -8 41 9 71 21 35 41 37 48 7z m-475 -101 c0 -7 -11 -29 -24 -48 -14 -20 -27
-49 -29 -65 -3 -26 -7 -28 -54 -31 -44 -2 -53 1 -78 27 -35 37 -25 53 48 75
29 8 63 24 77 35 28 22 60 26 60 7z m424 -37 l7 -35 -16 34 c-17 37 -20 60 -6
46 5 -6 12 -26 15 -45z m-274 -34 c41 -13 87 -27 103 -30 33 -8 36 -26 4 -26
-26 0 -97 -55 -97 -76 0 -22 -22 -17 -94 24 -71 40 -73 43 -44 115 13 32 9 32
128 -7z m-362 -72 c10 -30 8 -33 -39 -68 -27 -20 -49 -32 -49 -26 0 21 68 137
75 128 1 -2 7 -17 13 -34z m503 -44 c5 0 9 -9 9 -19 0 -11 5 -23 10 -26 8 -5
7 -12 -2 -22 -18 -21 -19 -433 -1 -454 21 -26 27 -87 9 -105 -15 -14 -19 -15
-40 -1 -22 15 -26 14 -57 -9 -18 -13 -37 -24 -41 -24 -14 0 -1 120 22 209 21
83 41 301 28 301 -5 0 -8 -22 -8 -49 0 -126 -47 -323 -86 -360 -15 -15 -16
-13 -11 19 3 19 17 73 32 120 20 65 29 117 34 220 5 93 13 144 24 164 19 34
37 48 55 41 8 -3 18 -5 23 -5z m563 -27 c-3 -21 -7 -44 -9 -50 -2 -7 0 -13 5
-13 6 0 10 7 10 16 0 8 5 12 10 9 12 -7 7 -55 -16 -170 -19 -95 -30 -135 -65
-221 -26 -65 -105 -204 -115 -204 -2 0 5 24 17 53 11 28 28 72 36 97 9 25 20
50 25 56 6 9 78 255 78 270 0 2 -4 4 -10 4 -5 0 -9 -3 -8 -7 1 -9 -2 -19 -36
-108 -28 -70 -51 -87 -40 -29 3 22 10 44 14 49 12 16 48 133 65 213 11 48 21
72 31 72 10 0 13 -9 8 -37z m-953 -46 c20 -15 13 -38 -9 -30 -14 6 -15 4 -4
-9 11 -14 8 -17 -24 -22 -20 -4 -38 -5 -41 -3 -10 11 38 77 55 77 4 0 14 -6
23 -13z m-2111 -97 c19 -44 37 -80 41 -80 3 0 7 -12 7 -27 0 -14 7 -32 16 -38
9 -7 16 -18 16 -25 0 -7 7 -10 15 -6 17 6 21 -9 5 -19 -12 -7 12 -35 30 -35 7
0 9 -7 6 -16 -5 -14 -4 -15 9 -4 13 11 18 10 30 -6 18 -24 18 -31 3 -37 -7 -2
-9 -8 -5 -13 4 -5 12 -2 17 6 8 13 12 12 25 -5 8 -11 13 -28 11 -38 -2 -9 0
-14 6 -11 13 8 39 -27 33 -45 -4 -9 0 -11 11 -7 17 6 57 -21 50 -33 -2 -3 14
-19 35 -36 21 -16 39 -34 39 -40 1 -5 28 -32 62 -60 33 -27 66 -56 73 -62 8
-7 16 -13 20 -13 3 0 16 -11 29 -25 13 -14 28 -25 34 -25 5 0 12 -7 16 -15 3
-8 13 -15 21 -15 9 0 14 -4 11 -9 -5 -7 17 -19 46 -25 4 0 24 -17 46 -36 39
-37 100 -75 187 -120 28 -14 52 -28 53 -32 2 -5 10 -8 18 -8 8 0 14 -4 14 -10
0 -5 7 -10 15 -10 8 0 15 -4 15 -10 0 -5 11 -12 25 -16 14 -3 25 -13 25 -21 0
-11 -7 -13 -27 -8 -42 10 -199 88 -292 144 -46 28 -86 51 -89 51 -11 0 -132
92 -132 101 0 5 -6 9 -13 9 -7 0 -40 22 -73 50 -34 27 -64 46 -67 43 -12 -11
170 -186 282 -271 156 -119 152 -115 117 -107 -15 3 -40 14 -55 24 -14 10 -68
44 -119 76 -51 32 -99 64 -107 71 -7 8 -18 14 -22 14 -15 0 -246 232 -290 291
-42 56 -140 220 -179 299 -47 95 -107 320 -86 320 4 0 23 -36 42 -80z m1837
-6 c3 -9 -7 -28 -27 -49 -30 -31 -32 -38 -27 -79 7 -45 6 -46 -21 -46 -16 0
-46 -9 -68 -19 -40 -20 -64 -14 -64 16 0 14 178 192 193 193 4 0 10 -7 14 -16z
m196 -37 c48 0 87 -3 87 -8 0 -5 -4 -9 -10 -9 -5 0 -25 -14 -45 -31 -27 -24
-35 -39 -35 -65 0 -26 -4 -34 -17 -33 -34 1 -151 35 -167 49 -22 17 -17 50 9
64 11 6 26 19 33 29 10 13 20 16 35 10 12 -4 61 -7 110 -6z m737 -99 c0 -29
-23 -83 -38 -90 -9 -3 -72 -216 -72 -242 0 -9 -4 -16 -10 -16 -5 0 -16 -21
-23 -47 -14 -48 -37 -70 -37 -35 0 11 -5 22 -12 24 -8 3 -7 11 4 29 15 23 48
147 54 199 2 14 9 48 17 75 25 89 28 115 13 109 -19 -7 -32 17 -15 26 8 5 19
9 24 10 6 1 19 9 30 16 17 12 22 11 42 -8 14 -13 23 -33 23 -50z m-576 -30 c3
-24 8 -74 11 -113 8 -94 42 -217 72 -262 24 -36 23 -53 -4 -92 -2 -3 -10 5
-19 17 -15 21 -42 32 -29 12 3 -5 0 -10 -8 -10 -7 0 -26 -13 -42 -30 -16 -16
-39 -30 -52 -30 -29 0 -29 7 0 38 21 22 22 33 23 170 1 152 -4 237 -14 227 -3
-3 -5 -29 -4 -58 l2 -52 -15 54 c-9 30 -20 60 -26 67 -15 19 1 97 24 116 19
14 24 15 49 2 21 -11 28 -23 32 -56z m-2577 -18 c3 -11 9 -20 14 -20 5 0 9 -7
9 -15 0 -8 4 -15 10 -15 5 0 7 -7 4 -15 -4 -8 -1 -15 6 -15 6 0 8 -4 5 -10 -3
-5 -1 -10 4 -10 6 0 11 -9 11 -20 0 -11 5 -20 11 -20 6 0 8 -9 4 -20 -5 -14
-2 -20 10 -20 12 0 15 -6 10 -20 -4 -11 -3 -20 2 -19 20 3 25 -2 13 -16 -10
-12 -9 -15 5 -15 11 0 15 -5 11 -15 -3 -8 -1 -15 5 -15 16 0 33 -21 53 -65 11
-22 32 -56 47 -76 16 -20 29 -42 29 -48 0 -6 5 -11 10 -11 6 0 10 -5 10 -10 0
-6 5 -16 10 -23 39 -47 50 -61 50 -69 0 -20 157 -191 236 -258 45 -38 85 -70
88 -70 3 0 60 -40 128 -90 117 -85 321 -200 381 -214 15 -4 37 -16 48 -27 11
-11 24 -17 28 -14 13 7 34 -22 26 -36 -9 -13 -100 -4 -115 11 -7 7 -99 41
-127 47 -13 3 -23 9 -23 14 0 5 -7 9 -15 9 -8 0 -15 4 -15 10 0 5 -3 9 -7 9
-18 -3 -32 2 -45 15 -13 13 -104 56 -117 56 -3 0 9 -10 27 -21 17 -12 32 -26
32 -31 0 -6 7 -8 15 -4 8 3 15 1 15 -5 0 -5 8 -13 18 -16 9 -4 23 -13 31 -21
7 -7 19 -11 26 -8 8 3 11 -2 8 -13 -5 -18 40 -46 58 -36 5 4 9 0 9 -8 0 -11 7
-13 22 -9 14 3 19 2 14 -6 -7 -12 5 -16 32 -13 6 1 12 -3 12 -9 0 -6 5 -8 10
-5 6 3 10 1 10 -4 0 -26 -86 -11 -155 27 -228 121 -526 391 -724 657 -133 177
-208 312 -251 450 -7 22 -16 45 -21 51 -8 10 -39 128 -39 152 0 20 31 14 37
-8z m-130 -80 c-3 -11 -2 -20 2 -20 4 0 13 -28 21 -62 13 -60 64 -198 96 -263
9 -16 25 -54 36 -82 10 -29 24 -53 29 -53 6 0 8 -4 5 -9 -7 -11 41 -111 54
-111 5 0 7 -7 4 -15 -4 -8 -1 -15 6 -15 6 0 9 -4 5 -9 -8 -15 15 -25 28 -12
14 14 25 14 29 -1 2 -7 51 -86 111 -175 59 -89 107 -166 107 -172 0 -5 11 -19
26 -32 14 -13 56 -70 94 -126 l70 -103 -40 0 c-25 0 -40 5 -41 13 0 9 -2 9 -6
0 -3 -8 -24 -13 -56 -13 -49 0 -53 2 -66 32 -8 18 -16 27 -19 20 -8 -24 -24
-12 -18 14 6 21 4 25 -8 21 -19 -7 -21 4 -4 21 9 9 7 12 -13 13 -13 0 -18 3
-11 6 6 2 12 9 12 15 0 6 -7 7 -16 4 -12 -4 -14 -1 -9 14 5 14 2 20 -10 20 -9
0 -13 5 -9 11 3 6 3 14 -2 18 -5 3 -19 26 -31 51 -26 52 -62 100 -63 84 0 -13
21 -65 56 -141 13 -28 24 -54 24 -57 0 -3 14 -34 30 -68 17 -34 30 -65 30 -70
0 -4 -19 -8 -43 -8 -41 0 -44 2 -74 53 -17 28 -48 87 -69 129 -21 42 -43 74
-48 71 -5 -3 -6 -1 -3 4 8 12 -34 133 -45 133 -11 0 -10 -18 2 -25 12 -7 13
-25 2 -25 -5 0 -15 12 -22 26 -12 21 -12 27 -1 34 11 6 10 16 -7 51 -47 102
-70 156 -76 187 -4 17 -12 32 -18 32 -6 0 -9 3 -5 6 3 4 0 23 -8 43 -24 61
-75 267 -90 359 -21 128 -20 166 8 185 32 23 50 21 44 -3z m2151 -52 c8 -8 6
-18 -10 -40 -12 -18 -20 -44 -20 -68 1 -32 -3 -40 -26 -49 -59 -23 -82 -24
-98 -5 -14 18 -15 16 -11 -21 2 -22 1 -49 -3 -60 -24 -63 -44 -105 -52 -105
-27 0 15 191 50 226 8 9 32 26 53 40 20 13 50 39 64 59 30 38 35 41 53 23z
m170 -48 c49 0 54 -12 13 -30 -28 -11 -55 -51 -63 -93 -3 -17 -5 -17 -38 5
-41 28 -71 75 -54 86 6 4 14 15 17 26 6 15 14 17 45 12 20 -3 56 -6 80 -6z
m-2503 -40 c3 -5 6 -25 7 -45 1 -19 6 -35 11 -35 5 0 7 -11 5 -25 -3 -14 -1
-28 4 -31 5 -3 7 -12 4 -20 -3 -7 1 -26 9 -41 8 -15 15 -34 15 -41 0 -9 7 -11
20 -7 11 4 20 2 20 -4 0 -6 -7 -11 -15 -11 -8 0 -15 -5 -15 -11 0 -7 10 -9 25
-5 19 5 25 2 25 -10 0 -10 -5 -14 -15 -11 -8 4 -17 2 -20 -3 -4 -6 1 -10 10
-10 12 0 15 -6 10 -22 -6 -18 -4 -20 11 -14 15 6 17 5 7 -5 -18 -19 -16 -39 5
-40 10 0 12 -3 5 -6 -18 -7 -16 -23 3 -23 14 0 14 -3 4 -15 -10 -12 -9 -15 6
-15 13 0 15 -3 7 -11 -8 -8 -7 -18 3 -37 8 -15 14 -35 14 -44 0 -10 5 -18 10
-18 6 0 10 -11 10 -25 0 -14 5 -25 11 -25 5 0 8 -4 4 -10 -3 -5 -1 -17 4 -27
22 -40 41 -87 41 -100 0 -7 5 -13 10 -13 6 0 10 5 10 11 0 5 5 7 10 4 15 -9
12 -25 -5 -25 -13 0 -14 -4 -4 -21 9 -17 13 -19 20 -8 7 11 11 11 21 1 10 -10
9 -14 -8 -18 -20 -5 -20 -7 -5 -40 14 -32 31 -45 31 -24 0 6 5 10 10 10 14 0
12 -27 -2 -33 -10 -4 -10 -7 0 -18 6 -7 12 -22 12 -32 0 -14 5 -17 16 -13 14
5 15 4 5 -8 -10 -12 -7 -23 14 -56 14 -22 30 -52 35 -65 9 -24 8 -25 -30 -25
-22 0 -40 5 -40 10 0 6 -5 10 -11 10 -5 0 -7 -4 -4 -10 10 -17 -84 -12 -102 5
-8 8 -18 13 -23 10 -4 -3 -10 1 -13 9 -4 10 1 13 16 10 12 -2 16 -2 10 2 -7 3
-27 36 -44 72 -18 37 -36 69 -41 70 -4 2 -6 7 -3 12 3 5 -15 47 -39 94 -25 48
-45 89 -46 91 0 3 -2 10 -5 17 -2 7 -9 31 -16 53 -6 22 -15 45 -19 50 -4 6
-13 36 -20 68 -7 31 -16 57 -19 57 -3 0 -7 11 -7 25 -1 14 -5 33 -9 43 -4 9
-9 24 -10 32 -2 8 -15 82 -29 164 -15 82 -24 156 -21 165 5 14 79 68 97 70 4
1 9 -3 13 -9z m2579 -36 c9 -8 18 -25 20 -37 37 -178 54 -227 106 -317 11 -19
20 -43 20 -53 0 -16 -5 -18 -41 -12 -38 7 -43 5 -69 -26 -29 -35 -54 -33 -32
1 15 25 15 30 0 30 -10 0 -13 29 -12 112 0 62 -1 84 -2 48 -5 -92 -14 -150
-23 -150 -4 0 -11 51 -14 113 -3 62 -13 133 -22 159 -18 55 -8 120 23 137 23
14 28 13 46 -5z m1490 8 c3 -5 -2 -28 -10 -52 -8 -24 -13 -54 -9 -67 3 -14 1
-23 -6 -23 -6 0 -9 -7 -5 -15 3 -8 1 -15 -4 -15 -5 0 -7 -7 -4 -15 4 -8 1 -15
-6 -15 -9 0 -6 -8 6 -21 19 -22 19 -22 -3 -10 -16 8 -23 8 -23 1 0 -6 7 -13
15 -16 17 -7 19 -22 6 -43 -8 -12 -12 -12 -25 -2 -9 8 -16 9 -16 3 0 -5 7 -12
15 -16 8 -3 15 -11 15 -17 0 -8 -4 -8 -15 1 -9 7 -18 10 -22 6 -4 -3 2 -13 13
-20 10 -8 16 -18 12 -22 -4 -4 -14 -1 -23 6 -8 7 -15 9 -15 5 0 -4 7 -13 15
-19 14 -10 13 -16 -2 -56 -10 -25 -23 -51 -29 -57 -7 -7 -14 -18 -16 -25 -4
-10 -8 -10 -21 1 -22 18 -22 3 1 -22 16 -19 16 -20 -6 -14 -17 4 -21 2 -13 -6
14 -18 -21 -91 -37 -75 -6 6 -14 9 -17 6 -3 -3 2 -13 12 -23 16 -17 16 -17 -5
-11 -18 6 -23 2 -28 -21 -4 -15 -12 -31 -18 -35 -8 -5 -7 -8 2 -8 6 0 12 -7
12 -15 0 -18 -16 -20 -23 -2 -4 9 -6 9 -6 0 -1 -6 4 -15 9 -18 6 -3 10 -14 10
-23 -1 -14 -4 -13 -20 7 -12 14 -20 18 -20 10 0 -8 -7 -27 -15 -43 -9 -16 -13
-38 -9 -49 8 -26 -84 -163 -99 -148 -8 8 -1 21 21 44 18 18 32 38 32 45 0 7 5
12 10 12 6 0 10 6 10 14 0 8 6 16 13 19 6 2 9 8 5 12 -7 7 -38 -17 -38 -30 0
-11 -28 -35 -40 -35 -6 0 -8 -5 -5 -10 7 -11 -18 -48 -78 -115 -20 -22 -37
-43 -37 -47 0 -5 -19 -8 -42 -8 l-42 0 32 33 c18 18 32 36 32 41 0 4 17 28 39
54 21 26 55 70 75 97 51 71 216 347 216 362 0 7 15 43 34 80 46 91 97 217 136
336 30 90 41 109 54 89z m-316 -165 c-9 -23 -19 -50 -23 -59 -4 -11 -3 -18 5
-18 6 0 8 5 4 12 -4 6 -3 8 4 4 8 -5 8 -15 0 -39 -14 -42 -15 -42 -33 -27 -20
17 -19 1 2 -22 11 -12 12 -18 3 -18 -7 0 -10 -7 -6 -16 5 -13 2 -15 -15 -11
-16 4 -19 3 -10 -6 18 -18 13 -29 -11 -22 -20 5 -21 4 -5 -5 26 -17 20 -31
-10 -24 l-28 6 25 -21 c28 -23 24 -26 -15 -11 -24 9 -25 8 -15 -10 6 -11 16
-20 22 -20 6 0 9 -3 6 -6 -4 -3 -16 -1 -27 6 -24 12 -26 8 -10 -23 9 -18 9
-20 -2 -9 -22 21 -32 13 -16 -12 15 -23 15 -24 -3 -19 -11 3 -17 10 -13 17 3
6 0 5 -8 -2 -12 -11 -11 -15 4 -26 9 -7 17 -19 17 -27 0 -10 -3 -10 -12 -1
-17 17 -38 15 -38 -3 0 -8 -5 -15 -11 -15 -6 0 -9 -7 -6 -14 4 -10 1 -13 -9
-9 -18 7 -18 -4 1 -23 23 -23 18 -40 -5 -19 -11 10 -22 16 -25 13 -3 -3 1 -11
10 -18 16 -13 21 -31 8 -28 -5 1 -18 -1 -30 -6 -21 -7 -27 -19 -26 -53 1 -17
-7 -16 -29 4 -17 15 -18 15 -18 0 0 -10 -4 -17 -9 -17 -5 0 -27 -17 -48 -38
-41 -42 -121 -89 -91 -55 8 10 22 27 31 38 9 11 46 56 82 100 142 171 297 419
359 576 13 32 20 39 29 30 8 -8 7 -21 -5 -54z m-548 3 c31 -44 31 -94 -1 -119
-31 -24 -81 -123 -104 -206 -9 -33 -25 -87 -36 -120 -10 -33 -28 -96 -39 -139
-12 -44 -29 -98 -39 -120 -11 -23 -21 -50 -23 -61 -2 -11 -11 -21 -21 -23 -14
-3 -17 4 -17 33 0 49 25 143 55 210 14 30 25 64 25 78 0 13 11 57 25 97 29 85
29 83 13 74 -7 -4 -6 1 3 12 9 10 21 44 27 74 9 46 8 57 -4 67 -14 10 -13 13
3 22 17 10 17 10 1 11 -21 0 -23 11 -5 30 10 12 9 12 -6 1 -25 -20 -34 -5 -11
20 10 11 19 28 19 36 0 17 60 52 92 53 13 0 30 -12 43 -30z m-3411 -110 c12
-52 24 -104 26 -115 7 -44 26 -77 39 -72 8 3 17 -1 20 -9 4 -9 0 -14 -9 -12
-7 2 -13 -1 -12 -7 1 -5 8 -9 15 -9 6 1 12 -3 12 -8 0 -6 9 -8 19 -5 13 3 21
-1 24 -15 4 -15 1 -18 -15 -12 -17 5 -19 3 -14 -18 3 -12 -1 -8 -10 11 -17 38
-30 35 -20 -4 4 -15 17 -30 31 -35 27 -10 34 -30 10 -30 -8 0 -15 -7 -15 -16
0 -10 5 -14 16 -10 8 3 12 2 9 -3 -3 -5 -1 -12 5 -16 5 -3 10 -12 10 -18 0 -8
-3 -8 -9 2 -6 9 -11 10 -15 2 -4 -6 -1 -14 7 -17 8 -3 13 -13 10 -23 -3 -10 2
-25 9 -32 8 -7 12 -23 10 -36 -3 -18 -1 -22 12 -17 11 4 16 1 16 -11 0 -9 -4
-13 -10 -10 -5 3 -10 2 -10 -4 0 -5 4 -12 9 -16 5 -3 12 -19 16 -35 4 -17 10
-28 13 -26 4 2 7 -10 8 -27 0 -18 12 -62 26 -99 l26 -68 -82 0 -82 0 -27 59
c-15 32 -27 61 -27 64 0 3 -5 18 -12 34 -14 34 -13 31 -23 68 -4 17 -10 35
-14 40 -3 6 -4 20 -2 32 2 17 -1 21 -13 17 -11 -4 -14 -14 -10 -33 7 -31 31
-123 46 -171 5 -19 10 -43 11 -52 1 -10 5 -18 9 -18 4 0 8 -9 8 -20 0 -17 -7
-20 -40 -20 -33 0 -40 3 -40 19 0 11 -5 23 -10 26 -6 4 -8 11 -4 16 3 5 0 16
-6 24 -6 8 -9 19 -5 25 4 6 1 17 -5 25 -7 8 -9 15 -5 15 4 0 2 7 -5 15 -6 8
-9 19 -5 25 3 5 1 10 -5 10 -7 0 -10 7 -7 15 4 8 2 17 -4 20 -5 4 -9 12 -8 18
3 17 -17 58 -41 86 -36 42 -45 16 -32 -90 6 -50 15 -96 20 -102 8 -10 32 -115
32 -139 0 -4 -36 -8 -80 -8 -85 0 -81 -2 -85 50 0 8 -4 21 -9 28 -4 7 -5 19
-2 27 3 8 1 15 -3 15 -5 0 -9 10 -9 23 0 12 -9 70 -21 129 -12 58 -21 110 -20
115 5 17 -14 103 -23 109 -5 3 -5 11 2 19 14 17 -7 32 -22 17 -11 -11 -4 -386
8 -484 5 -40 3 -48 -10 -48 -15 0 -21 17 -17 47 1 7 -3 13 -9 13 -6 0 -9 4 -5
10 8 13 -5 58 -19 63 -8 3 -11 -15 -11 -64 l1 -69 -43 0 c-30 0 -43 4 -43 14
0 152 39 562 61 639 18 65 68 109 181 160 149 67 272 114 279 108 4 -3 16 -49
28 -101z m4461 74 c0 -3 -5 -2 -12 2 -8 5 -9 2 -4 -11 4 -11 2 -22 -6 -27 -9
-5 -10 -8 -1 -8 9 0 8 -8 -2 -27 -9 -17 -11 -29 -5 -31 6 -2 10 -8 10 -13 0
-6 -5 -7 -12 -3 -7 4 -8 3 -4 -4 4 -6 0 -25 -9 -42 -9 -17 -13 -35 -10 -40 3
-6 2 -10 -3 -10 -12 0 -11 -33 2 -43 7 -6 5 -7 -6 -4 -20 7 -33 -33 -15 -45 8
-5 5 -8 -7 -8 -16 0 -17 -3 -8 -12 18 -18 14 -30 -8 -23 -11 4 -20 2 -20 -4 0
-6 7 -11 15 -11 24 0 17 -30 -7 -31 -16 -1 -18 -3 -7 -6 26 -6 9 -56 -22 -64
l-24 -7 23 -1 c14 -1 22 -6 19 -13 -2 -7 -14 -12 -26 -11 -11 2 -21 -2 -21 -7
0 -6 6 -10 13 -11 6 -1 1 -5 -13 -9 -17 -5 -19 -8 -7 -9 9 -1 17 -7 17 -15 0
-18 -25 -38 -35 -28 -4 4 -4 -3 -1 -15 5 -15 3 -23 -4 -23 -7 0 -10 -7 -7 -14
4 -11 1 -13 -10 -9 -12 5 -15 2 -10 -10 4 -10 2 -17 -5 -17 -7 0 -7 -4 1 -14
18 -21 3 -48 -23 -40 -21 6 -21 6 -1 -9 11 -9 17 -19 13 -23 -4 -4 -16 -1 -25
7 -14 11 -13 8 2 -10 l20 -24 -22 7 c-18 6 -25 1 -37 -23 -20 -37 -20 -41 -1
-41 18 0 18 -2 3 -35 -15 -33 -32 -32 -24 1 6 24 6 25 -9 10 -9 -9 -13 -20
-10 -26 4 -6 -11 -10 -40 -10 l-45 0 40 63 c76 117 140 254 215 462 10 28 22
55 26 60 10 13 49 133 79 240 12 44 24 83 27 88 4 7 43 -9 43 -19z m-1989 -55
c-11 -15 -21 -33 -21 -39 0 -12 -77 -161 -91 -175 -11 -11 -12 -25 -1 -25 4 0
12 10 18 23 50 99 82 154 97 166 10 7 16 20 13 28 -4 10 -2 13 8 10 10 -4 13
-1 9 9 -8 22 25 17 37 -6 12 -22 10 -25 -93 -207 -26 -45 -47 -86 -47 -90 0
-4 -25 -48 -55 -98 -107 -179 -213 -361 -229 -397 l-18 -36 -94 -1 c-52 0 -94
1 -94 2 0 7 74 143 118 217 135 227 189 321 223 390 29 60 53 89 114 144 42
38 82 81 88 95 14 31 30 45 36 30 2 -6 -6 -24 -18 -40z m2134 15 c27 -17 34
-40 11 -31 -8 3 -17 -1 -20 -10 -5 -11 -2 -14 10 -9 14 5 15 2 9 -21 -13 -47
-23 -118 -18 -125 2 -5 -1 -8 -7 -8 -7 0 -9 -7 -6 -16 5 -13 1 -15 -21 -9 -27
6 -27 6 -8 -9 17 -13 18 -17 6 -25 -12 -8 -12 -12 -2 -25 8 -9 9 -16 4 -16
-13 0 -33 -68 -26 -87 5 -12 1 -14 -15 -8 -20 6 -32 -8 -14 -18 4 -2 2 -2 -5
-1 -6 2 -16 -3 -21 -9 -9 -12 -37 -88 -35 -97 0 -3 4 -15 7 -27 6 -18 4 -21
-15 -16 -16 5 -20 3 -15 -6 5 -7 1 -20 -7 -29 -20 -23 -26 -68 -9 -64 8 1 11
-2 7 -8 -4 -6 -13 -9 -21 -6 -17 7 -19 -20 -1 -28 6 -3 2 -3 -10 -1 -17 5 -22
0 -28 -24 -4 -17 -3 -36 1 -43 6 -9 3 -9 -9 1 -14 11 -17 11 -17 -1 0 -8 5
-19 11 -25 8 -8 6 -11 -7 -10 -11 1 -23 -8 -29 -20 -7 -17 -18 -23 -43 -23
l-34 0 38 68 c84 149 131 262 210 502 25 74 49 144 54 155 5 11 14 40 20 65
23 92 19 88 55 64z m-1441 -87 c22 -45 15 -113 -10 -103 -9 3 -12 1 -9 -4 3
-6 2 -10 -3 -10 -5 0 -9 -6 -10 -12 -1 -7 -5 -32 -8 -56 -3 -23 -10 -45 -15
-48 -5 -3 -9 -18 -9 -33 0 -39 -89 -382 -106 -408 -8 -13 -24 -23 -35 -23 -18
0 -20 4 -14 27 4 16 7 38 8 51 1 12 6 22 10 22 11 0 25 42 20 57 -3 7 -12 13
-21 13 -12 0 -11 5 6 23 12 13 19 27 15 31 -5 4 -1 6 7 4 10 -2 14 3 12 15 -2
10 2 25 9 33 14 17 -2 19 -21 2 -8 -7 -5 -1 8 13 26 30 28 43 5 35 -12 -4 -10
1 6 15 19 15 22 22 12 28 -10 6 -10 10 -1 16 6 4 9 14 5 23 -3 8 0 19 7 24 10
6 8 8 -4 8 -11 0 -18 8 -18 20 0 12 7 20 17 20 13 0 14 3 5 12 -15 15 -16 32
-2 23 6 -3 10 1 10 9 0 8 -6 19 -14 23 -18 10 -26 69 -8 66 6 -2 12 1 12 7 0
6 -5 10 -11 10 -6 0 -9 7 -5 15 3 8 1 15 -4 15 -6 0 -10 7 -10 16 0 8 4 13 9
10 11 -7 65 19 82 40 21 25 52 12 73 -29z m1582 -9 c-10 -83 -15 -111 -21
-116 -2 -3 0 -11 6 -19 9 -10 8 -17 -2 -30 -9 -11 -10 -14 -2 -9 9 5 11 2 7
-8 -3 -9 -10 -13 -15 -10 -13 8 -11 -10 3 -24 9 -9 9 -12 0 -12 -6 0 -9 -7 -6
-15 4 -8 2 -15 -3 -15 -5 0 -9 -9 -9 -20 0 -11 4 -20 7 -20 8 0 3 -37 -10 -72
-4 -13 -6 -29 -4 -35 3 -7 -2 -16 -11 -19 -8 -3 -12 -12 -9 -22 4 -13 2 -12
-10 3 -14 17 -16 18 -17 3 0 -9 8 -21 18 -27 13 -7 14 -13 5 -22 -6 -6 -9 -18
-6 -25 3 -8 0 -14 -6 -14 -6 0 -8 -7 -5 -15 4 -8 1 -15 -6 -15 -6 0 -8 -4 -5
-10 3 -5 1 -10 -6 -10 -6 0 -9 -8 -6 -20 3 -10 0 -21 -6 -23 -6 -2 -10 -17
-10 -35 0 -18 -4 -29 -10 -25 -6 4 -8 0 -4 -10 3 -9 2 -19 -4 -22 -5 -4 -6
-11 -3 -17 10 -15 -16 -28 -59 -28 -42 0 -43 5 -11 75 35 76 117 364 160 559
30 137 39 166 54 166 7 0 9 -15 6 -42z m-4631 12 c3 -5 1 -10 -4 -10 -6 0 -11
5 -11 10 0 6 2 10 4 10 3 0 8 -4 11 -10z m2479 -52 c-4 -13 -10 -25 -14 -28
-4 -3 -13 -22 -19 -42 -7 -21 -17 -38 -22 -38 -5 0 -9 -6 -9 -14 0 -8 -4 -16
-8 -18 -4 -1 -20 -29 -35 -60 -15 -31 -31 -58 -35 -60 -4 -2 -18 -25 -31 -53
-14 -27 -27 -52 -30 -55 -6 -5 -19 -32 -52 -105 -7 -16 -24 -46 -38 -65 -31
-42 -70 -108 -78 -132 -3 -10 -9 -18 -14 -18 -5 0 -9 -7 -9 -15 0 -9 -9 -15
-25 -15 l-25 0 42 82 c23 46 49 94 58 108 69 102 165 263 232 389 16 30 38 61
48 68 11 8 20 21 20 29 0 8 5 14 10 14 6 0 10 5 10 10 0 10 21 39 28 40 2 0 0
-10 -4 -22z m-2527 -43 c0 -8 -4 -15 -8 -15 -11 0 -20 16 -12 24 11 11 20 7
20 -9z m1309 -26 c22 -17 57 -42 79 -55 22 -13 49 -35 59 -49 10 -14 24 -25
31 -25 7 0 15 -7 19 -15 3 -8 12 -15 21 -15 8 0 15 -4 15 -10 0 -5 4 -10 9
-10 5 0 38 -18 72 -40 35 -22 85 -51 111 -65 50 -26 68 -45 45 -45 -25 0 -240
111 -297 153 -75 55 -199 166 -211 189 -14 27 3 22 47 -13z m-686 -10 c0 -5
-7 -9 -15 -9 -9 0 -12 6 -9 15 6 15 24 11 24 -6z m-564 -36 c-7 -7 -26 7 -26
19 0 6 6 6 15 -2 9 -7 13 -15 11 -17z m34 -4 c0 -6 -4 -7 -10 -4 -5 3 -10 11
-10 16 0 6 5 7 10 4 6 -3 10 -11 10 -16z m280 -10 c0 -5 -4 -9 -10 -9 -5 0
-10 7 -10 16 0 8 5 12 10 9 6 -3 10 -10 10 -16z m2490 -79 c0 -17 -8 -34 -20
-43 -46 -32 -58 -98 -59 -319 l-1 -148 -86 0 c-84 0 -85 0 -78 22 4 12 21 45
39 73 35 53 52 105 36 105 -6 0 -15 -17 -20 -37 -6 -21 -26 -61 -46 -90 -19
-29 -35 -57 -35 -63 0 -5 -9 -10 -21 -10 -17 0 -19 4 -13 23 3 12 14 33 24 47
10 14 30 50 46 80 26 51 29 65 31 185 2 72 6 139 8 151 4 17 52 50 63 44 2 -1
16 9 30 23 15 13 34 27 42 30 22 7 60 -39 60 -73z m-2765 60 c3 -5 1 -10 -4
-10 -6 0 -11 5 -11 10 0 6 2 10 4 10 3 0 8 -4 11 -10z m4758 -32 c12 -47 36
-236 43 -328 3 -52 11 -100 16 -107 5 -6 8 -31 6 -55 l-3 -43 -45 -2 c-25 -1
-39 0 -31 4 11 5 11 7 0 14 -12 8 -11 11 1 19 13 9 13 11 0 20 -13 9 -13 11 0
20 13 9 13 11 0 20 -13 9 -13 11 0 20 13 9 13 11 0 20 -13 9 -13 11 0 20 8 5
11 10 5 10 -6 0 -11 57 -12 148 -3 232 -3 242 7 242 4 0 10 -10 13 -22z
m-4708 -85 c4 -14 2 -23 -4 -23 -6 0 -11 9 -11 20 0 13 -5 18 -15 14 -8 -4
-15 -1 -15 6 0 6 5 8 10 5 6 -3 10 -1 10 6 0 18 16 -1 25 -28z m3837 -38 c0
-5 -5 -11 -11 -13 -6 -2 -11 4 -11 13 0 9 5 15 11 13 6 -2 11 -8 11 -13z
m-3832 -51 c0 -8 -4 -12 -10 -9 -5 3 -10 10 -10 16 0 5 5 9 10 9 6 0 10 -7 10
-16z m3770 -75 c0 -6 -4 -7 -10 -4 -5 3 -10 11 -10 16 0 6 5 7 10 4 6 -3 10
-11 10 -16z m815 -25 c0 -10 -4 -23 -10 -27 -7 -6 -6 -10 1 -13 13 -6 6 -54
-8 -54 -5 0 -7 -8 -3 -19 3 -10 1 -31 -5 -46 -8 -21 -8 -30 1 -35 7 -5 8 -10
1 -14 -6 -3 -9 -17 -7 -31 2 -23 -1 -25 -36 -25 -26 0 -37 4 -34 12 2 7 13 53
25 103 12 50 25 99 30 110 5 11 12 30 15 43 8 27 30 24 30 -4z m-2244 -107
c-5 -13 -20 -39 -33 -59 -14 -20 -31 -50 -38 -67 -15 -37 -45 -44 -35 -8 4 12
19 39 33 61 15 21 35 51 45 67 23 35 40 39 28 6z m-1931 -17 c0 -5 -4 -10 -10
-10 -5 0 -10 5 -10 10 0 6 5 10 10 10 6 0 10 -4 10 -10z m40 -21 c0 -5 -4 -9
-10 -9 -5 0 -10 7 -10 16 0 8 5 12 10 9 6 -3 10 -10 10 -16z m1903 -19 c-3
-11 -9 -22 -13 -25 -5 -3 -6 -14 -3 -25 3 -12 0 -20 -7 -20 -7 0 -10 -7 -6
-15 4 -11 -1 -15 -19 -15 -14 0 -25 2 -25 5 0 8 41 88 52 103 16 19 27 14 21
-8z m1617 -10 c0 -11 -4 -20 -10 -20 -5 0 -10 9 -10 20 0 11 5 20 10 20 6 0
10 -9 10 -20z m-350 -3 c0 -18 -63 -87 -80 -87 -8 0 1 15 23 38 20 21 37 43
37 50 0 7 5 12 10 12 6 0 10 -6 10 -13z m-740 -46 c17 -32 12 -41 -25 -41 -39
0 -39 0 -23 35 13 30 33 32 48 6z m-1790 -39 c-17 -6 -42 7 -35 18 4 6 13 5
26 -3 10 -6 15 -13 9 -15z"/>
<path d="M3940 6671 c0 -5 5 -13 10 -16 6 -3 10 -2 10 4 0 5 -4 13 -10 16 -5
3 -10 2 -10 -4z"/>
<path d="M3991 6664 c0 -11 3 -14 6 -6 3 7 2 16 -1 19 -3 4 -6 -2 -5 -13z"/>
<path d="M4026 6664 c-9 -22 3 -32 14 -14 12 19 12 30 1 30 -5 0 -12 -7 -15
-16z"/>
<path d="M3815 6540 c3 -5 8 -10 11 -10 2 0 4 5 4 10 0 6 -5 10 -11 10 -5 0
-7 -4 -4 -10z"/>
<path d="M4140 6360 c0 -5 5 -10 10 -10 6 0 10 5 10 10 0 6 -4 10 -10 10 -5 0
-10 -4 -10 -10z"/>
<path d="M3580 5370 c0 -5 5 -10 10 -10 6 0 10 5 10 10 0 6 -4 10 -10 10 -5 0
-10 -4 -10 -10z"/>
<path d="M3621 5354 c0 -11 3 -14 6 -6 3 7 2 16 -1 19 -3 4 -6 -2 -5 -13z"/>
<path d="M3647 5343 c-4 -3 -7 -11 -7 -17 0 -6 5 -5 12 2 6 6 9 14 7 17 -3 3
-9 2 -12 -2z"/>
<path d="M3010 5100 c0 -5 5 -10 10 -10 6 0 10 5 10 10 0 6 -4 10 -10 10 -5 0
-10 -4 -10 -10z"/>
<path d="M2966 5073 c-11 -11 -6 -23 9 -23 8 0 15 4 15 9 0 13 -16 22 -24 14z"/>
<path d="M3265 5050 c3 -5 8 -10 11 -10 2 0 4 5 4 10 0 6 -5 10 -11 10 -5 0
-7 -4 -4 -10z"/>
<path d="M2830 5041 c0 -6 5 -13 10 -16 6 -3 10 1 10 9 0 9 -4 16 -10 16 -5 0
-10 -4 -10 -9z"/>
<path d="M3210 5010 c-8 -5 -11 -12 -7 -16 4 -4 13 -2 19 4 15 15 7 24 -12 12z"/>
<path d="M4235 4960 c15 -16 32 -27 37 -24 8 5 -43 54 -58 54 -4 0 5 -13 21
-30z"/>
<path d="M2990 4970 c0 -5 5 -10 10 -10 6 0 10 5 10 10 0 6 -4 10 -10 10 -5 0
-10 -4 -10 -10z"/>
<path d="M2960 4950 c0 -5 5 -10 11 -10 5 0 7 5 4 10 -3 6 -8 10 -11 10 -2 0
-4 -4 -4 -10z"/>
<path d="M2935 4920 c3 -5 8 -10 11 -10 2 0 4 5 4 10 0 6 -5 10 -11 10 -5 0
-7 -4 -4 -10z"/>
<path d="M2215 3680 c3 -5 8 -10 11 -10 2 0 4 5 4 10 0 6 -5 10 -11 10 -5 0
-7 -4 -4 -10z"/>
<path d="M2150 3470 c0 -5 5 -10 10 -10 6 0 10 5 10 10 0 6 -4 10 -10 10 -5 0
-10 -4 -10 -10z"/>
<path d="M2140 3430 c0 -5 5 -10 10 -10 6 0 10 5 10 10 0 6 -4 10 -10 10 -5 0
-10 -4 -10 -10z"/>
<path d="M2110 3260 c0 -5 5 -10 10 -10 6 0 10 5 10 10 0 6 -4 10 -10 10 -5 0
-10 -4 -10 -10z"/>
<path d="M1840 2630 c0 -5 5 -10 10 -10 6 0 10 5 10 10 0 6 -4 10 -10 10 -5 0
-10 -4 -10 -10z"/>
<path d="M1840 2579 c0 -5 5 -7 10 -4 6 3 10 8 10 11 0 2 -4 4 -10 4 -5 0 -10
-5 -10 -11z"/>
<path d="M1840 2480 c0 -5 5 -10 10 -10 6 0 10 5 10 10 0 6 -4 10 -10 10 -5 0
-10 -4 -10 -10z"/>
<path d="M1840 2440 c0 -5 5 -10 10 -10 6 0 10 5 10 10 0 6 -4 10 -10 10 -5 0
-10 -4 -10 -10z"/>
<path d="M1845 2400 c-3 -5 1 -10 10 -10 9 0 13 5 10 10 -3 6 -8 10 -10 10 -2
0 -7 -4 -10 -10z"/>
<path d="M1850 2354 c0 -8 5 -12 10 -9 6 3 10 10 10 16 0 5 -4 9 -10 9 -5 0
-10 -7 -10 -16z"/>
<path d="M1865 2260 c3 -5 8 -10 11 -10 2 0 4 5 4 10 0 6 -5 10 -11 10 -5 0
-7 -4 -4 -10z"/>
<path d="M1868 2233 c7 -3 16 -2 19 1 4 3 -2 6 -13 5 -11 0 -14 -3 -6 -6z"/>
<path d="M1875 2180 c-3 -5 -1 -10 4 -10 6 0 11 5 11 10 0 6 -2 10 -4 10 -3 0
-8 -4 -11 -10z"/>
<path d="M1880 2149 c0 -5 5 -7 10 -4 6 3 10 8 10 11 0 2 -4 4 -10 4 -5 0 -10
-5 -10 -11z"/>
<path d="M3115 880 c-3 -5 -2 -10 4 -10 5 0 13 5 16 10 3 6 2 10 -4 10 -5 0
-13 -4 -16 -10z"/>
<path d="M3502 4345 c0 -16 2 -22 5 -12 2 9 2 23 0 30 -3 6 -5 -1 -5 -18z"/>
<path d="M3360 4335 c0 -15 4 -24 10 -20 6 3 10 12 10 20 0 8 -4 17 -10 20 -6
4 -10 -5 -10 -20z"/>
<path d="M3410 4335 c0 -15 4 -24 10 -20 6 3 10 12 10 20 0 8 -4 17 -10 20 -6
4 -10 -5 -10 -20z"/>
<path d="M3450 4340 c0 -11 5 -20 10 -20 6 0 10 9 10 20 0 11 -4 20 -10 20 -5
0 -10 -9 -10 -20z"/>
<path d="M3537 4346 c-3 -8 1 -20 9 -26 12 -10 14 -8 14 14 0 28 -14 35 -23
12z"/>
<path d="M3590 4335 c0 -15 4 -24 10 -20 6 3 10 12 10 20 0 8 -4 17 -10 20 -6
4 -10 -5 -10 -20z"/>
<path d="M3630 4331 c0 -17 5 -31 10 -31 6 0 10 11 10 24 0 14 -4 28 -10 31
-6 4 -10 -7 -10 -24z"/>
<path d="M3650 4238 c0 -9 5 -20 10 -23 13 -8 13 5 0 25 -8 13 -10 13 -10 -2z"/>
<path d="M3687 4244 c-8 -8 3 -34 14 -34 11 0 12 27 0 34 -4 3 -11 3 -14 0z"/>
<path d="M3727 4244 c-8 -8 3 -34 14 -34 11 0 12 27 0 34 -4 3 -11 3 -14 0z"/>
<path d="M3140 4220 c0 -13 5 -20 13 -17 6 2 12 10 12 17 0 7 -6 15 -12 18 -8
2 -13 -5 -13 -18z"/>
<path d="M3190 4220 c0 -11 5 -20 10 -20 6 0 10 9 10 20 0 11 -4 20 -10 20 -5
0 -10 -9 -10 -20z"/>
<path d="M3230 4225 c0 -8 5 -15 10 -15 6 0 10 7 10 15 0 8 -4 15 -10 15 -5 0
-10 -7 -10 -15z"/>
<path d="M3270 4225 c0 -8 5 -15 10 -15 6 0 10 7 10 15 0 8 -4 15 -10 15 -5 0
-10 -7 -10 -15z"/>
<path d="M3310 4230 c0 -5 5 -10 10 -10 6 0 10 5 10 10 0 6 -4 10 -10 10 -5 0
-10 -4 -10 -10z"/>
<path d="M3360 4230 c0 -5 5 -10 10 -10 6 0 10 5 10 10 0 6 -4 10 -10 10 -5 0
-10 -4 -10 -10z"/>
<path d="M2940 4090 c0 -11 5 -20 10 -20 6 0 10 9 10 20 0 11 -4 20 -10 20 -5
0 -10 -9 -10 -20z"/>
<path d="M2980 4095 c0 -8 5 -15 10 -15 6 0 10 7 10 15 0 8 -4 15 -10 15 -5 0
-10 -7 -10 -15z"/>
<path d="M3971 4094 c0 -11 3 -14 6 -6 3 7 2 16 -1 19 -3 4 -6 -2 -5 -13z"/>
<path d="M3215 3990 c3 -5 11 -10 16 -10 6 0 7 5 4 10 -3 6 -11 10 -16 10 -6
0 -7 -4 -4 -10z"/>
<path d="M3735 3980 c-3 -5 1 -10 9 -10 9 0 16 5 16 10 0 6 -4 10 -9 10 -6 0
-13 -4 -16 -10z"/>
<path d="M3402 3528 c-20 -25 -51 -105 -67 -175 -9 -40 -21 -73 -27 -73 -5 0
-6 -4 -3 -10 3 -5 10 -10 14 -10 10 0 61 115 61 138 0 11 13 46 30 78 16 32
30 60 30 62 0 8 -29 0 -38 -10z"/>
<path d="M3550 3529 c0 -6 9 -23 20 -38 10 -15 28 -59 39 -97 24 -85 55 -156
92 -211 16 -23 29 -51 29 -62 0 -13 6 -21 16 -21 10 0 14 -6 11 -14 -3 -8 -1
-16 6 -19 9 -3 9 -10 0 -30 -8 -16 -9 -27 -3 -27 6 0 10 4 10 9 0 15 111 132
145 153 27 16 28 18 8 18 -13 0 -23 5 -23 10 0 14 -37 12 -43 -2 -3 -7 -6 -3
-6 10 -1 31 -14 28 -51 -14 -17 -20 -34 -33 -38 -29 -4 4 -1 10 6 12 6 3 12
10 12 16 0 6 10 21 22 34 l21 23 -31 11 c-18 6 -32 15 -32 21 0 6 -7 8 -14 5
-11 -4 -13 -1 -9 10 5 13 2 15 -11 10 -14 -5 -17 -3 -12 8 3 8 1 15 -4 15 -6
0 -10 -4 -10 -10 0 -31 -40 28 -44 65 -1 6 -5 16 -10 24 -6 10 -5 12 2 7 7 -4
12 -2 12 3 0 6 -6 11 -14 11 -8 0 -18 10 -21 23 -15 48 -75 109 -75 76z m275
-359 c-7 -21 10 -29 18 -7 2 6 8 9 12 5 4 -4 -7 -21 -24 -38 -22 -23 -36 -30
-51 -25 -11 4 -18 11 -14 16 3 5 15 7 26 3 18 -5 20 -3 15 16 -6 25 1 50 15
50 5 0 6 -9 3 -20z"/>
<path d="M2655 3460 c-3 -5 1 -10 9 -10 9 0 16 5 16 10 0 6 -4 10 -9 10 -6 0
-13 -4 -16 -10z"/>
<path d="M2660 3420 c-9 -6 -10 -10 -3 -10 6 0 15 5 18 10 8 12 4 12 -15 0z"/>
<path d="M3447 3392 c-10 -10 -28 -47 -43 -81 -14 -35 -38 -86 -54 -115 -93
-164 -38 -379 82 -315 29 16 58 86 58 147 0 75 17 64 25 -17 11 -108 51 -154
121 -137 18 5 31 20 46 53 28 64 21 150 -20 235 -51 103 -123 232 -136 240
-21 14 -63 8 -79 -10z"/>
<path d="M2670 3390 c-8 -5 -10 -10 -5 -10 6 0 17 5 25 10 8 5 11 10 5 10 -5
0 -17 -5 -25 -10z"/>
<path d="M2665 3360 c-8 -13 5 -13 25 0 13 8 13 10 -2 10 -9 0 -20 -4 -23 -10z"/>
<path d="M2685 3330 c-3 -5 -2 -10 4 -10 5 0 13 5 16 10 3 6 2 10 -4 10 -5 0
-13 -4 -16 -10z"/>
<path d="M2712 3311 c-10 -6 -10 -10 3 -21 13 -11 15 -9 15 9 0 24 0 24 -18
12z"/>
<path d="M2615 3270 c-3 -5 -1 -10 4 -10 6 0 11 5 11 10 0 6 -2 10 -4 10 -3 0
-8 -4 -11 -10z"/>
<path d="M2734 3259 c-3 -6 -2 -15 3 -20 5 -5 9 -1 9 11 0 23 -2 24 -12 9z"/>
<path d="M3269 3243 c-11 -13 -11 -17 -1 -20 14 -5 17 -33 3 -33 -5 0 -11 6
-14 13 -2 6 -7 9 -11 5 -7 -6 14 -48 24 -48 7 1 40 74 40 88 0 18 -25 15 -41
-5z"/>
<path d="M2780 3231 c0 -7 -4 -9 -10 -6 -5 3 -10 2 -10 -4 0 -5 4 -12 9 -15
10 -6 25 24 16 32 -3 3 -5 0 -5 -7z"/>
<path d="M3140 3219 c0 -4 9 -13 20 -19 16 -8 20 -8 20 3 0 8 -9 17 -20 20
-11 3 -20 1 -20 -4z"/>
<path d="M2866 3180 c-17 -5 -15 -8 10 -17 57 -22 71 -24 77 -9 4 10 1 13 -9
9 -8 -3 -24 1 -37 9 -12 9 -30 12 -41 8z"/>
<path d="M3085 3180 c-7 -11 21 -39 41 -40 13 0 44 -33 78 -84 36 -54 33 -31
-4 27 -16 26 -30 53 -30 60 0 7 -5 19 -11 27 -9 13 -10 12 -5 -2 3 -10 1 -18
-4 -18 -9 0 -14 14 -11 33 2 12 -17 8 -22 -5 -4 -10 -8 -10 -15 1 -7 10 -11
10 -17 1z"/>
<path d="M2685 3170 c-3 -5 -2 -10 4 -10 5 0 13 5 16 10 3 6 2 10 -4 10 -5 0
-13 -4 -16 -10z"/>
<path d="M3210 3167 c0 -8 9 -22 20 -32 11 -10 17 -21 15 -26 -3 -4 -1 -10 5
-14 16 -10 12 24 -7 56 -18 31 -33 38 -33 16z"/>
<path d="M5620 4190 c0 -5 7 -10 16 -10 8 0 12 5 9 10 -3 6 -10 10 -16 10 -5
0 -9 -4 -9 -10z"/>
<path d="M5610 4160 c0 -5 5 -10 11 -10 5 0 7 5 4 10 -3 6 -8 10 -11 10 -2 0
-4 -4 -4 -10z"/>
<path d="M5575 4090 c3 -5 8 -10 11 -10 2 0 4 5 4 10 0 6 -5 10 -11 10 -5 0
-7 -4 -4 -10z"/>
<path d="M5555 4050 c3 -5 8 -10 11 -10 2 0 4 5 4 10 0 6 -5 10 -11 10 -5 0
-7 -4 -4 -10z"/>
<path d="M5540 4020 c0 -5 5 -10 11 -10 5 0 7 5 4 10 -3 6 -8 10 -11 10 -2 0
-4 -4 -4 -10z"/>
<path d="M5510 3960 c0 -5 5 -10 11 -10 5 0 7 5 4 10 -3 6 -8 10 -11 10 -2 0
-4 -4 -4 -10z"/>
<path d="M5486 3901 c-4 -7 -5 -15 -2 -18 9 -9 19 4 14 18 -4 11 -6 11 -12 0z"/>
<path d="M5450 3830 c0 -5 5 -10 10 -10 6 0 10 5 10 10 0 6 -4 10 -10 10 -5 0
-10 -4 -10 -10z"/>
<path d="M5428 3779 c-9 -16 -14 -29 -9 -29 8 0 34 50 29 56 -2 1 -11 -11 -20
-27z"/>
<path d="M5400 3724 c0 -8 5 -12 10 -9 6 3 10 10 10 16 0 5 -4 9 -10 9 -5 0
-10 -7 -10 -16z"/>
<path d="M5380 3684 c0 -8 5 -12 10 -9 6 4 8 11 5 16 -9 14 -15 11 -15 -7z"/>
<path d="M5351 3646 c-8 -9 -8 -16 -2 -20 6 -4 15 3 21 14 12 23 -2 27 -19 6z"/>
<path d="M5330 3596 c0 -8 -4 -16 -9 -18 -13 -5 -24 -48 -12 -48 6 0 10 3 9 8
-1 4 6 22 15 40 10 17 13 32 7 32 -5 0 -10 -6 -10 -14z"/>
<path d="M5280 3510 c0 -5 5 -10 10 -10 6 0 10 5 10 10 0 6 -4 10 -10 10 -5 0
-10 -4 -10 -10z"/>
<path d="M5270 3481 c0 -6 5 -13 10 -16 6 -3 10 1 10 9 0 9 -4 16 -10 16 -5 0
-10 -4 -10 -9z"/>
<path d="M5250 3440 c0 -5 5 -10 10 -10 6 0 10 5 10 10 0 6 -4 10 -10 10 -5 0
-10 -4 -10 -10z"/>
<path d="M5235 3410 c-3 -5 1 -10 10 -10 9 0 13 5 10 10 -3 6 -8 10 -10 10 -2
0 -7 -4 -10 -10z"/>
<path d="M5220 3380 c0 -5 5 -10 10 -10 6 0 10 5 10 10 0 6 -4 10 -10 10 -5 0
-10 -4 -10 -10z"/>
<path d="M5200 3351 c0 -6 5 -13 10 -16 6 -3 10 1 10 9 0 9 -4 16 -10 16 -5 0
-10 -4 -10 -9z"/>
<path d="M5186 3321 c-4 -7 -5 -15 -2 -18 9 -9 19 4 14 18 -4 11 -6 11 -12 0z"/>
<path d="M5170 3280 c0 -5 5 -10 11 -10 5 0 7 5 4 10 -3 6 -8 10 -11 10 -2 0
-4 -4 -4 -10z"/>
<path d="M5150 3244 c0 -8 5 -12 10 -9 6 4 8 11 5 16 -9 14 -15 11 -15 -7z"/>
<path d="M5135 3210 c3 -5 8 -10 11 -10 2 0 4 5 4 10 0 6 -5 10 -11 10 -5 0
-7 -4 -4 -10z"/>
<path d="M5102 3162 c-23 -47 -24 -52 -13 -52 6 0 13 11 17 25 3 14 10 25 15
25 5 0 9 7 9 15 0 24 -14 17 -28 -13z"/>
<path d="M5065 3090 c4 -6 11 -8 16 -5 14 9 11 15 -7 15 -8 0 -12 -5 -9 -10z"/>
<path d="M5044 3055 c-9 -19 -9 -25 3 -30 10 -3 13 -1 10 9 -3 8 -1 17 6 19 8
3 9 8 2 15 -7 8 -13 4 -21 -13z"/>
<path d="M5020 3006 c0 -9 5 -16 10 -16 6 0 10 4 10 9 0 6 -4 13 -10 16 -5 3
-10 -1 -10 -9z"/>
<path d="M5007 2973 c-10 -9 -9 -23 2 -23 5 0 11 7 15 15 5 15 -5 20 -17 8z"/>
<path d="M4990 2929 c0 -5 5 -7 10 -4 6 3 10 8 10 11 0 2 -4 4 -10 4 -5 0 -10
-5 -10 -11z"/>
<path d="M4975 2900 c3 -5 8 -10 11 -10 2 0 4 5 4 10 0 6 -5 10 -11 10 -5 0
-7 -4 -4 -10z"/>
<path d="M4960 2880 c0 -5 5 -10 11 -10 5 0 7 5 4 10 -3 6 -8 10 -11 10 -2 0
-4 -4 -4 -10z"/>
<path d="M4945 2850 c-3 -5 -1 -10 4 -10 6 0 11 5 11 10 0 6 -2 10 -4 10 -3 0
-8 -4 -11 -10z"/>
<path d="M4910 2789 c0 -5 5 -7 10 -4 6 3 10 8 10 11 0 2 -4 4 -10 4 -5 0 -10
-5 -10 -11z"/>
<path d="M4875 2720 c-3 -5 -1 -10 4 -10 6 0 11 5 11 10 0 6 -2 10 -4 10 -3 0
-8 -4 -11 -10z"/>
<path d="M4846 2673 c-15 -30 -15 -33 -1 -33 9 0 13 5 9 11 -3 6 -1 15 6 19 7
4 10 14 8 21 -3 9 -11 2 -22 -18z"/>
<path d="M4797 2581 c-20 -34 -21 -41 -6 -41 5 0 7 5 4 10 -3 6 -3 10 2 10 4
0 13 11 20 25 16 35 1 31 -20 -4z"/>
<path d="M4767 2516 c-4 -10 -5 -21 -2 -24 9 -9 17 6 13 25 -3 17 -4 17 -11
-1z"/>
<path d="M4740 2464 c0 -8 5 -12 10 -9 6 3 10 10 10 16 0 5 -4 9 -10 9 -5 0
-10 -7 -10 -16z"/>
<path d="M4720 2430 c0 -5 5 -10 10 -10 6 0 10 5 10 10 0 6 -4 10 -10 10 -5 0
-10 -4 -10 -10z"/>
<path d="M4705 2400 c-3 -5 -1 -10 4 -10 6 0 11 5 11 10 0 6 -2 10 -4 10 -3 0
-8 -4 -11 -10z"/>
<path d="M4685 2360 c3 -5 8 -10 11 -10 2 0 4 5 4 10 0 6 -5 10 -11 10 -5 0
-7 -4 -4 -10z"/>
<path d="M4665 2341 c-3 -5 -1 -12 5 -16 5 -3 10 1 10 9 0 18 -6 21 -15 7z"/>
<path d="M4630 2270 c0 -5 5 -10 10 -10 6 0 10 5 10 10 0 6 -4 10 -10 10 -5 0
-10 -4 -10 -10z"/>
<path d="M4605 2241 c-6 -11 9 -23 19 -14 9 9 7 23 -3 23 -6 0 -12 -4 -16 -9z"/>
<path d="M4582 2190 c-7 -11 -10 -20 -6 -20 7 0 34 27 34 34 0 13 -16 5 -28
-14z"/>
<path d="M4552 2139 c-10 -15 -11 -24 -3 -32 8 -8 11 -5 11 11 0 12 5 22 10
22 6 0 10 5 10 10 0 17 -14 11 -28 -11z"/>
<path d="M4530 2086 c0 -9 5 -16 10 -16 6 0 10 4 10 9 0 6 -4 13 -10 16 -5 3
-10 -1 -10 -9z"/>
<path d="M4510 2044 c0 -8 5 -12 10 -9 6 3 10 10 10 16 0 5 -4 9 -10 9 -5 0
-10 -7 -10 -16z"/>
<path d="M3857 2143 c-4 -3 -7 -11 -7 -17 0 -6 5 -5 12 2 6 6 9 14 7 17 -3 3
-9 2 -12 -2z"/>
<path d="M3550 2126 c0 -2 7 -9 15 -16 9 -7 15 -8 15 -2 0 5 -7 12 -15 16 -8
3 -15 4 -15 2z"/>
<path d="M3666 1981 c-4 -7 -5 -15 -2 -18 9 -9 19 4 14 18 -4 11 -6 11 -12 0z"/>
<path d="M5229 1617 c-1 -4 -2 -11 -3 -16 0 -5 -4 -13 -8 -17 -11 -10 -10 -24
1 -24 10 0 25 50 16 58 -3 3 -6 2 -6 -1z"/>
<path d="M2370 1220 c0 -5 5 -10 10 -10 6 0 10 5 10 10 0 6 -4 10 -10 10 -5 0
-10 -4 -10 -10z"/>
<path d="M2465 1120 c-3 -5 -2 -10 4 -10 5 0 13 5 16 10 3 6 2 10 -4 10 -5 0
-13 -4 -16 -10z"/>
<path d="M2575 930 c3 -5 8 -10 11 -10 2 0 4 5 4 10 0 6 -5 10 -11 10 -5 0 -7
-4 -4 -10z"/>
<path d="M3915 1399 c-11 -17 1 -21 15 -4 8 9 8 15 2 15 -6 0 -14 -5 -17 -11z"/>
<path d="M4050 1436 c0 -7 30 -19 67 -28 106 -26 93 -9 -19 25 -35 10 -48 11
-48 3z"/>
<path d="M1940 600 c0 -5 7 -10 15 -10 8 0 15 5 15 10 0 6 -7 10 -15 10 -8 0
-15 -4 -15 -10z"/>
<path d="M1965 570 c3 -5 8 -10 11 -10 2 0 4 5 4 10 0 6 -5 10 -11 10 -5 0 -7
-4 -4 -10z"/>
<path d="M2015 500 c3 -5 8 -10 11 -10 2 0 4 5 4 10 0 6 -5 10 -11 10 -5 0 -7
-4 -4 -10z"/>
<path d="M2040 471 c0 -6 4 -13 10 -16 6 -3 7 1 4 9 -7 18 -14 21 -14 7z"/>
<path d="M2060 419 c0 -5 5 -7 10 -4 6 3 10 8 10 11 0 2 -4 4 -10 4 -5 0 -10
-5 -10 -11z"/>
<path d="M2080 389 c0 -5 5 -7 10 -4 6 3 10 8 10 11 0 2 -4 4 -10 4 -5 0 -10
-5 -10 -11z"/>
<path d="M2105 359 c-4 -6 -5 -12 -2 -15 2 -3 7 2 10 11 7 17 1 20 -8 4z"/>
<path d="M2135 280 c-3 -5 -1 -10 4 -10 6 0 11 5 11 10 0 6 -2 10 -4 10 -3 0
-8 -4 -11 -10z"/>
<path d="M3734 1094 c-18 -14 -18 -15 4 -4 12 6 22 13 22 15 0 8 -5 6 -26 -11z"/>
<path d="M4030 951 c0 -6 5 -13 10 -16 6 -3 10 1 10 9 0 9 -4 16 -10 16 -5 0
-10 -4 -10 -9z"/>
<path d="M5480 851 c0 -5 7 -12 16 -15 14 -5 15 -4 4 9 -14 17 -20 19 -20 6z"/>
<path d="M5340 519 c0 -5 5 -7 10 -4 6 3 10 8 10 11 0 2 -4 4 -10 4 -5 0 -10
-5 -10 -11z"/>
<path d="M810 190 c0 -5 5 -10 11 -10 5 0 7 5 4 10 -3 6 -8 10 -11 10 -2 0 -4
-4 -4 -10z"/>
<path d="M5590 480 c0 -5 5 -10 10 -10 6 0 10 5 10 10 0 6 -4 10 -10 10 -5 0
-10 -4 -10 -10z"/>
<path d="M3615 600 c-3 -5 -1 -10 4 -10 6 0 11 5 11 10 0 6 -2 10 -4 10 -3 0
-8 -4 -11 -10z"/>
<path d="M3590 549 c0 -5 5 -7 10 -4 6 3 10 8 10 11 0 2 -4 4 -10 4 -5 0 -10
-5 -10 -11z"/>
<path d="M3555 500 c-3 -5 -2 -10 4 -10 5 0 13 5 16 10 3 6 2 10 -4 10 -5 0
-13 -4 -16 -10z"/>
<path d="M3540 469 c0 -5 5 -7 10 -4 6 3 10 8 10 11 0 2 -4 4 -10 4 -5 0 -10
-5 -10 -11z"/>
<path d="M3525 440 c-3 -5 -1 -10 4 -10 6 0 11 5 11 10 0 6 -2 10 -4 10 -3 0
-8 -4 -11 -10z"/>
<path d="M3500 399 c0 -5 5 -7 10 -4 6 3 10 8 10 11 0 2 -4 4 -10 4 -5 0 -10
-5 -10 -11z"/>
<path d="M3315 80 c-3 -5 -1 -10 4 -10 6 0 11 5 11 10 0 6 -2 10 -4 10 -3 0
-8 -4 -11 -10z"/>
<path d="M4300 660 c0 -5 5 -10 10 -10 6 0 10 5 10 10 0 6 -4 10 -10 10 -5 0
-10 -4 -10 -10z"/>
<path d="M4063 420 c0 -47 2 -66 4 -42 2 23 2 61 0 85 -2 23 -4 4 -4 -43z"/>
</g>
</svg>
